<?xml version="1.0" encoding="utf-8"?>
<!-- Generator: Adobe Illustrator 23.1.0, SVG Export Plug-In . SVG Version: 6.00 Build 0)  -->
<svg version="1.1" xmlns="http://www.w3.org/2000/svg" xmlns:xlink="http://www.w3.org/1999/xlink" x="0px" y="0px"
	 viewBox="0 0 1000 600" style="enable-background:new 0 0 1000 600;" xml:space="preserve">
<style type="text/css">
	.st0{fill:#B0B7A7;}
	.st1{fill:#FAE3AD;}
	.st2{fill:#DA1415;}
	.st3{fill:#003050;}
	.st4{fill:none;}
	.st5{fill:none;stroke:#003050;stroke-width:25;stroke-miterlimit:10;}
	.st6{fill:#7096A0;}
	.st7{fill:none;stroke:#7096A0;stroke-miterlimit:10;}
</style>
<g id="Leaves">
	<path class="st0" d="M436.4,413.64c0,0-6.74-33.24-4.11-38.57c2.63-5.33,21.51-14.86,25.46,0
		C461.71,389.94,436.4,413.64,436.4,413.64z"/>
	<path class="st0" d="M294.46,291.84c0,0,25.31-22.57,31.25-22.98c5.93-0.41,23.68,11.09,12.83,21.99
		C327.69,301.75,294.46,291.84,294.46,291.84z"/>
	<path class="st0" d="M559.61,364.2c0,0-26.03-21.74-27.31-27.55c-1.27-5.81,7.51-25.05,19.88-15.91
		C564.55,329.88,559.61,364.2,559.61,364.2z"/>
	<path class="st0" d="M375.5,102.51c0,0-11.69,31.84-16.73,34.99s-26.11,1.37-21.68-13.36S375.5,102.51,375.5,102.51z"/>
	<path class="st0" d="M233.58,221.15c0,0,30.98-13.81,36.76-12.39c5.78,1.41,19.18,17.77,5.54,24.85
		C262.22,240.7,233.58,221.15,233.58,221.15z"/>
	<path class="st0" d="M904.55,448.84c0,0-6.25-33.34-3.53-38.63s21.73-14.54,25.46,0.38C930.21,425.51,904.55,448.84,904.55,448.84z
		"/>
	<path class="st0" d="M874.8,253.95c0,0,5.94,33.39,3.18,38.66c-2.76,5.27-21.86,14.34-25.46-0.61S874.8,253.95,874.8,253.95z"/>
	<path class="st0" d="M975.27,201.24c0,0-24.16,23.8-30.07,24.51s-24.2-9.9-13.91-21.33C941.59,192.99,975.27,201.24,975.27,201.24z
		"/>
	<path class="st0" d="M963.07,147.96c0,0-24.16,23.8-30.07,24.51c-5.91,0.71-24.2-9.9-13.91-21.33
		C929.39,139.7,963.07,147.96,963.07,147.96z"/>
	<path class="st0" d="M874.26,64.6c0,0,2.33,33.84-0.98,38.78c-3.31,4.94-23.27,11.92-25.24-3.33S874.26,64.6,874.26,64.6z"/>
	<path class="st0" d="M674.51,86.97c0,0,2.33,33.84-0.98,38.78c-3.31,4.94-23.27,11.92-25.24-3.33S674.51,86.97,674.51,86.97z"/>
	<path class="st0" d="M795.07,103.25c0,0-19.17,27.98-24.83,29.8c-5.66,1.82-25.65-5.09-17.73-18.28
		C760.43,101.59,795.07,103.25,795.07,103.25z"/>
	<path class="st0" d="M393.03,128.64c0,0,33.01-7.8,38.42-5.34c5.41,2.46,15.54,21.03,0.81,25.45
		C417.53,153.17,393.03,128.64,393.03,128.64z"/>
	<path class="st0" d="M555.13,227.31c0,0,33.81-2.64,38.78,0.62s12.13,23.16-3.1,25.27C575.58,255.32,555.13,227.31,555.13,227.31z"
		/>
	<path class="st1" d="M387.5,369.5c0,0,28.59-18.25,34.51-17.71c5.92,0.54,21.61,14.72,9.16,23.76
		C418.72,384.59,387.5,369.5,387.5,369.5z"/>
	<path class="st1" d="M466.18,255.91c0,0,29.87,16.07,32.28,21.51s-2.33,26.04-16.28,19.58
		C468.22,290.53,466.18,255.91,466.18,255.91z"/>
	<path class="st1" d="M584.27,199.45c0,0,29.87,16.07,32.28,21.51c2.41,5.43-2.33,26.04-16.28,19.58
		C586.31,234.06,584.27,199.45,584.27,199.45z"/>
	<path class="st1" d="M273.15,122.99c0,0,29.87,16.07,32.28,21.51c2.41,5.43-2.33,26.04-16.28,19.58S273.15,122.99,273.15,122.99z"
		/>
	<path class="st1" d="M323.49,238.53c0,0,33.77-3.15,38.79,0.04c5.02,3.19,12.48,22.98-2.72,25.32S323.49,238.53,323.49,238.53z"/>
	<path class="st1" d="M262.89,263.04c0,0,13.03-31.31,18.19-34.26s26.15-0.27,21.1,14.26C297.13,257.56,262.89,263.04,262.89,263.04
		z"/>
	<path class="st1" d="M539.32,96.17c0,0,12.97,31.34,11.41,37.07c-1.57,5.74-18.27,18.7-24.99,4.87
		C519.02,124.28,539.32,96.17,539.32,96.17z"/>
	<path class="st1" d="M603.99,87.21c0,0,12.97,31.34,11.41,37.07c-1.57,5.74-18.27,18.7-24.99,4.87
		C583.69,115.32,603.99,87.21,603.99,87.21z"/>
	<path class="st1" d="M735.2,94.21c0,0,12.97,31.34,11.41,37.07c-1.57,5.74-18.27,18.7-24.99,4.87
		C714.89,122.32,735.2,94.21,735.2,94.21z"/>
	<path class="st1" d="M663.87,170.4c0,0,32.79-8.67,38.27-6.35c5.48,2.32,16.09,20.61,1.48,25.42
		C689.01,194.28,663.87,170.4,663.87,170.4z"/>
	<path class="st1" d="M902.99,112.55c0,0-27.98,19.17-33.91,18.83c-5.94-0.35-22.08-14.01-9.93-23.45
		C871.29,98.49,902.99,112.55,902.99,112.55z"/>
	<path class="st1" d="M435.97,91.98c0,0,33.27,6.61,37.17,11.1c3.9,4.49,5.41,25.58-9.83,23.49
		C448.08,124.47,435.97,91.98,435.97,91.98z"/>
	<path class="st1" d="M878.69,156.87c0,0-6.22,33.34-10.66,37.3s-25.52,5.71-23.61-9.55S878.69,156.87,878.69,156.87z"/>
	<path class="st1" d="M770.95,177.63c0,0,28.75,17.99,30.81,23.57c2.06,5.58-4.02,25.84-17.53,18.47
		C770.73,212.31,770.95,177.63,770.95,177.63z"/>
	<path class="st1" d="M954.09,293.41c0,0-33.89-1.31-38.45-5.13c-4.56-3.82-9.36-24.42,6.02-24.74S954.09,293.41,954.09,293.41z"/>
	<path class="st1" d="M944.15,267.78c0,0-29.21-17.23-31.41-22.76c-2.2-5.53,3.35-25.93,17.04-18.92
		C943.47,233.11,944.15,267.78,944.15,267.78z"/>
	<path class="st1" d="M875.35,393.34c0,0,1.55-33.88,5.4-38.41s24.48-9.18,24.7,6.2C905.66,376.5,875.35,393.34,875.35,393.34z"/>
	<path class="st2" d="M528.04,395.71c0,0-22.56-25.32-22.97-31.25c-0.41-5.93,11.1-23.67,22-12.82
		C537.97,362.48,528.04,395.71,528.04,395.71z"/>
	<path class="st2" d="M406.71,331.03c0,0,26.75-20.85,32.7-20.86c5.95-0.02,22.89,12.64,11.35,22.8
		C439.21,343.12,406.71,331.03,406.71,331.03z"/>
	<path class="st2" d="M444.58,302.34c0,0-21.86-25.93-22.11-31.87c-0.25-5.94,11.75-23.36,22.34-12.21
		C455.42,269.39,444.58,302.34,444.58,302.34z"/>
	<path class="st2" d="M678.91,232.27c0,0-11.27,31.99-16.27,35.21s-26.09,1.72-21.85-13.07
		C645.02,239.63,678.91,232.27,678.91,232.27z"/>
	<path class="st2" d="M296.77,255.78c0,0,10.33-32.3,15.23-35.67c4.9-3.37,26.03-2.48,22.23,12.42
		C330.43,247.43,296.77,255.78,296.77,255.78z"/>
	<path class="st2" d="M326.78,91.59c0,0,21.25,26.43,21.36,32.38c0.11,5.95-12.29,23.08-22.62,11.69
		C315.18,124.27,326.78,91.59,326.78,91.59z"/>
	<path class="st2" d="M408.69,97.46c0,0,32.9,8.25,36.57,12.92c3.68,4.68,4.14,25.82-10.98,22.98
		C419.17,130.51,408.69,97.46,408.69,97.46z"/>
	<path class="st2" d="M546.38,102.15c0,0,32.9,8.25,36.57,12.92c3.68,4.68,4.14,25.82-10.98,22.98
		C556.86,135.2,546.38,102.15,546.38,102.15z"/>
	<path class="st2" d="M695.54,130.29c0,0,23.97,24,24.71,29.9s-9.73,24.27-21.23,14.05C687.52,164.02,695.54,130.29,695.54,130.29z"
		/>
	<path class="st2" d="M786.74,78.65c0,0,23.97,24,24.71,29.9c0.75,5.9-9.73,24.27-21.23,14.05
		C778.72,112.39,786.74,78.65,786.74,78.65z"/>
	<path class="st2" d="M843.98,87.4c0,0-14.04,30.87-19.3,33.65s-26.14-0.58-20.62-14.94S843.98,87.4,843.98,87.4z"/>
	<path class="st2" d="M826.78,181.27c0,0-5.22,33.51-9.54,37.6c-4.32,4.09-25.33,6.47-23.88-8.84S826.78,181.27,826.78,181.27z"/>
	<path class="st2" d="M900.7,210.47c0,0-33.3,6.41-38.61,3.73c-5.31-2.69-14.65-21.66,0.25-25.46
		C877.24,184.93,900.7,210.47,900.7,210.47z"/>
	<path class="st2" d="M934.37,340.02c0,0-33.3,6.41-38.61,3.73c-5.31-2.69-14.65-21.66,0.25-25.46
		C910.92,314.48,934.37,340.02,934.37,340.02z"/>
	<path class="st2" d="M894.91,305.01c0,0-18.35-28.52-17.83-34.45c0.52-5.92,14.65-21.66,23.73-9.24
		C909.88,273.73,894.91,305.01,894.91,305.01z"/>
</g>
<g id="Layer_1">
	<g>
		<path class="st3" d="M455.87,106.13c2.38,2.09,5.1,3.69,7.79,5.31c1.36,0.79,2.7,1.59,4.09,2.33c1.37,0.77,2.75,1.51,4.15,2.23
			c5.57,2.92,11.19,5.72,16.87,8.43c11.33,5.46,22.81,10.63,34.28,15.79c11.51,5.08,23,10.17,34.56,15.08
			c11.56,4.91,23.09,9.84,34.69,14.48c5.8,2.31,11.56,4.67,17.34,6.87c2.88,1.1,5.76,2.18,8.62,3.21l8.83,3.11
			c12.09,4.28,24.09,9.01,36.06,14.11c11.97,5.12,23.81,10.78,35.53,17.3c5.85,3.29,11.65,6.83,17.41,10.73
			c5.75,3.91,11.44,8.21,16.98,13.26c5.51,5.08,10.99,10.85,15.75,18.41c2.3,3.93,4.53,8.08,6.04,13.12
			c0.85,2.38,1.33,5.14,1.83,7.79l0.37,2.07c0.11,0.63,0.21,1.24,0.37,1.94c1.09,5.39,2.5,11.38,3.95,17.4
			c1.45,6.04,3,12.2,4.45,18.43c2.92,12.47,5.75,25.21,7.96,38.25c1.13,6.52,2.09,13.13,2.93,19.81c0.75,6.72,1.43,13.47,1.74,20.39
			c0.23,3.43,0.24,6.95,0.34,10.43l-0.04,5.3l-0.04,2.65l-0.13,2.68c-0.24,7.12-1.07,14.45-2.28,21.84
			c-1.24,7.41-3.25,14.98-5.99,22.51l-2.27,5.65c-0.82,1.88-1.79,3.74-2.7,5.61c-0.87,1.87-1.98,3.7-3.08,5.52
			c-1.1,1.82-2.15,3.66-3.47,5.4l-1.91,2.63l-1.75,2.37l-0.96,1.26l-0.93,1.31c-1.22,1.78-2.37,3.64-3.43,5.64
			c-1.06,2-2.04,4.1-2.96,6.3c-0.91,2.2-1.73,4.52-2.49,6.9c-3.05,9.57-4.92,20.47-6.1,31.98c-1.24,11.54-1.83,23.7-2.59,36.55
			c-0.42,6.44-0.88,13.05-1.66,20.02c-0.81,6.97-1.82,14.26-4,22.34c-1.11,4.04-2.53,8.3-4.61,12.8c-2.08,4.48-4.95,9.31-8.98,13.9
			c-2.07,2.28-4.35,4.51-6.98,6.46c-1.27,1.01-2.67,1.89-4.05,2.77c-0.2,0.13-0.31,0.19-0.41,0.24l-0.32,0.18l-0.64,0.35l-1.29,0.71
			l-5.18,2.79c-1.72,0.87-3.37,1.57-5.07,2.36c-1.68,0.74-3.38,1.57-5.04,2.24l-4.97,1.95c-3.33,1.36-6.6,2.44-9.87,3.55
			c-3.29,1.17-6.54,2.13-9.8,3.1c-1.63,0.48-3.26,0.98-4.89,1.44l-4.87,1.28c-12.98,3.41-25.91,6.19-38.86,8.38
			c-12.94,2.23-25.91,3.95-38.9,5.32c-13,1.31-26.05,2.17-39.18,2.6c-3.3,0.06-6.54,0.19-9.89,0.19l-10.1-0.07
			c-6.64-0.23-13.28-0.5-19.79-1.03c-13.05-0.93-25.88-2.38-38.52-3.98c-12.64-1.62-25.18-3.37-37.56-5.11
			c-12.38-1.71-24.67-3.24-36.75-4.36c-2.99-0.23-6.04-0.55-9-0.7l-4.44-0.21c-1.47-0.06-2.99-0.19-4.41-0.15l-4.33,0l-2.17-0.01
			c-0.71,0.02-1.38,0.08-2.08,0.12l-4.15,0.25l-1.04,0.06l-1.15,0.13l-2.31,0.25c-12.33,1.34-24.82,3.06-37.32,4.66
			c-12.51,1.57-25.03,3.28-37.6,4.76c-12.56,1.55-25.15,2.96-37.78,4.2c-6.32,0.58-12.64,1.15-18.99,1.56
			c-6.34,0.34-12.72,0.82-19.08,0.31c1.57-0.28,3.13-0.49,4.67-0.81l4.61-1.07c3.06-0.76,6.12-1.52,9.16-2.35
			c6.09-1.65,12.17-3.32,18.23-5.07l36.41-10.42c12.14-3.52,24.3-6.89,36.5-10.29c12.22-3.36,24.44-6.59,36.93-9.67l2.35-0.57
			l1.17-0.28l1.3-0.24l5.22-0.95c0.87-0.15,1.75-0.33,2.61-0.45l2.55-0.3l5.1-0.59c1.72-0.23,3.36-0.29,5.04-0.42l5.01-0.34
			c3.34-0.22,6.59-0.25,9.9-0.37c13.11-0.29,25.96,0.16,38.69,0.59c12.74,0.44,25.29,1.12,37.76,1.6
			c12.47,0.56,24.8,0.88,36.93,0.89c6.09,0.05,12.05-0.19,18.01-0.35l8.8-0.53c2.94-0.19,6-0.52,8.99-0.77
			c12.03-1.13,24.09-2.67,36.09-4.52c12-1.89,23.94-4.14,35.75-6.66l8.82-1.99l8.74-2.16c2.93-0.68,5.76-1.54,8.65-2.29
			c1.43-0.4,2.88-0.76,4.3-1.19l4.23-1.28l4.23-1.27c1.39-0.44,2.76-0.92,4.13-1.38l4.13-1.37c1.39-0.44,2.68-0.98,4.02-1.46
			c2.66-0.99,5.36-1.95,7.83-3.07l3.79-1.6c1.25-0.54,2.36-1.14,3.55-1.71c1.15-0.58,2.39-1.12,3.46-1.71
			c1.02-0.61,2.06-1.19,3.09-1.78l1.46-0.82c-0.08-0.01-0.11,0.08-0.17,0.07c-0.09,0.09-0.14,0.06-0.09,0.02
			c0.08-0.18,0.54-0.78,1.07-2.03c0.53-1.24,1.11-2.98,1.62-5.03c1.04-4.11,1.83-9.34,2.37-14.89c0.56-5.57,0.91-11.54,1.24-17.68
			c0.7-12.31,1.23-25.35,2.65-38.88c1.48-13.52,3.72-27.64,8.42-42.08c1.2-3.6,2.53-7.22,4.06-10.82c1.55-3.6,3.28-7.19,5.22-10.74
			c1.95-3.54,4.14-7.03,6.53-10.41c0.61-0.84,1.21-1.69,1.84-2.52l1.94-2.47l1.96-2.59c0.65-0.73,1.14-1.65,1.69-2.51
			c0.55-0.87,1.14-1.69,1.58-2.69c0.47-0.97,1.01-1.87,1.48-2.87c0.43-1.04,0.86-2.06,1.31-3.09c0.24-0.5,0.42-1.05,0.61-1.61
			l0.57-1.66l0.58-1.65l0.48-1.75c0.31-1.18,0.69-2.31,0.97-3.53l0.81-3.68c0.95-5.02,1.74-10.22,2.06-15.69l0.16-2.03l0.08-2.07
			l0.18-4.15c0.01-2.82,0.12-5.6,0.02-8.47c-0.17-11.39-1.21-23.14-2.71-35.01c-1.54-11.88-3.49-23.9-5.72-36.1l-3.38-18.56
			c-1.13-6.32-2.3-12.67-3.22-19.72c-0.12-0.85-0.22-1.8-0.33-2.73l-0.29-2.61c-0.12-0.44,0.02-0.84-0.19-1.43
			c-0.11-1.07-0.79-2.57-1.51-4.16c-1.71-3.27-4.56-7.1-8.06-10.8c-3.51-3.73-7.63-7.4-12.02-10.95c-4.4-3.56-9.12-6.98-14-10.3
			c-9.78-6.64-20.23-12.81-30.9-18.76c-10.7-5.93-21.74-11.45-32.89-16.92l-8.6-4.19c-2.93-1.46-5.82-2.93-8.68-4.42
			c-5.71-3-11.35-6-16.92-9.14c-22.26-12.48-44-25.57-65.31-39.42c-10.66-6.91-21.18-14.06-31.5-21.5
			c-5.13-3.77-10.25-7.56-15.2-11.59c-1.24-1-2.47-2.02-3.68-3.06c-1.22-1.02-2.42-2.08-3.6-3.16
			C460.11,110.9,457.75,108.7,455.87,106.13z"/>
	</g>
	<g>
		<path class="st3" d="M717.51,264.05c1.29-5.69,3.05-10.72,4.97-15.6c1.01-2.4,2.02-4.78,3.1-7.11l1.67-3.45l0.83-1.72l0.89-1.68
			c4.7-8.99,10.05-17.48,16-25.54c5.96-8.04,12.52-15.64,19.78-22.57c1.87-1.69,3.66-3.44,5.58-5.06c1.96-1.59,3.87-3.22,5.86-4.77
			l6.13-4.42l5.88-3.94c15.6-10.54,30.9-21.39,44.62-34.06c6.82-6.35,13.23-13.17,18.59-20.79c5.33-7.6,9.65-16.14,11.2-25.53
			c-0.42,9.52-3.77,18.83-8.33,27.3c-4.59,8.5-10.36,16.33-16.58,23.68c-12.53,14.69-26.86,27.64-41.3,40.12l-5.43,4.66l-4.91,4.51
			c-1.58,1.57-3.09,3.21-4.64,4.8c-1.52,1.63-2.92,3.38-4.39,5.05c-5.68,6.89-10.72,14.35-15.15,22.13
			c-4.43,7.78-8.27,15.9-11.4,24.16l-0.6,1.54l-0.53,1.56l-1.07,3.1c-0.68,2.07-1.27,4.14-1.86,6.2c-1.07,4.1-1.92,8.19-2.29,11.84
			L717.51,264.05z"/>
	</g>
	<g>
		<path class="st3" d="M771.42,455.41c-0.26,2.98-0.41,6.49-0.53,9.91c-0.11,3.45-0.18,6.94-0.2,10.45
			c-0.06,7.01,0.06,14.04,0.31,21.06c0.51,14.02,1.64,27.98,3.78,41.36c1.07,6.68,2.44,13.21,4.22,19.26
			c0.87,3.05,1.89,5.9,2.97,8.57l0.84,1.94c0.29,0.63,0.59,1.18,0.88,1.79c0.15,0.29,0.29,0.61,0.44,0.88l0.46,0.78
			c0.34,0.56,0.49,0.95,1.1,1.81c8.16,12.07,16.18,23.45,25.37,33.75c4.58,5.14,9.43,10,14.57,14.49
			c5.16,4.47,10.63,8.59,16.41,12.25c11.58,7.28,24.47,12.69,38.16,15.9l5.16,1.11l5.39,1.01c3.6,0.68,7.2,1.33,10.8,1.97
			c7.21,1.29,14.43,2.49,21.67,3.63c7.24,1.13,14.49,2.17,21.77,3.08c7.28,0.89,14.57,1.73,21.9,2.13
			c-7.33,0.64-14.7,0.84-22.07,0.99c-7.37,0.12-14.75,0.12-22.12,0.03c-7.37-0.11-14.75-0.27-22.13-0.54
			c-3.69-0.12-7.38-0.26-11.06-0.43l-5.54-0.24l-5.73-0.4c-15.29-1.34-30.61-5.27-44.97-11.67c-7.17-3.22-14.09-7.03-20.71-11.28
			c-6.6-4.28-12.89-9.01-18.87-14.05c-11.95-10.06-22.59-21.41-32.55-32.39c-0.55-0.57-1.44-1.68-2.19-2.6l-1.16-1.44
			c-0.38-0.48-0.69-0.96-1.04-1.44c-0.67-0.96-1.38-1.93-2.01-2.89l-1.8-2.88c-2.29-3.84-4.3-7.68-6.01-11.49
			c-3.5-7.64-6.23-15.23-8.59-22.8c-4.7-15.14-8.08-30.22-10.82-45.35c-1.36-7.57-2.57-15.14-3.6-22.76
			c-0.52-3.81-0.99-7.64-1.42-11.52c-0.42-3.91-0.81-7.73-1.08-12.08L771.42,455.41z"/>
	</g>
	<g>
		<path class="st3" d="M587.19,188.39c-12.97,3.15-25.77,5.91-38.73,8.49c-12.93,2.56-25.91,4.89-38.95,6.89
			c-13.05,1.99-26.15,3.69-39.37,4.79c-6.6,0.58-13.24,0.94-19.89,1.13c-6.65,0.2-13.35,0.11-20.08-0.36l-2.52-0.18
			c-0.84-0.07-1.69-0.18-2.53-0.27c-1.69-0.2-3.37-0.35-5.06-0.67c-3.42-0.46-6.65-1.35-9.93-2.11l-2.45-0.58l-1.23-0.29l-1.2-0.37
			l-4.78-1.47c-1.59-0.5-3.19-0.97-4.77-1.48l-4.67-1.7c-12.46-4.53-24.52-9.86-36.29-15.7c-11.78-5.82-23.32-12.05-34.69-18.57
			c-11.35-6.54-22.56-13.32-33.51-20.47c11.34,6.51,22.9,12.63,34.57,18.49c11.68,5.84,23.51,11.37,35.49,16.46
			c11.97,5.12,24.17,9.68,36.53,13.38l4.63,1.39l4.67,1.16l4.67,1.15l1.17,0.29l1.17,0.21l2.35,0.41c3.13,0.53,6.25,1.21,9.35,1.43
			c1.54,0.2,3.12,0.25,4.69,0.34c0.79,0.04,1.57,0.1,2.36,0.12l2.38,0.03c6.34,0.08,12.73-0.19,19.13-0.75
			c6.4-0.55,12.8-1.27,19.18-2.2c12.78-1.8,25.52-4.21,38.2-6.89c12.68-2.7,25.31-5.72,37.87-8.97c12.54-3.25,25.14-6.74,37.4-10.47
			L587.19,188.39z"/>
	</g>
	<g>
		<path class="st3" d="M737.2,372.81l0.2-0.74l0.18-0.62l0.36-1.19l0.73-2.29c0.48-1.53,1-2.97,1.51-4.44
			c1.04-2.92,2.1-5.8,3.25-8.64c1.1-2.86,2.33-5.65,3.53-8.45c1.23-2.79,2.53-5.54,3.81-8.3c5.3-10.95,11.33-21.54,18.2-31.6
			c6.85-10.07,14.68-19.55,23.4-28.14l3.26-3.23l3.6-3.18c1.2-1.06,2.45-1.97,3.68-2.95l1.85-1.44l1.88-1.34
			c4.99-3.63,10.14-6.75,15.32-9.72c10.38-5.87,20.99-10.9,31.72-15.46c10.73-4.56,21.56-8.7,32.48-12.52
			c10.91-3.84,21.9-7.37,32.93-10.68c11.04-3.29,22.12-6.4,33.28-9.17c-10.74,4.08-21.35,8.48-31.86,13.04
			c-10.51,4.58-20.91,9.37-31.16,14.41c-10.25,5.03-20.34,10.35-30.16,15.99c-9.82,5.63-19.36,11.67-28.27,18.23
			c-4.42,3.3-8.74,6.69-12.64,10.33l-1.48,1.34l-1.39,1.39c-0.91,0.94-1.89,1.83-2.73,2.79l-2.54,2.85l-2.49,3.17
			c-6.69,8.39-12.54,17.48-17.5,27.09c-4.97,9.59-9.18,19.6-12.7,29.84c-0.84,2.57-1.69,5.14-2.48,7.72
			c-0.75,2.59-1.54,5.17-2.19,7.77c-0.71,2.59-1.31,5.2-1.9,7.78c-0.27,1.28-0.58,2.59-0.8,3.84l-0.36,1.88l-0.15,0.9l-0.07,0.42
			l-0.04,0.31L737.2,372.81z"/>
	</g>
	<g>
		<path class="st3" d="M739.39,347.58l-1.95-1.27l-2.11-1.33c-1.42-0.88-2.86-1.76-4.31-2.63c-2.89-1.74-5.84-3.44-8.8-5.11
			c-5.93-3.34-11.95-6.55-18.05-9.62c-12.19-6.15-24.69-11.75-37.43-16.68c-25.45-9.82-52.02-17.17-79.1-19.3
			c-27.03-2.12-54.73,1.56-81.53,8.61c-13.42,3.54-26.66,7.93-39.65,13.03c-6.49,2.55-12.92,5.3-19.27,8.22
			c-6.35,2.93-12.64,6.01-18.76,9.42c5.83-3.89,11.87-7.48,18-10.93c6.13-3.44,12.36-6.71,18.68-9.81
			c12.65-6.18,25.67-11.7,39.03-16.4c13.36-4.69,27.08-8.55,41.11-11.29c7.02-1.33,14.1-2.5,21.27-3.19l2.68-0.29
			c0.9-0.09,1.8-0.14,2.69-0.21l5.4-0.39c3.61-0.11,7.23-0.34,10.85-0.28c14.48-0.07,28.9,1.4,43.12,3.74
			c7.1,1.24,14.17,2.64,21.17,4.31c6.99,1.68,13.96,3.51,20.84,5.57c13.78,4.1,27.34,8.91,40.65,14.33
			c6.66,2.71,13.26,5.57,19.81,8.6c3.27,1.52,6.54,3.07,9.79,4.68c1.63,0.8,3.25,1.62,4.88,2.47l2.45,1.28l2.57,1.39L739.39,347.58z
			"/>
	</g>
	<g>
		<path class="st3" d="M353.95,184.04c-3.34-5.18-6.45-10.41-9.38-15.8c-1.47-2.69-2.84-5.43-4.14-8.22
			c-1.3-2.79-2.47-5.66-3.37-8.66c-1.62-5.98-2.69-11.91-3.84-17.89c-1.1-5.97-2.12-11.95-3.08-17.94c1.36,5.91,2.79,11.8,4.3,17.67
			c0.76,2.93,1.53,5.86,2.34,8.77c0.83,2.89,1.64,5.85,2.65,8.61c1.03,2.74,2.34,5.42,3.79,8.03c1.45,2.61,2.97,5.2,4.59,7.73
			c3.21,5.06,6.66,10.04,10.23,14.82L353.95,184.04z"/>
	</g>
	<g>
		<path class="st3" d="M513.1,203.33c-17.45,4.54-34.96,9.63-52.21,15.16c-17.22,5.61-34.39,11.59-50.66,19.2
			c-4.05,1.92-8.01,3.98-11.79,6.25c-1.89,1.13-3.7,2.35-5.43,3.64l-5.32,4.25c-7.46,5.78-15.6,10.24-23.89,14.24
			c-8.31,3.97-16.82,7.39-25.44,10.47c-8.62,3.08-17.34,5.84-26.16,8.19c8.65-2.91,17.16-6.21,25.52-9.82
			c8.35-3.61,16.57-7.54,24.47-11.95c7.87-4.43,15.52-9.32,22.14-15.16l5.09-4.62c1.84-1.56,3.73-3.01,5.67-4.35
			c3.88-2.68,7.88-5.1,11.94-7.35c16.28-8.92,33.26-16.06,50.32-22.86c17.12-6.72,34.32-12.94,51.87-18.73L513.1,203.33z"/>
	</g>
	<g>
		<path class="st3" d="M334.58,140.53c3.41-3.5,6.86-6.92,10.38-10.3c1.76-1.68,3.54-3.34,5.36-4.97c1.82-1.61,3.67-3.22,5.67-4.6
			c-1.85,1.58-3.51,3.35-5.14,5.13c-1.63,1.79-3.22,3.62-4.8,5.46c-3.14,3.69-6.21,7.45-9.21,11.24L334.58,140.53z"/>
	</g>
	<g>
		<path class="st3" d="M466.48,210.49c-16.04-1.58-32.25-2.79-48.4-3.65c-16.16-0.84-32.35-1.34-48.46-0.92
			c-4.02,0.12-8.04,0.28-12.04,0.57c-4,0.27-7.98,0.66-11.9,1.22c-1.97,0.28-3.89,0.59-5.83,0.92l-2.88,0.6l-2.86,0.72
			c-3.8,1.03-7.53,2.36-11.15,3.96c-7.25,3.21-14.06,7.54-20.22,12.72c-3.06,2.6-6,5.39-8.71,8.39c-2.72,2.99-5.29,6.15-7.49,9.57
			c1.91-3.6,4.21-6.99,6.69-10.24c2.48-3.26,5.2-6.34,8.1-9.26c5.82-5.82,12.45-10.91,19.77-14.94c7.3-4,15.31-7.03,23.58-8.56
			c4.1-0.76,8.21-1.32,12.31-1.76c4.1-0.46,8.2-0.78,12.3-1.07c16.39-1.07,32.75-1.2,49.09-1c16.35,0.23,32.63,0.8,49.02,1.76
			L466.48,210.49z"/>
	</g>
	<g>
		<path class="st3" d="M331.41,209.34c-3.47,5.07-6.89,10.18-10.23,15.34c-1.67,2.58-3.32,5.18-4.91,7.8
			c-0.79,1.31-1.58,2.64-2.32,3.98c-0.37,0.67-0.73,1.35-1.06,2.04c-0.16,0.35-0.32,0.69-0.46,1.05c-0.06,0.18-0.15,0.36-0.18,0.54
			l-0.07,0.28l0.01,0.29l-0.04-0.29l0.04-0.29c0.02-0.2,0.09-0.38,0.14-0.56c0.11-0.37,0.24-0.74,0.38-1.1
			c0.28-0.72,0.58-1.43,0.9-2.13c0.63-1.41,1.31-2.8,2-4.18c1.38-2.76,2.82-5.49,4.28-8.2c2.92-5.43,5.92-10.81,8.98-16.17
			L331.41,209.34z"/>
	</g>
	<g>
		<polygon class="st3" points="306.65,223.4 259.2,221.9 306.65,220.4 		"/>
	</g>
	<g>
		<path class="st3" d="M439.64,224.9c0.01-0.02-0.13,0.1-0.21,0.17c-0.09,0.07-0.2,0.18-0.3,0.27c-0.21,0.18-0.41,0.4-0.62,0.61
			c-0.41,0.43-0.82,0.89-1.2,1.38c-0.39,0.48-0.77,0.98-1.12,1.5c-0.38,0.51-0.7,1.05-1.03,1.6c-1.31,2.19-2.34,4.59-3.11,7.09
			c-0.82,2.5-1.19,5.15-1.49,7.82c-0.17,2.69-0.2,5.4,0.08,8.16c0.49,5.5,1.63,11.01,3.57,16.29c0.94,2.65,2.06,5.24,3.38,7.74
			c1.31,2.51,2.77,4.95,4.52,7.2c-2-2.03-3.76-4.31-5.38-6.68c-1.62-2.37-3.08-4.87-4.36-7.47c-2.62-5.17-4.48-10.74-5.68-16.49
			c-0.63-2.87-0.97-5.85-1.12-8.85c-0.03-3.01,0.05-6.07,0.65-9.09c0.55-3.02,1.43-6.03,2.72-8.91c0.33-0.72,0.65-1.44,1.04-2.13
			c0.36-0.71,0.77-1.4,1.2-2.08c0.42-0.69,0.88-1.35,1.38-2.02c0.25-0.33,0.5-0.66,0.78-1c0.14-0.17,0.27-0.33,0.43-0.5
			c0.17-0.18,0.28-0.32,0.55-0.58L439.64,224.9z"/>
	</g>
	<g>
		<path class="st3" d="M381.78,254.8c-3.1,0.32-6.14,0.49-9.21,0.58c-3.07,0.08-6.14,0.07-9.2-0.11c-3.06-0.18-6.12-0.5-9.13-1.16
			c-2.97-0.67-6.01-1.6-8.4-3.53c2.53,1.73,5.56,2.38,8.53,2.8c2.99,0.4,6.01,0.47,9.02,0.39c3.01-0.07,6.02-0.31,9.02-0.63
			c2.99-0.33,6-0.76,8.92-1.3L381.78,254.8z"/>
	</g>
	<g>
		<path class="st3" d="M549.1,163.55c-2.25-1.76-4.09-3.65-5.83-5.73c-1.72-2.06-3.22-4.3-4.49-6.65c-0.67-1.15-1.18-2.39-1.74-3.6
			c-0.44-1.26-0.98-2.47-1.29-3.76c-0.8-2.53-1.11-5.16-1.34-7.76c0.47,2.58,1.03,5.13,2.05,7.52c0.42,1.22,1.06,2.36,1.6,3.53
			c0.66,1.11,1.25,2.25,2,3.3c1.43,2.13,3.06,4.12,4.87,5.91c1.79,1.78,3.81,3.46,5.82,4.74L549.1,163.55z"/>
	</g>
	<g>
		<path class="st3" d="M497.41,140.04c-13.66-1.58-27.14-3.46-40.7-4.86c-6.77-0.7-13.55-1.31-20.34-1.57
			c-3.39-0.13-6.79-0.17-10.18,0.02c-1.69,0.12-3.38,0.26-5.04,0.58c-1.64,0.34-3.34,0.76-4.67,1.85c1.23-1.22,2.92-1.82,4.55-2.33
			c1.66-0.49,3.35-0.8,5.05-1.09c3.4-0.52,6.83-0.81,10.26-1.02c6.86-0.4,13.73-0.45,20.58-0.42c13.71,0.07,27.42,0.63,41,0.87
			L497.41,140.04z"/>
	</g>
	<g>
		<path class="st3" d="M460.91,134.7c-2.39-1.77-5.29-3.2-8.15-4.57c-2.89-1.36-5.83-2.65-8.77-3.96c-2.94-1.32-5.88-2.66-8.73-4.19
			c-1.42-0.77-2.82-1.6-4.12-2.58c-0.65-0.48-1.26-1.04-1.79-1.66c-0.52-0.61-0.95-1.38-0.92-2.2c0.05,0.81,0.51,1.52,1.07,2.08
			c0.56,0.56,1.18,1.05,1.86,1.48c1.34,0.86,2.77,1.56,4.23,2.22c2.92,1.29,5.93,2.39,8.96,3.47c3.02,1.08,6.06,2.13,9.09,3.29
			c3.03,1.18,6.05,2.35,8.99,4.18L460.91,134.7z"/>
	</g>
	<g>
		<path class="st3" d="M649.42,217.62l-0.35-0.37l-0.22-0.25l-0.42-0.49l-0.72-0.92c-0.43-0.6-0.89-1.2-1.27-1.79
			c-0.81-1.19-1.52-2.4-2.19-3.62c-1.36-2.43-2.4-4.96-3.36-7.49c-1.8-5.11-2.81-10.39-3.11-15.62c-0.18-2.62-0.09-5.21,0.04-7.78
			l0.4-3.82c0.13-1.27,0.37-2.55,0.6-3.79c0.98-4.94,2.38-9.58,3.91-14.12c3.1-9.07,6.81-17.73,10.74-26.27
			c3.94-8.53,8.12-16.92,12.56-25.15c-3.14,8.81-5.99,17.7-8.58,26.64c-2.56,8.94-4.88,17.94-6.49,26.92
			c-0.79,4.48-1.41,8.97-1.6,13.28c-0.12,2.14,0.05,4.23,0.14,6.34c0.23,2.09,0.46,4.16,0.92,6.16c0.86,4.02,2.25,7.84,4.11,11.31
			c0.98,1.7,1.98,3.38,3.17,4.87c0.58,0.75,1.18,1.47,1.8,2.12c0.3,0.35,0.62,0.62,0.92,0.93l0.44,0.39
			c0.07,0.06,0.12,0.09,0.18,0.14l0.09,0.07c0-0.01-0.03-0.04-0.04-0.06L649.42,217.62z"/>
	</g>
	<g>
		<path class="st3" d="M647,152.87c0.65-0.76,1.23-1.24,1.87-1.79c0.64-0.51,1.28-1.02,1.95-1.46c1.32-0.93,2.73-1.7,4.14-2.44
			c2.84-1.43,5.83-2.48,8.85-3.32c3.02-0.87,6.11-1.35,9.19-1.77c1.54-0.18,3.1-0.28,4.64-0.42l4.64-0.15l-4.61,0.52
			c-1.52,0.27-3.05,0.49-4.56,0.79c-3,0.66-5.99,1.38-8.85,2.46c-2.86,1.04-5.65,2.29-8.22,3.86c-1.27,0.8-2.52,1.63-3.65,2.57
			c-0.58,0.46-1.12,0.96-1.65,1.45c-0.49,0.49-1.05,1.07-1.37,1.52L647,152.87z"/>
	</g>
	<g>
		<path class="st3" d="M639.73,183.32c-0.13-0.88-0.37-2.03-0.62-3.05c-0.25-1.05-0.54-2.11-0.85-3.15
			c-0.63-2.09-1.36-4.15-2.22-6.15c-1.72-4-3.9-7.79-6.65-11.04c-2.75-3.25-6.1-5.96-9.97-7.66c-1.83-0.79-4.27-1.57-6.42-2.48
			c-2.2-0.89-4.34-1.86-6.47-2.85c-8.48-4.02-16.6-8.62-24.47-13.61c-3.93-2.51-7.79-5.11-11.5-7.92c-1.85-1.41-3.68-2.86-5.4-4.43
			c-0.87-0.77-1.69-1.61-2.48-2.47c-0.73-0.89-1.53-1.82-1.76-2.98c0.31,1.13,1.16,1.98,1.94,2.81c0.84,0.79,1.7,1.55,2.62,2.26
			c1.82,1.42,3.72,2.73,5.65,3.99c3.88,2.51,7.88,4.82,11.94,7.02c8.13,4.37,16.49,8.34,25.03,11.66c2.14,0.81,4.28,1.61,6.44,2.3
			c2.19,0.74,4.22,1.2,6.72,2.06c4.78,1.69,9.05,4.67,12.54,8.24c3.51,3.58,6.3,7.74,8.56,12.11c1.13,2.18,2.11,4.43,2.99,6.73
			c0.43,1.15,0.84,2.31,1.21,3.49c0.38,1.21,0.7,2.31,1.02,3.7L639.73,183.32z"/>
	</g>
	<g>
		<path class="st3" d="M600.84,143.26c-0.51-2.31-0.95-4.59-1.35-6.89c-0.4-2.3-0.76-4.6-1.05-6.91c-0.58-4.62-0.98-9.29-0.78-13.92
			c0.29,4.63,1.19,9.17,2.25,13.65c0.54,2.24,1.14,4.47,1.77,6.68c0.64,2.21,1.32,4.42,2.04,6.57L600.84,143.26z"/>
	</g>
	<g>
		<path class="st3" d="M736.02,227.5c0.09-0.1,0.36-0.69,0.55-1.1c0.21-0.45,0.41-0.95,0.61-1.42c0.39-0.99,0.77-2,1.12-3.04
			c0.71-2.07,1.32-4.22,1.83-6.41c1.03-4.38,1.7-8.9,2.03-13.48c0.31-4.59,0.22-9.22-0.13-13.88c-0.42-4.56-1.17-9.52-1.89-14.33
			c-1.47-9.68-3.18-19.35-4.9-29.05c-1.68-9.7-3.53-19.44-4.42-29.26c2.29,9.58,5.48,18.86,8.54,28.22
			c3.1,9.35,6.19,18.72,9.07,28.21c1.43,4.77,2.86,9.4,4.09,14.52c1.13,5.06,1.99,10.22,2.39,15.46c0.38,5.24,0.38,10.55-0.08,15.88
			c-0.23,2.67-0.58,5.34-1.08,8.03c-0.24,1.34-0.53,2.69-0.86,4.06c-0.18,0.69-0.34,1.37-0.55,2.08c-0.22,0.75-0.37,1.31-0.76,2.35
			L736.02,227.5z"/>
	</g>
	<g>
		<path class="st3" d="M783.53,172.17l1.27-0.58c0.41-0.18,0.81-0.36,1.2-0.52c0.79-0.33,1.59-0.68,2.38-0.98
			c1.58-0.64,3.17-1.24,4.76-1.82c1.59-0.59,3.19-1.11,4.79-1.67l4.82-1.52c6.45-1.93,13.01-3.48,19.62-4.66
			c13.22-2.39,26.82-3.01,40.17-1.38c6.37,0.74,12.74,1.39,19.19,1.44l2.41,0.06l2.42-0.02l4.84-0.06c3.22-0.15,6.46-0.24,9.69-0.52
			c6.46-0.48,12.91-1.21,19.33-2.24c6.42-1.02,12.81-2.28,19.12-3.92c-6.15,2.17-12.45,3.95-18.8,5.52
			c-6.35,1.57-12.79,2.85-19.28,3.87c-3.24,0.55-6.51,0.92-9.77,1.34l-4.92,0.47l-2.46,0.23l-2.47,0.14
			c-6.58,0.5-13.25,0.38-19.87,0.16c-12.64-0.48-25.29,1.15-37.51,4.43c-6.11,1.62-12.13,3.58-18,5.89l-4.37,1.79
			c-1.44,0.64-2.89,1.25-4.31,1.92c-1.42,0.66-2.84,1.33-4.22,2.03c-1.37,0.68-2.81,1.45-3.98,2.11L783.53,172.17z"/>
	</g>
	<g>
		<polygon class="st3" points="852.05,114.04 878.86,115.54 852.05,117.04 		"/>
	</g>
	<g>
		<path class="st3" d="M806.6,153.96c-0.05,0.05-0.12,0.12-0.16,0.16l0,0.01c0,0,0,0.03,0.02,0.02c0.04-0.03,0.08-0.05,0.13-0.08
			c0.1-0.11,0.22-0.17,0.34-0.32c0.24-0.24,0.47-0.56,0.7-0.9c0.47-0.67,0.79-1.54,1.11-2.43c0.55-1.86,0.71-4.07,0.5-6.4
			c-0.17-1.17-0.27-2.36-0.6-3.56c-0.15-0.6-0.25-1.21-0.44-1.81l-0.57-1.82c-0.17-0.6-0.41-1.24-0.65-1.89l-0.72-1.94l-1.48-3.87
			c-4.03-10.32-8.44-20.56-13.1-30.7c6.54,9.05,12.86,18.27,18.9,27.76l2.24,3.58l1.1,1.81c0.37,0.59,0.74,1.2,1.1,1.89l1.09,2
			c0.37,0.67,0.65,1.4,0.98,2.1c0.68,1.39,1.16,2.92,1.68,4.44c0.92,3.11,1.46,6.52,1.19,10.16c-0.2,1.82-0.49,3.69-1.18,5.55
			c-0.34,0.93-0.73,1.86-1.24,2.78c-0.23,0.46-0.55,0.93-0.85,1.4l-0.53,0.73l-0.34,0.4l-0.18,0.2l-0.34,0.35L806.6,153.96z"/>
	</g>
	<g>
		<path class="st3" d="M809.49,134.59c-0.34-2.73-0.49-5.37-0.5-8.06c-0.01-2.68,0.14-5.37,0.55-8.03c0.44-2.64,1.09-5.31,2.44-7.68
			c0.67-1.17,1.52-2.26,2.58-3.09c1.06-0.84,2.32-1.38,3.62-1.6c-1.27,0.35-2.44,0.99-3.37,1.88c-0.93,0.89-1.63,1.99-2.16,3.15
			c-1.05,2.34-1.44,4.94-1.62,7.5c-0.15,2.58-0.05,5.17,0.21,7.75c0.25,2.57,0.66,5.17,1.2,7.63L809.49,134.59z"/>
	</g>
	<g>
		<path class="st3" d="M738.19,158.79c0.11-2.68,0.45-5.19,0.97-7.73c0.52-2.53,1.2-5.02,2.15-7.43c0.94-2.41,2.1-4.74,3.54-6.91
			c1.46-2.16,3.32-4.04,5.12-5.76c3.66-3.49,7.44-6.82,11.27-10.08c3.83-3.27,7.71-6.47,11.65-9.61
			c-3.77,3.33-7.49,6.72-11.14,10.16c-3.66,3.45-7.26,6.95-10.71,10.58c-1.74,1.83-3.34,3.64-4.61,5.72
			c-1.24,2.1-2.22,4.34-2.99,6.65c-0.77,2.32-1.31,4.72-1.68,7.14c-0.37,2.4-0.57,4.91-0.55,7.26L738.19,158.79z"/>
	</g>
	<g>
		<path class="st3" d="M745.22,201.73c-4.25-3.14-8.71-6.26-13.16-9.23c-2.24-1.49-4.49-2.95-6.76-4.36
			c-1.14-0.7-2.28-1.4-3.43-2.07l-0.86-0.5l-0.81-0.43c-0.55-0.28-1.06-0.61-1.66-0.85c-4.61-2.13-9.84-3.55-15.08-4.7
			c-5.27-1.12-10.64-1.98-16.06-2.55c5.44-0.43,10.91-0.57,16.42-0.43c5.51,0.19,11.05,0.59,16.72,2.02
			c0.71,0.15,1.42,0.41,2.13,0.63l1.07,0.34l0.99,0.36c1.31,0.47,2.61,0.97,3.9,1.47c2.58,1.01,5.14,2.07,7.69,3.15
			c5.1,2.19,10.08,4.45,15.13,6.9L745.22,201.73z"/>
	</g>
	<g>
		<path class="st3" d="M716.96,182.08c-2.72-2.43-5.33-4.91-7.84-7.52c-1.24-1.31-2.48-2.64-3.61-4.06c-0.56-0.71-1.13-1.42-1.6-2.2
			c-0.51-0.74-0.92-1.59-1.12-2.46c0.19,0.41,0.33,0.83,0.61,1.18c0.24,0.37,0.5,0.73,0.81,1.05c0.56,0.68,1.21,1.3,1.85,1.91
			c1.29,1.22,2.68,2.35,4.07,3.45c2.8,2.2,5.71,4.28,8.65,6.24L716.96,182.08z"/>
	</g>
	<g>
		<path class="st3" d="M560.8,289.7c-6.56,5.45-13.08,11.17-19.39,17c-6.29,5.86-12.49,11.85-18.05,18.28
			c-1.39,1.61-2.72,3.25-3.96,4.94c-1.24,1.68-2.38,3.43-3.2,5.18c-0.23,0.44-0.34,0.87-0.52,1.3c-0.13,0.46-0.23,0.96-0.35,1.44
			c-0.28,0.96-0.35,1.98-0.47,3c-0.08,0.51-0.1,1.02-0.09,1.54l-0.03,1.56c0,1.04,0.1,2.1,0.15,3.15c0.36,4.22,1.28,8.44,2.44,12.59
			c1.17,4.15,2.58,8.26,4.28,12.25c-2.07-3.82-3.88-7.79-5.46-11.86c-1.57-4.08-2.92-8.27-3.73-12.65c-0.16-1.1-0.37-2.2-0.48-3.32
			l-0.13-1.69c-0.05-0.56-0.09-1.13-0.06-1.71c0.02-1.15-0.01-2.3,0.2-3.46c0.08-0.58,0.14-1.16,0.25-1.75
			c0.17-0.59,0.3-1.23,0.51-1.78c0.8-2.27,1.88-4.28,3.03-6.21c1.15-1.93,2.38-3.8,3.67-5.6c5.13-7.24,10.84-13.9,16.65-20.47
			c5.85-6.54,11.81-12.89,18.03-19.16L560.8,289.7z"/>
	</g>
	<g>
		<path class="st3" d="M511.14,296.72c-3.61-0.24-7.01-0.87-10.4-1.76c-3.38-0.89-6.67-2.11-9.78-3.68
			c-3.1-1.58-6.03-3.53-8.55-5.93c-2.53-2.37-4.59-5.21-6.09-8.29c1.72,2.96,3.96,5.59,6.59,7.72c2.62,2.15,5.58,3.82,8.68,5.13
			c3.11,1.29,6.36,2.22,9.66,2.84c3.28,0.62,6.69,0.98,9.93,0.96L511.14,296.72z"/>
	</g>
	<g>
		<path class="st3" d="M543.6,301.04c-0.98,2.88-1.77,5.95-2.38,8.99c-0.6,3.06-1.03,6.16-1.12,9.27c-0.11,3.11,0.13,6.24,1,9.23
			c0.89,2.96,2.61,5.76,5.28,7.52c-2.8-1.53-4.84-4.27-5.99-7.27c-1.15-3.02-1.64-6.25-1.79-9.46c-0.16-3.22,0.04-6.44,0.4-9.63
			c0.39-3.2,0.93-6.34,1.74-9.53L543.6,301.04z"/>
	</g>
	<g>
		<path class="st3" d="M544.61,292.14c-12.14,4.92-24.26,10.1-36.23,15.49c-11.97,5.4-23.86,11.01-35.39,17.18
			c-5.74,3.1-11.43,6.33-16.71,9.96c-2.6,1.82-5.18,3.77-7.11,5.9c-0.47,0.53-0.89,1.07-1.18,1.56c-0.3,0.49-0.43,0.94-0.42,1.07
			c-0.02-0.12,0.03,0.56,0.06,0.94l0.09,1.29c0.08,0.86,0.07,1.7,0.1,2.55c0.09,3.39,0,6.72-0.16,10.05
			c-0.15,3.33-0.39,6.63-0.65,9.94c-0.55,6.6-1.24,13.18-2.08,19.73c0.1-6.6,0.05-13.21-0.15-19.79c-0.11-3.29-0.24-6.58-0.47-9.85
			c-0.21-3.27-0.5-6.53-0.94-9.72c-0.12-0.79-0.2-1.6-0.37-2.37l-0.22-1.16c-0.06-0.45-0.16-0.58-0.21-1.52
			c-0.03-1.53,0.48-2.67,0.97-3.62c0.51-0.95,1.09-1.73,1.69-2.46c2.42-2.85,5.1-4.96,7.82-7.02c5.46-4.05,11.15-7.54,16.9-10.91
			c11.52-6.69,23.31-12.76,35.18-18.64c11.89-5.86,23.85-11.48,35.99-16.9L544.61,292.14z"/>
	</g>
	<g>
		<path class="st3" d="M445.61,359.61c-4.81,2.17-9.63,4.32-14.47,6.43c-2.42,1.05-4.84,2.1-7.28,3.11c-2.44,0.99-4.86,2.07-7.4,2.8
			c2.45-0.96,4.75-2.26,7.08-3.48c2.32-1.24,4.63-2.5,6.94-3.78c4.61-2.55,9.19-5.14,13.76-7.75L445.61,359.61z"/>
	</g>
	<g>
		<path class="st3" d="M660.18,306.58c-3.44-3.01-6.66-5.97-9.91-9.02c-3.23-3.04-6.43-6.13-9.56-9.29
			c-6.26-6.33-12.38-12.82-17.87-20.14c-1.37-1.83-2.67-3.76-3.88-5.81c-1.19-2.05-2.34-4.26-3-6.95c-0.83-3.85-2.47-7.79-4.35-11.6
			c-1.9-3.82-4.09-7.55-6.43-11.2c-2.35-3.65-4.84-7.22-7.51-10.68c3.19,2.98,6.25,6.13,9.19,9.39c2.94,3.27,5.77,6.66,8.38,10.29
			c2.59,3.64,5.03,7.47,6.81,11.94c0.64,1.49,1.75,3.06,3.03,4.58c1.28,1.52,2.68,3.01,4.18,4.45c6,5.77,12.82,11,19.75,16.03
			c3.47,2.51,7,4.96,10.56,7.35c3.54,2.38,7.19,4.77,10.73,6.97L660.18,306.58z"/>
	</g>
	<g>
		<polygon class="st3" points="615.57,248.77 584.77,236.9 616.52,245.92 		"/>
	</g>
	<g>
		<path class="st3" d="M642.22,282.83c-0.28-1.19-0.38-2.2-0.46-3.28c-0.06-1.07-0.08-2.14-0.01-3.2c0.11-2.12,0.47-4.22,1.03-6.25
			c0.54-2.04,1.39-3.98,2.33-5.84c0.52-0.91,1-1.84,1.61-2.68l0.87-1.29l0.93-1.23c2.49-3.26,5.27-6.26,8.19-9.09
			c2.94-2.81,6.03-5.47,9.32-7.84c-3.14,2.57-6.04,5.4-8.79,8.36c-2.72,2.98-5.28,6.11-7.51,9.45l-0.83,1.25l-0.75,1.28
			c-0.53,0.83-0.92,1.74-1.36,2.62c-0.77,1.8-1.45,3.64-1.83,5.56c-0.4,1.9-0.61,3.84-0.59,5.77c0,0.96,0.07,1.93,0.19,2.87
			c0.12,0.93,0.3,1.93,0.54,2.71L642.22,282.83z"/>
	</g>
	<g>
		<path class="st3" d="M778.67,298.96c2.91-6.18,6.25-11.67,9.71-16.99c3.46-5.31,7.07-10.41,10.7-15.45
			c7.25-10.06,14.73-19.82,21.54-29.83c1.7-2.5,3.33-5.03,4.85-7.58c1.51-2.55,2.94-5.14,3.99-7.72l0.39-0.97
			c0.11-0.32,0.2-0.63,0.31-0.95c0.24-0.65,0.32-1.23,0.47-1.83c0.06-0.59,0.12-0.9,0.17-2.08l0.05-0.73l0.12-0.7
			c0.1-0.46,0.15-0.94,0.3-1.37c1.02-3.55,2.91-6.34,4.92-8.87c4.08-5.02,8.9-9.03,13.83-12.79c4.97-3.72,10.12-7.12,15.46-10.2
			c-4.94,3.67-9.65,7.63-14.08,11.83c-4.39,4.21-8.6,8.7-11.75,13.64c-1.54,2.46-2.81,5.08-3.19,7.55c-0.2,1.34,0,1.91-0.01,4.28
			c-0.09,0.91-0.15,1.86-0.34,2.7c-0.09,0.43-0.16,0.87-0.26,1.29l-0.33,1.23c-0.91,3.25-2.13,6.22-3.43,9.13
			c-1.31,2.9-2.7,5.73-4.15,8.5c-5.81,11.09-12.14,21.68-18.1,32.35c-2.97,5.33-5.88,10.65-8.54,16
			c-2.65,5.33-5.09,10.72-6.83,15.93L778.67,298.96z"/>
	</g>
	<g>
		<path class="st3" d="M851.44,243.75c0.17-0.16,0.4-0.35,0.54-0.45l0.25-0.17c0.16-0.1,0.37-0.24,0.49-0.3
			c0.25-0.13,0.51-0.25,0.76-0.37c0.44-0.17,0.88-0.33,1.27-0.44l1.13-0.26l1.03-0.14c1.35-0.15,2.55-0.14,3.71-0.08
			c2.3,0.16,4.46,0.5,6.5,0.99c4.11,0.95,7.97,2.24,11.73,3.68c7.49,2.9,14.63,6.35,21.57,10.13c6.93,3.79,13.63,7.91,20.15,12.25
			c6.5,4.38,12.87,8.93,18.97,13.81c-6.58-4.2-13.37-8.04-20.25-11.66c-6.89-3.6-13.91-6.94-21.04-9.9
			c-7.12-2.95-14.4-5.54-21.73-7.51c-3.66-0.97-7.33-1.76-10.9-2.19c-1.79-0.24-3.52-0.29-5.11-0.23c-0.78,0.04-1.53,0.13-2.12,0.27
			l-0.42,0.11c-0.09,0.05-0.19,0.08-0.28,0.12c-0.07,0.03-0.08,0.06-0.09,0.07c0.04-0.01,0.08-0.02,0.11-0.04
			c0.02-0.01,0.13-0.07,0.18-0.1l0.1-0.07c0.09-0.06,0.28-0.22,0.39-0.33L851.44,243.75z"/>
	</g>
	<g>
		<path class="st3" d="M757.86,333.95c6.31-3,12.88-5.41,19.5-7.19c6.63-1.8,13.3-2.91,19.9-3.62c6.6-0.7,13.13-0.97,19.6-0.96
			c3.23,0,6.44,0.09,9.65,0.2l4.79,0.23l4.83,0.35c6.41,0.55,12.72,1.3,18.96,2.25c6.25,0.93,12.45,1.97,18.63,3.12
			c12.35,2.28,24.6,4.87,36.78,7.73c-12.47-0.88-24.95-1.49-37.39-1.76c-6.22-0.15-12.43-0.19-18.62-0.11
			c-6.19,0.06-12.34,0.32-18.39,0.77l-4.52,0.4l-4.55,0.51c-3.02,0.38-6.04,0.78-9.02,1.27c-5.96,0.96-11.82,2.16-17.48,3.71
			c-5.66,1.55-11.12,3.42-16.26,5.76c-5.14,2.33-9.98,5.07-14.52,8.21L757.86,333.95z"/>
	</g>
	<g>
		<polygon class="st3" points="842.85,197.71 872.02,199.21 842.85,200.71 		"/>
	</g>
	<g>
		<path class="st3" d="M803.89,261.58c-0.05,0.07-0.09,0.15-0.14,0.23l-0.04,0.09l-0.03,0.08c-0.02,0.08,0,0.02,0,0.04
			c0.01,0.02,0.04-0.04,0.07-0.11c0.07-0.08,0.12-0.33,0.2-0.5l0.17-0.7l0.13-0.79c0.11-1.13,0.18-2.35,0.1-3.64
			c-0.11-2.57-0.54-5.27-1.09-7.97c-1.17-5.41-3.02-10.8-4.9-16.33c-3.75-10.98-7.67-21.91-11.81-32.78
			c5.65,10.16,11.1,20.45,16.41,30.82c2.63,5.15,5.36,10.45,7.49,16.16c1.03,2.88,1.97,5.83,2.58,9.02
			c0.32,1.58,0.51,3.27,0.58,5.04l-0.01,1.38c-0.02,0.47-0.07,0.97-0.11,1.46c-0.09,0.54-0.14,1.01-0.3,1.62
			c-0.07,0.29-0.14,0.57-0.27,0.92c-0.07,0.18-0.1,0.3-0.2,0.54l-0.15,0.33c-0.04,0.07-0.02,0.06-0.1,0.21l-0.2,0.35L803.89,261.58z
			"/>
	</g>
	<g>
		<path class="st3" d="M799.12,230.95c0.17-4.43,0.46-8.81,0.92-13.2c0.24-2.19,0.52-4.38,0.92-6.55c0.2-1.09,0.44-2.17,0.75-3.23
			c0.33-1.04,0.66-2.15,1.43-2.96c-0.66,0.88-0.86,1.99-1.07,3.05c-0.18,1.07-0.29,2.15-0.37,3.24c-0.15,2.17-0.18,4.35-0.16,6.53
			c0.04,4.36,0.25,8.73,0.58,13.06L799.12,230.95z"/>
	</g>
	<g>
		<path class="st3" d="M901.12,225.3c2.32-0.4,4.45-0.42,6.65-0.28c2.18,0.15,4.34,0.54,6.43,1.14c2.1,0.6,4.1,1.49,6,2.53
			l1.39,0.84c0.46,0.28,0.88,0.63,1.33,0.94c0.9,0.61,1.68,1.34,2.5,2.03c3.17,2.87,5.84,6.2,8.16,9.71
			c2.31,3.52,4.33,7.23,5.96,11.09c-1.86-3.76-4.08-7.32-6.57-10.66c-2.5-3.33-5.31-6.43-8.52-9c-0.82-0.61-1.61-1.27-2.49-1.79
			c-0.43-0.26-0.84-0.57-1.29-0.8l-1.34-0.71c-1.83-0.87-3.72-1.58-5.69-2.01c-1.96-0.44-3.97-0.67-5.97-0.69
			c-1.98-0.02-4.07,0.16-5.86,0.57L901.12,225.3z"/>
	</g>
	<g>
		<path class="st3" d="M888.81,252.79c1.18,3.99,2.22,7.98,3.09,12.02c0.43,2.02,0.81,4.05,1.1,6.1c0.27,2.04,0.51,4.11,0.39,6.16
			c-0.14-2.05-0.61-4.05-1.13-6.02c-0.52-1.97-1.14-3.92-1.81-5.85c-1.33-3.85-2.84-7.67-4.45-11.38L888.81,252.79z"/>
	</g>
	<g>
		<path class="st3" d="M809.39,323.37c0.78-0.01,1.75-0.05,2.64-0.09c0.91-0.04,1.83-0.1,2.76-0.17c1.84-0.13,3.69-0.31,5.53-0.52
			c3.68-0.42,7.33-1.01,10.9-1.79c3.57-0.79,7.07-1.76,10.34-3.08l2.38-1.07c0.78-0.37,1.48-0.81,2.24-1.22
			c0.4-0.2,0.7-0.42,1.02-0.64c0.33-0.2,0.65-0.45,0.96-0.71c0.65-0.49,1.27-1.09,1.89-1.68c2.48-2.46,4.72-5.48,6.78-8.61
			c2.05-3.16,3.95-6.47,5.72-9.87c3.54-6.8,6.69-13.88,9.46-21.12c-1.65,7.58-3.71,15.09-6.24,22.5c-1.27,3.71-2.69,7.38-4.34,11.01
			c-1.67,3.62-3.53,7.21-6.07,10.65c-0.65,0.85-1.31,1.71-2.09,2.52c-0.37,0.41-0.76,0.82-1.2,1.21c-0.43,0.4-0.86,0.81-1.28,1.12
			c-0.86,0.65-1.71,1.37-2.6,1.97l-2.69,1.74c-3.64,2.15-7.42,3.84-11.24,5.32c-3.82,1.47-7.7,2.7-11.61,3.77
			c-1.96,0.52-3.92,1.02-5.9,1.47c-0.99,0.23-1.98,0.44-2.98,0.65c-1.02,0.21-1.97,0.4-3.12,0.58L809.39,323.37z"/>
	</g>
	<g>
		<path class="st3" d="M873.44,327.95c4.79,2.33,9.34,4.79,13.89,7.41c4.53,2.62,8.98,5.39,13.29,8.39
			c2.15,1.51,4.28,3.05,6.35,4.71c2.07,1.64,4.09,3.37,6,5.23c1.92,1.85,3.76,3.83,5.36,6.07c1.59,2.23,3.01,4.71,3.66,7.6
			c0.07,0.36,0.19,0.71,0.21,1.09l0.08,1.13c0.1,0.74-0.06,1.51-0.12,2.26c-0.04,0.4-0.11,0.69-0.17,1.01l-0.19,0.94l-0.37,1.88
			c-0.47,2.52-0.91,5.05-1.34,7.59c-0.84,5.08-1.62,10.18-2.37,15.28c-1.48,10.21-2.85,20.44-4.14,30.68
			c0.7-10.3,1.49-20.59,2.4-30.88c0.46-5.14,0.95-10.29,1.5-15.43c0.28-2.57,0.58-5.14,0.91-7.72l0.27-1.93l0.13-0.97
			c0.04-0.32,0.1-0.66,0.1-0.91c0-0.53,0.12-1.05-0.01-1.59l-0.1-0.8c-0.03-0.27-0.15-0.53-0.21-0.8c-0.6-2.13-1.88-4.17-3.39-6.04
			c-1.51-1.88-3.29-3.61-5.18-5.23c-1.88-1.63-3.87-3.16-5.94-4.61c-2.05-1.46-4.18-2.83-6.33-4.16c-4.32-2.65-8.79-5.09-13.33-7.39
			c-4.53-2.28-9.2-4.47-13.81-6.39L873.44,327.95z"/>
	</g>
	<g>
		<path class="st3" d="M898.72,344.88c-0.91,4.68-1.96,9.29-3.18,13.87c-0.63,2.29-1.29,4.56-2.07,6.81
			c-0.82,2.22-1.65,4.49-3.07,6.39c1.21-2.03,1.78-4.34,2.35-6.6c0.53-2.29,0.94-4.59,1.32-6.91c0.72-4.63,1.28-9.31,1.68-13.96
			L898.72,344.88z"/>
	</g>
	<g>
		<path class="st4" d="M917.16,395.96"/>
	</g>
	<g>
		<path class="st3" d="M787.28,576.02l-0.03,0c-0.02,0,0.07,0.05,0.1,0.08l0.27,0.19c0.18,0.13,0.43,0.29,0.65,0.43
			c0.42,0.29,0.95,0.59,1.43,0.9c1,0.59,2.03,1.19,3.11,1.74c2.13,1.14,4.37,2.14,6.64,3.08c4.55,1.82,9.26,3.2,14.02,4.04
			c4.76,0.87,9.55,1.08,14.29,0.72c4.77-0.36,9.63-1.29,14.5-2.86c4.9-1.57,9.92-3.74,15.36-6.15c5.43-2.39,11.34-4.99,17.81-6.87
			c6.46-1.91,13.42-2.93,20.2-2.84l2.54,0.07c0.84,0.04,1.69,0.02,2.52,0.15l4.95,0.59c1.64,0.21,3.18,0.59,4.76,0.87l2.36,0.47
			l2.33,0.61c1.55,0.43,3.11,0.77,4.63,1.28l4.54,1.51c1.5,0.53,2.97,1.17,4.44,1.76c1.49,0.56,2.92,1.26,4.35,1.95
			c5.73,2.72,11.18,5.93,16.2,9.67c10.09,7.41,18.73,16.48,25.52,26.68c3.44,5.16,6.23,10.31,9.16,15.45
			c2.91,5.15,5.76,10.31,8.61,15.48c5.68,10.34,11.28,20.72,16.82,31.13c-6.68-9.72-13.41-19.39-20.22-29.01
			c-3.4-4.81-6.82-9.6-10.27-14.37c-3.47-4.74-6.89-9.61-10.51-13.87c-7.31-8.67-16.1-15.94-25.69-21.44
			c-4.78-2.78-9.83-5.01-14.98-6.77c-1.29-0.45-2.56-0.91-3.89-1.23c-1.31-0.35-2.61-0.75-3.92-1.06l-3.97-0.83
			c-1.32-0.29-2.67-0.41-3.99-0.62l-1.99-0.29l-2.01-0.16c-1.33-0.08-2.69-0.27-3.99-0.27l-3.86-0.01c-0.64-0.03-1.27,0.07-1.9,0.11
			l-1.88,0.16c-4.98,0.53-9.69,1.78-14.34,3.75c-4.66,1.95-9.32,4.63-14.37,7.58c-5.04,2.94-10.51,6.14-16.58,8.89
			c-6.08,2.76-12.66,4.92-19.53,6.25c-6.9,1.35-13.98,1.83-20.92,1.4c-6.95-0.4-13.8-1.57-20.44-3.38c-3.31-0.94-6.6-1.97-9.84-3.24
			c-1.63-0.61-3.24-1.3-4.87-2.02c-0.82-0.39-1.62-0.73-2.47-1.17l-1.28-0.65l-0.69-0.37l-0.37-0.2l-0.5-0.29L787.28,576.02z"/>
	</g>
	<path class="st5" d="M546.38,671.55c-15.56-5.96-61.85-59.52-90.51-60.4s-78.86,49.71-106.07,54.81"/>
	<path class="st3" d="M721.84,498.93c9.34-12.2,28.63,22.67,34.45,42.55c5.82,19.88,57.18,86.44,70.49,94.1
		c13.32,7.66-36.08-13.43-55.82-8.83c-19.74,4.59-69.69,47.62-95.64,49.37s-65.2-12.64-47.6-17.1c17.61-4.46,74.71-29.46,83.3-47.88
		C719.6,592.71,708.27,516.65,721.84,498.93z"/>
	<g>
		<path class="st6" d="M730.96,367.04c1.42,2.04,2.64,4.2,3.83,6.36c1.19,2.16,2.32,4.35,3.41,6.56c1.09,2.21,2.14,4.44,3.15,6.68
			c1.03,2.24,1.98,4.51,2.84,6.83c0.23,0.57,0.42,1.17,0.62,1.76c0.22,0.72,0.35,1.44,0.37,2.09c0.08,1.33-0.01,2.58-0.12,3.84
			c-0.25,2.5-0.64,4.94-1.02,7.38c-0.77,4.88-1.56,9.73-2.41,14.61c-0.86,4.87-1.94,9.72-3.58,14.45c-0.4,1.19-0.85,2.37-1.35,3.54
			c-0.56,1.16-1.09,2.36-1.76,3.43c-0.33,0.54-0.62,1.12-0.97,1.64l-1.06,1.57c-0.69,1.06-1.46,2.04-2.21,3.04
			c-3.08,3.93-6.44,7.59-9.97,11.05c-3.53,3.46-7.22,6.75-11.13,9.79l-0.21-0.22c6.4-7.49,12.96-14.8,18.76-22.56
			c1.44-1.93,2.86-3.89,4.09-5.91c0.67-0.99,1.17-2.04,1.72-3.06c0.51-1.07,0.99-2.16,1.42-3.29c0.89-2.24,1.66-4.54,2.44-6.85
			c0.76-2.32,1.53-4.64,2.21-6.99c1.39-4.7,2.48-9.5,3.04-14.36c0.27-2.43,0.41-4.88,0.33-7.3c-0.04-1.2-0.12-2.41-0.33-3.53
			c-0.09-0.57-0.24-1.06-0.43-1.5l-0.77-1.66c-4.05-8.91-7.71-18.04-11.18-27.24L730.96,367.04z"/>
	</g>
	<g>
		<path class="st6" d="M730.97,341.22c1.84,4.19,4.15,8.19,6.3,12.25c2.18,4.06,4.33,8.13,6.4,12.26c2.07,4.13,4.07,8.3,5.85,12.6
			c0.92,2.14,1.71,4.35,2.38,6.63c0.18,0.56,0.28,1.18,0.43,1.77c0.15,0.59,0.24,1.2,0.3,1.8c0.13,1.2,0.2,2.36,0.25,3.53
			c0.26,9.31-0.48,18.52-1.23,27.71c-0.38,4.6-0.83,9.19-1.38,13.77c-0.57,4.58-1.18,9.17-2.13,13.71
			c-0.46,2.27-0.97,4.54-1.62,6.79c-0.29,1.13-0.69,2.24-1.04,3.36c-0.43,1.1-0.8,2.21-1.31,3.29c-0.93,2.18-2.1,4.29-3.64,6.23
			l-0.58,0.72c-0.21,0.23-0.45,0.45-0.67,0.67c-0.46,0.45-0.92,0.89-1.36,1.23l-2.67,2.21c-3.56,2.94-7.18,5.81-10.74,8.69
			c-3.56,2.89-7.04,5.78-10.21,9.01c-0.81,0.79-1.6,1.61-2.39,2.43l-1.17,1.24c-0.36,0.42-0.67,0.83-1.01,1.25
			c-1.33,1.67-2.44,3.64-3.53,5.6c-2.12,3.98-3.93,8.19-5.66,12.42c-1.72,4.24-3.35,8.54-4.87,12.87
			c-1.53,4.33-3.04,8.68-4.48,13.06l-0.29-0.08c1.96-9.02,4.43-17.92,7.43-26.68c1.53-4.37,3.21-8.71,5.29-12.92
			c1.06-2.1,2.18-4.19,3.68-6.15c0.38-0.48,0.75-0.99,1.14-1.45l1.18-1.29c0.79-0.86,1.59-1.71,2.41-2.54
			c3.28-3.34,6.88-6.37,10.53-9.2c3.66-2.83,7.31-5.6,10.92-8.45l2.7-2.14c0.48-0.36,0.85-0.71,1.22-1.06
			c0.19-0.18,0.39-0.34,0.57-0.53l0.52-0.6c1.39-1.61,2.56-3.51,3.51-5.53c1.95-4.03,3.35-8.39,4.53-12.8
			c4.6-17.75,5.16-36.5,3.85-54.67c-0.09-1.13-0.2-2.26-0.35-3.35l-0.13-0.8l-0.19-0.79c-0.14-0.53-0.21-1.05-0.39-1.58
			c-0.34-1.06-0.65-2.13-1.07-3.19c-0.39-1.06-0.77-2.13-1.21-3.18c-1.69-4.23-3.59-8.41-5.48-12.59c-1.9-4.18-3.86-8.35-5.74-12.56
			c-0.96-2.1-1.86-4.22-2.76-6.35c-0.86-2.14-1.79-4.26-2.4-6.52L730.97,341.22z"/>
	</g>
	<g>
		<path class="st6" d="M726.3,312.1c3.84,5.28,7.98,10.38,11.91,15.64c3.95,5.24,7.82,10.54,11.54,15.96
			c3.73,5.41,7.31,10.94,10.57,16.69c1.64,2.87,3.16,5.82,4.47,8.91c0.66,1.54,1.25,3.12,1.71,4.78c0.45,1.7,0.71,3.36,0.92,5
			c1.52,13.16,1.53,26.28,1.58,39.4c-0.01,6.56-0.1,13.12-0.45,19.69c-0.2,3.28-0.42,6.56-0.9,9.85c-0.24,1.64-0.55,3.28-1.1,4.92
			c-0.59,1.6-1.3,3.08-2.03,4.57c-1.47,2.96-3.04,5.86-4.68,8.71c-1.62,2.86-3.31,5.68-5.04,8.48c-3.44,5.59-6.98,11.13-10.6,16.6
			l-5.45,8.19c-1.85,2.75-3.63,5.38-5.26,8.21c-3.31,5.6-6.5,11.31-9.66,17.04l-9.46,17.21l-9.43,17.25
			c-1.55,2.88-3.16,5.74-4.75,8.61c-1.58,2.87-3.26,5.72-4.75,8.58c-2.97,5.78-5.41,11.87-7.3,18.13l-0.29-0.07
			c0.68-3.22,1.59-6.38,2.63-9.51c1.03-3.13,2.21-6.21,3.6-9.22c1.4-3.02,2.93-5.89,4.38-8.83l4.41-8.79
			c5.94-11.69,11.88-23.38,18.16-34.91c3.17-5.75,6.33-11.5,9.79-17.13c1.69-2.83,3.63-5.6,5.47-8.26l5.57-8.09
			c3.67-5.42,7.35-10.83,10.93-16.3c3.55-5.49,7.14-10.96,10.27-16.66c0.77-1.42,1.52-2.88,2.12-4.33c0.55-1.44,0.92-3.03,1.2-4.62
			c0.6-3.18,0.91-6.44,1.16-9.7c0.48-6.52,0.58-13.07,0.5-19.61c-0.09-6.55-0.43-13.09-0.93-19.61c-0.51-6.52-1.12-13.04-2.14-19.44
			c-0.25-1.61-0.54-3.18-0.96-4.64c-0.46-1.49-1.02-2.98-1.66-4.45c-1.27-2.94-2.78-5.81-4.33-8.66
			c-3.16-5.68-6.63-11.21-10.18-16.69c-3.56-5.48-7.23-10.9-10.91-16.32l-5.51-8.14c-1.82-2.73-3.7-5.41-5.35-8.27L726.3,312.1z"/>
	</g>
	<g>
		<path class="st6" d="M752.02,272.84c-0.24,3.38-0.73,6.7-1.18,10c-0.46,3.28-0.93,6.61-1.25,9.75c0,0.16,0,0.32-0.01,0.48
			l0.04,0.57c0.01,0.38,0.09,0.78,0.13,1.18c0.1,0.8,0.23,1.62,0.38,2.44c0.29,1.64,0.68,3.27,1.15,4.87
			c0.96,3.2,2.25,6.3,3.69,9.33c1.46,3.02,2.88,6.05,4.21,9.12c1.37,3.05,2.74,6.1,4.04,9.16c1.28,3.08,2.52,6.18,3.76,9.28
			l1.88,4.63c0.67,1.51,1.24,3.12,2.18,4.42l-0.18,0.24c-0.77-0.5-1.29-1.19-1.85-1.85c-0.52-0.68-1.03-1.37-1.5-2.08
			c-0.95-1.41-1.83-2.87-2.66-4.34c-1.67-2.94-3.17-5.96-4.57-9.02c-1.36-3.08-2.59-6.21-3.73-9.38c-1.19-3.15-2.21-6.36-3.12-9.6
			c-0.92-3.24-1.92-6.45-3.07-9.6l-1.83-4.73c-0.31-0.79-0.6-1.6-0.87-2.43c-0.13-0.42-0.26-0.83-0.35-1.28l-0.15-0.68
			c-0.03-0.26-0.06-0.51-0.08-0.77c-0.04-1.8,0.14-3.48,0.43-5.17c0.27-1.68,0.62-3.34,1.03-4.98c0.83-3.28,1.81-6.51,3.17-9.63
			L752.02,272.84z"/>
	</g>
	<g>
		<path class="st6" d="M717.93,264.16c-0.54,0.26-0.84,0.92-1.03,1.54c-0.18,0.64-0.32,1.3-0.37,1.98c-0.12,1.34-0.14,2.7-0.03,4.05
			c0.18,2.7,0.7,5.37,1.34,7.98c0.63,2.61,1.42,5.16,2.39,7.59c0.49,1.21,1.02,2.38,1.67,3.45c0.63,1,1.49,2.13,2.29,3.2
			c3.25,4.34,6.42,8.8,9.99,12.92c1.79,2.06,3.63,4.06,5.57,5.97c0.97,0.95,1.96,1.89,2.98,2.76c0.51,0.44,1.03,0.87,1.56,1.27
			c0.52,0.39,1.08,0.79,1.57,1.01c0.12,0.06,0.23,0.08,0.24,0.07c-0.01-0.01-0.02-0.01-0.04-0.01c-0.06-0.01-0.1,0-0.16,0.03
			c-0.18,0.05-0.31,0.24-0.33,0.3c-0.03,0.09-0.03,0.07-0.03,0.07l-0.03-0.22l-0.06-0.45c-0.12-0.62-0.24-1.27-0.41-1.92
			c-0.32-1.3-0.67-2.61-1.03-3.92l-2.14-7.88c-0.72-2.63-1.43-5.27-2.12-7.92c-0.35-1.33-0.67-2.66-0.96-4.01
			c-0.15-0.68-0.3-1.35-0.42-2.06c-0.06-0.35-0.14-0.69-0.18-1.08l-0.12-0.87c-0.08-0.36-0.33-0.95-0.61-1.48
			c-0.29-0.55-0.62-1.11-0.96-1.66c-0.7-1.11-1.47-2.2-2.23-3.3c-1.56-2.18-3.15-4.37-4.8-6.52c-1.66-2.15-3.35-4.28-5.21-6.26
			c-0.92-1-1.91-1.93-2.93-2.81c-0.51-0.44-1.06-0.84-1.62-1.2C719.14,264.42,718.48,264.05,717.93,264.16z M717.82,263.88
			c0.4-0.1,0.78-0.03,1.1,0.11c0.34,0.11,0.64,0.3,0.95,0.46c0.6,0.35,1.17,0.74,1.72,1.15c1.12,0.8,2.16,1.7,3.22,2.57
			c2.09,1.78,4.15,3.61,6.12,5.54c1.98,1.92,3.89,3.92,5.62,6.09c0.88,1.07,1.72,2.19,2.51,3.37c0.39,0.59,0.78,1.2,1.14,1.84
			c0.36,0.67,0.72,1.31,0.97,2.27c0.13,0.66,0.14,0.85,0.18,1.15c0.03,0.28,0.09,0.61,0.15,0.93c0.11,0.64,0.25,1.3,0.39,1.95
			l0.88,3.96l1.82,7.97c0.61,2.66,1.21,5.33,1.73,8.02c0.26,1.35,0.5,2.7,0.69,4.08c0.11,0.68,0.18,1.38,0.24,2.11l0.02,0.57
			l0.01,0.29c-0.01,0.17-0.01,0.32-0.11,0.57c-0.08,0.23-0.33,0.55-0.66,0.67c-0.14,0.05-0.27,0.07-0.41,0.08
			c-0.1,0-0.2-0.01-0.29-0.03c-0.32-0.07-0.53-0.18-0.71-0.28c-0.72-0.42-1.23-0.89-1.76-1.36c-0.52-0.48-1.01-0.96-1.5-1.45
			c-0.97-0.99-1.91-1.98-2.84-2.98l-5.56-6.03c-3.7-4.02-7.63-7.85-11.22-12.01c-0.88-1.07-1.79-2.04-2.61-3.35
			c-0.79-1.26-1.4-2.57-1.88-3.91c-0.97-2.68-1.49-5.45-1.79-8.21c-0.29-2.77-0.34-5.54-0.23-8.3c0.08-1.38,0.15-2.75,0.39-4.11
			c0.11-0.68,0.25-1.36,0.48-2.02C716.82,264.97,717.09,264.23,717.82,263.88z"/>
	</g>
	<path class="st7" d="M643.66,387.81"/>
	<g>
		<path class="st6" d="M744.41,259.07c-0.08,2.92-0.72,5.8-1.78,8.57c-0.54,1.39-1.18,2.72-2.03,4.02c-0.26,0.37-0.55,0.76-1.06,1.1
			c-0.45,0.36-1.27,0.55-1.92,0.42c-1.31-0.31-1.91-1.04-2.47-1.63c-1.07-1.23-1.8-2.51-2.5-3.79c-0.69-1.28-1.31-2.57-1.91-3.86
			c-0.62-1.27-1.2-2.56-1.9-3.76c-0.69-1.21-1.45-2.35-2.51-3.18c-4.43-3.64-9.26-6.74-14.1-9.8c-2.42-1.53-4.78-3.14-7.13-4.78
			c-2.35-1.63-4.7-3.26-7.01-4.93l1.46,0.19c-0.76,0.31-1.69,0.91-2.22,1.54c-0.6,0.62-0.87,1.3-0.88,2.07
			c0,0.71,0.39,1.92,0.7,2.97c0.33,1.09,0.74,2.17,1.11,3.27l2.36,6.6c0.79,2.21,1.56,4.43,2.3,6.67l-0.27,0.13
			c-1.26-2-2.45-4.03-3.58-6.1c-1.13-2.07-2.2-4.17-3.2-6.32c-0.51-1.07-0.97-2.16-1.42-3.28c-0.43-1.16-0.94-2.16-1.08-3.81
			c-0.1-1.58,0.54-3.24,1.55-4.33c0.5-0.55,1.05-1.02,1.63-1.41c0.6-0.39,1.14-0.7,1.89-0.99l0.79-0.31l0.67,0.5
			c2.29,1.72,4.55,3.49,6.82,5.26c2.27,1.76,4.51,3.54,6.7,5.41c4.38,3.73,8.77,7.42,13.57,10.57c1.28,0.84,2.31,1.99,3.23,3.14
			c0.92,1.16,1.76,2.37,2.53,3.59c0.79,1.22,1.5,2.46,2.21,3.68c0.71,1.2,1.41,2.42,2.17,3.4c0.36,0.48,0.85,0.82,0.95,0.83
			c0.05-0.01,0,0.08,0.12-0.01c0.11-0.04,0.28-0.21,0.45-0.41c0.78-1.05,1.53-2.24,2.18-3.45c1.31-2.44,2.37-5.08,3.26-7.8
			L744.41,259.07z"/>
	</g>
	<g>
		<path class="st6" d="M684.78,244.66c-2.9-4.57-5.43-9.33-7.72-14.24c-1.13-2.46-2.2-4.95-3.04-7.61
			c-0.21-0.67-0.42-1.34-0.56-2.07c-0.07-0.36-0.13-0.73-0.17-1.14c-0.03-0.42-0.07-0.83,0.09-1.47c0.07-0.28,0.26-0.78,0.75-1.15
			c0.47-0.39,1.24-0.39,1.37-0.35c0.37,0.05,0.79,0.1,1.12,0.18c0.7,0.15,1.38,0.32,2.04,0.51c5.26,1.57,10.17,3.8,15.18,5.8
			c1.26,0.49,2.49,1.04,3.74,1.56c1.22,0.54,2.52,1.11,3.66,1.89l6.67,4.6c4.44,3.05,8.81,6.17,13.15,9.32
			c2.18,1.56,4.36,3.1,6.56,4.59c1.11,0.73,2.2,1.48,3.31,2.18c1.09,0.69,2.25,1.38,3.26,1.81c0.23,0.11,0.49,0.17,0.49,0.17
			s-0.07-0.01-0.15,0.02c-0.08,0.01-0.16,0.04-0.23,0.07c-0.07,0.03-0.23,0.11-0.32,0.21c-0.09,0.1-0.19,0.19-0.25,0.32
			c-0.03,0.05-0.06,0.15-0.06,0.15l0.03-0.08l0.13-0.31c0.35-0.73,0.69-1.3,1.05-1.9c0.71-1.19,1.44-2.33,2.21-3.45
			c1.52-2.25,3.11-4.44,4.76-6.59c1.65-2.14,3.36-4.25,5.18-6.26c0.91-1.01,1.86-1.99,2.86-2.92c0.5-0.47,1.01-0.92,1.56-1.34
			c0.54-0.42,1.13-0.82,1.84-1.02l0.08,0.29c-0.56,0.27-1.03,0.75-1.48,1.23c-0.45,0.48-0.88,0.99-1.29,1.51
			c-0.82,1.04-1.59,2.13-2.37,3.22c-1.53,2.19-3,4.42-4.45,6.66c-1.44,2.25-2.87,4.51-4.24,6.79c-0.68,1.14-1.36,2.28-2,3.42
			c-0.31,0.56-0.63,1.16-0.85,1.65l-0.06,0.16l-0.02,0.04c-0.01,0.04-0.08,0.18-0.13,0.26c-0.11,0.19-0.23,0.37-0.4,0.51
			c-0.16,0.14-0.38,0.29-0.53,0.34c-0.15,0.06-0.31,0.11-0.47,0.14c-0.24,0.04-0.49,0.05-0.65,0.03c-0.67-0.06-1.06-0.22-1.44-0.36
			c-1.48-0.6-2.61-1.34-3.79-2.08c-1.17-0.74-2.29-1.51-3.39-2.31c-2.2-1.59-4.35-3.23-6.47-4.89c-4.27-3.3-8.37-6.78-12.45-10.29
			c-2.05-1.73-4.09-3.49-6.24-5.06c-1.04-0.81-2.23-1.32-3.45-1.89c-1.21-0.55-2.47-1.02-3.72-1.49
			c-5.03-1.83-10.29-3.13-15.43-4.28c-0.64-0.14-1.28-0.27-1.89-0.36c-0.32-0.06-0.58-0.05-0.87-0.1c-0.19-0.01,0.21,0.02,0.42-0.16
			c0.23-0.16,0.25-0.35,0.25-0.3c-0.01,0.01-0.02,0.28,0.01,0.53c0.03,0.26,0.07,0.55,0.14,0.85c0.13,0.59,0.28,1.21,0.46,1.83
			c0.74,2.48,1.7,4.98,2.64,7.47c1.92,4.99,3.98,9.95,5.85,15.01L684.78,244.66z"/>
	</g>
	<g>
		<path class="st6" d="M668.96,234.4c-0.19-1.48-0.58-2.93-1.01-4.37c-0.41-1.44-0.91-2.85-1.4-4.26c-1.04-2.8-2.22-5.53-3.63-8.11
			c-1.42-2.56-3.06-5.01-5.11-6.86c-0.56-0.42-1.02-0.8-1.67-1.23l-1.88-1.27c-1.26-0.84-2.48-1.73-3.71-2.6
			c-4.91-3.51-9.68-7.25-14.77-10.49c-5.08-3.24-10.38-6.22-15.94-8.4c-1.39-0.52-2.79-1-4.18-1.29c-0.69-0.17-1.48-0.3-2.22-0.45
			l-2.23-0.48c-2.96-0.65-5.9-1.38-8.83-2.11c-5.87-1.45-11.73-2.96-17.55-4.58c-5.81-1.66-11.61-3.36-17.38-5.15l-8.64-2.65
			c-0.37-0.11-0.72-0.21-1.01-0.27c-0.28-0.1-0.68-0.11-1.06-0.14l-2.27-0.15c-1.51-0.1-3.02-0.2-4.53-0.33v-0.3
			c1.51-0.13,3.02-0.24,4.53-0.33l2.27-0.15c0.67-0.11,1.73,0.06,2.4,0.19c3.01,0.54,5.96,1.19,8.92,1.86
			c5.91,1.33,11.77,2.82,17.62,4.34c5.84,1.56,11.64,3.24,17.44,4.93l8.7,2.52c1.46,0.44,2.87,0.81,4.34,1.28
			c1.54,0.47,2.95,1.11,4.34,1.77c5.48,2.76,10.58,6,15.8,9.08c5.19,3.11,10.51,6.03,15.65,9.24c1.27,0.81,2.56,1.61,3.81,2.45
			l1.89,1.24c0.31,0.19,0.64,0.45,0.97,0.71c0.33,0.26,0.66,0.51,0.98,0.78c2.41,2.26,4.07,4.98,5.42,7.78
			c1.34,2.81,2.34,5.73,3.09,8.7c0.37,1.49,0.68,2.99,0.9,4.51c0.22,1.51,0.38,3.05,0.28,4.59H668.96z"/>
	</g>
	<g>
		<path class="st6" d="M659.46,226.41c-4.41-3.19-8.61-6.6-12.79-10.03c-4.16-3.44-8.29-6.97-12.3-10.51
			c-1.9-1.62-4.24-3.03-6.55-4.38c-2.32-1.36-4.74-2.57-7.18-3.72c-4.91-2.25-10-4.1-15.14-5.8c-2.57-0.86-5.15-1.67-7.71-2.55
			c-1.29-0.43-2.56-0.9-3.86-1.39c-1.14-0.4-2.4-0.73-3.69-0.98c-5.18-1-10.56-1.51-15.9-2.1c-2.67-0.32-5.36-0.56-8.04-0.85
			c-0.7-0.08-1.27-0.12-1.92-0.15c-0.65-0.02-1.3-0.03-1.97-0.02c-1.33,0-2.67,0.03-4.02,0.07c-5.38,0.18-10.79,0.42-16.22,0.55
			l-0.04-0.3c5.32-1.1,10.67-1.99,16.09-2.61c2.71-0.28,5.42-0.61,8.3-0.45c2.71,0.12,5.42,0.35,8.13,0.57
			c5.42,0.54,10.81,1.22,16.21,2.51c1.35,0.34,2.71,0.71,4.09,1.3l3.69,1.59c2.49,1.05,4.96,2.17,7.44,3.27
			c4.95,2.22,9.92,4.37,14.93,6.44c2.5,1.05,5.03,2.04,7.53,3.13c2.51,1.1,5.01,2.19,7.37,3.92c2.19,1.67,4.24,3.42,6.27,5.22
			c2.03,1.8,4.03,3.62,6,5.48c3.93,3.72,7.81,7.51,11.45,11.55L659.46,226.41z"/>
	</g>
	<g>
		<path class="st6" d="M631.32,214.94c-1.43-1.08-2.71-2.19-4.01-3.26c-1.27-1.1-2.58-2.11-3.77-3.3c-1.2-1.15-2.31-2.55-3.76-3.45
			c-0.7-0.5-1.49-0.83-2.27-1.16c-0.79-0.31-1.63-0.51-2.45-0.7c-1.66-0.28-3.36-0.56-5.05-0.96c-1.68-0.38-3.37-0.72-5.01-1.22
			c-3.28-1.02-6.5-2.21-9.68-3.82l0.05-0.3c3.6-0.27,7.07,0.26,10.46,1.03c1.69,0.41,3.33,0.99,4.96,1.59
			c0.82,0.29,1.63,0.6,2.43,0.94c0.8,0.33,1.61,0.81,2.4,1.21c0.78,0.45,1.53,0.91,2.31,1.32c0.75,0.47,1.55,0.82,2.31,1.25
			c1.57,0.76,3.28,1.4,4.83,2.32c1.51,0.97,2.78,2.27,3.9,3.65c1.09,1.42,2.06,2.94,2.58,4.72L631.32,214.94z"/>
	</g>
	<g>
		<path class="st6" d="M654.97,196.51c1.5,0.85,2.78,1.85,4.06,2.83c1.26,1.01,2.5,2.02,3.59,3.19c1.09,1.18,2.06,2.55,3.34,3.54
			c1.26,1.02,2.77,1.68,4.3,2.13c0.78,0.18,1.54,0.38,2.29,0.49c0.38,0.05,0.74,0.13,1.11,0.2l1.18,0.16
			c1.58,0.21,3.16,0.35,4.73,0.58c3.14,0.49,6.28,0.97,9.57,1.66l0.03,0.3c-1.6,0.66-3.27,0.97-4.94,1.16
			c-1.67,0.18-3.36,0.2-5.04,0.06c-1.68-0.14-3.32-0.54-4.94-0.99l-1.21-0.35c-0.42-0.16-0.83-0.31-1.24-0.49
			c-0.41-0.16-0.79-0.38-1.16-0.61c-0.37-0.23-0.75-0.44-1.1-0.68c-1.4-1-2.74-1.95-4.15-2.81c-1.41-0.85-3.01-1.5-4.41-2.43
			c-0.7-0.47-1.34-1-1.93-1.59c-0.6-0.57-1.16-1.2-1.69-1.84c-1.04-1.31-2-2.68-2.65-4.3L654.97,196.51z"/>
	</g>
	<g>
		<path class="st6" d="M508.88,191.29c1.87-0.49,3.72-0.67,5.57-0.82c1.85-0.1,3.69-0.19,5.53,0.03c1.84,0.22,3.68,0.69,5.53,0.76
			c1.85,0.08,3.69-0.15,5.49-0.55c0.88-0.2,1.82-0.43,2.79-0.57c0.96-0.12,1.92-0.18,2.87-0.19c1.91-0.03,3.81,0.02,5.67,0.3
			c3.72,0.62,7.35,1.62,10.76,3.38l-0.07,0.29c-3.81,0.13-7.47-0.17-11.09-0.49c-1.81-0.18-3.6-0.46-5.39-0.65
			c-0.9-0.1-1.79-0.15-2.68-0.24l-2.75-0.2c-1.89-0.15-3.74-0.25-5.6-0.12c-1.85,0.11-3.71,0.6-5.57,0.77
			c-1.86,0.17-3.72,0.01-5.57-0.19c-1.85-0.25-3.7-0.56-5.52-1.22L508.88,191.29z"/>
	</g>
	<g>
		<path class="st6" d="M466.04,214.79c0.84-2.83,2.34-5.41,4.23-7.73c0.95-1.16,2.05-2.22,3.3-3.13c1.24-0.94,2.65-1.61,4.02-2.12
			c2.78-1.02,5.67-1.49,8.44-2.25c2.78-0.75,5.52-1.62,8.29-2.5c2.78-0.87,5.59-1.64,8.61-1.84c1.54-0.13,2.9-0.1,4.36-0.14
			c1.43-0.03,2.87-0.02,4.3,0.02c5.74,0.21,11.47,0.63,17.19,1.66l-0.01,0.3c-5.75,0.9-11.47,1.17-17.2,1.24
			c-2.84,0.03-5.78-0.18-8.53-0.25c-1.35-0.01-2.75,0.11-4.15,0.22c-1.4,0.13-2.82,0.22-4.23,0.4c-2.83,0.32-5.65,0.9-8.35,1.82
			c-2.7,0.92-5.25,2.31-7.71,3.6c-1.25,0.65-2.41,1.29-3.5,2c-1.1,0.74-2.14,1.61-3.13,2.55c-2,1.89-3.83,4.04-5.65,6.28
			L466.04,214.79z"/>
	</g>
	<g>
		<path class="st6" d="M482.49,210.1c0.04-1.15,0.51-2.14,1.13-3.01c0.64-0.85,1.46-1.63,2.5-2c1.05-0.37,2.21-0.3,3.21-0.42
			c0.51-0.06,1-0.14,1.47-0.25c0.48-0.12,0.95-0.29,1.42-0.47c0.94-0.38,1.9-0.69,2.87-0.84c0.97-0.18,1.93-0.36,2.91-0.37
			c0.98,0,1.95,0.09,2.94,0.28c0.98,0.2,1.96,0.44,2.94,0.93l0.01,0.3c-1.9,1.01-3.8,1.45-5.71,1.69c-0.96,0.1-1.92,0.04-2.88-0.01
			c-0.96-0.01-1.93-0.16-2.91-0.36c-0.96-0.17-1.99-0.26-2.85,0.04c-0.89,0.29-1.55,1.07-2.18,1.65c-0.64,0.58-1.37,0.99-2.11,1.5
			c-0.75,0.49-1.53,0.99-2.5,1.49L482.49,210.1z"/>
	</g>
	<g>
		<path class="st6" d="M466.31,199.52c-0.07,0.71-0.28,1.39-0.52,2.01c-0.24,0.64-0.54,1.23-0.86,1.81
			c-0.67,1.13-1.38,2.24-2.34,3.13c-0.97,0.89-2.17,1.58-3.07,2.51c-0.92,0.91-1.64,2-2.31,3.15c-0.66,1.16-1.38,2.26-2.36,3.27
			c-0.23,0.24-0.6,0.57-0.82,0.77c-0.22,0.19-0.45,0.39-0.68,0.6c-0.45,0.42-0.94,0.82-1.43,1.22c-2.03,1.53-4.16,3-6.71,4.03
			l-0.2-0.22c1.25-2.46,2.94-4.45,4.84-6.26c0.49-0.44,1-0.86,1.56-1.24c0.28-0.19,0.56-0.38,0.86-0.57
			c0.29-0.19,0.43-0.26,0.68-0.45c0.92-0.73,1.96-1.52,3.04-2.26c1.07-0.75,2.04-1.62,2.79-2.67c0.76-1.04,1.21-2.33,1.86-3.45
			c0.66-1.11,1.54-2.04,2.42-2.96c0.91-0.91,1.87-1.75,2.99-2.56L466.31,199.52z"/>
	</g>
	<g>
		<path class="st6" d="M440.02,218.59c-0.15,0.35-0.34,0.72-0.56,1.05c-0.23,0.3-0.47,0.61-0.73,0.9c-0.52,0.55-1.08,1.08-1.67,1.51
			c-0.59,0.46-1.2,0.87-1.83,1.24c-0.62,0.39-1.28,0.71-1.97,0.96c-1.38,0.5-2.89,0.71-4.23,1.25c-1.35,0.53-2.58,1.29-3.77,2.15
			c-0.6,0.42-1.19,0.86-1.81,1.25c-0.61,0.39-1.25,0.74-1.88,1.08c-1.27,0.69-2.54,1.39-3.84,1.93c-0.59,0.25-1.44,0.59-2.19,0.76
			c-0.77,0.19-1.55,0.3-2.32,0.34c-1.54,0.07-3.07-0.07-4.53-0.6l0.01-0.3c1.42-0.49,2.77-0.92,4.05-1.42
			c0.64-0.25,1.26-0.5,1.85-0.78l1.78-0.92c1.31-0.65,2.67-1.12,4.03-1.61c1.34-0.51,2.74-0.9,4.17-1.24
			c1.42-0.35,2.79-0.81,4.04-1.53c1.25-0.71,2.32-1.77,3.49-2.6c2.39-1.6,5.04-2.47,7.7-3.63L440.02,218.59z"/>
	</g>
	<g>
		<path class="st6" d="M454.74,201.87c-1.46,1.09-3.04,1.84-4.68,2.5c-1.64,0.61-3.33,1.16-5.1,1.3c-1.78,0.13-3.58-0.08-5.32-0.04
			c-1.75,0.01-3.47,0.25-5.26,0.37c-0.45,0.05-0.9,0.07-1.35,0.08c-0.45,0.01-0.91,0.03-1.36,0c-0.9-0.07-1.81-0.17-2.7-0.38
			c-0.92-0.17-1.74-0.41-2.58-0.65c-0.84-0.23-1.66-0.5-2.48-0.8c-3.24-1.24-6.42-2.67-9.35-4.68l0.11-0.28
			c3.61,0.19,6.96,0.96,10.26,1.92c0.82,0.26,1.63,0.53,2.43,0.85c0.8,0.31,1.61,0.65,2.36,0.9c1.53,0.53,3.12,0.98,4.77,1.4
			c1.65,0.42,3.38,0.52,5.07,0.3c1.7-0.22,3.31-0.96,4.92-1.46c1.62-0.51,3.27-0.79,4.95-1.1c1.69-0.26,3.39-0.54,5.21-0.54
			L454.74,201.87z"/>
	</g>
	<g>
		<path class="st6" d="M405.47,204.22c-1.03,0.01-1.88-0.17-2.72-0.42c-0.82-0.28-1.64-0.57-2.31-1.14
			c-0.67-0.57-1.22-1.4-1.95-1.88c-0.72-0.49-1.57-0.75-2.47-0.9c-0.9-0.15-1.78-0.35-2.59-0.7c-0.82-0.31-1.65-0.63-2.4-1.11
			c-0.74-0.48-1.44-1.05-2.08-1.73c-0.62-0.67-1.24-1.45-1.56-2.43l0.21-0.22c1.88,0.37,3.46,0.84,5.01,1.59
			c0.76,0.38,1.45,0.89,2.16,1.4c0.72,0.48,1.38,1.08,2.01,1.74c0.64,0.65,1.33,1.2,2.15,1.5c0.81,0.32,1.8,0.29,2.67,0.52
			c0.86,0.24,1.58,0.75,2.28,1.31c0.34,0.29,0.68,0.6,0.97,0.97c0.3,0.35,0.58,0.77,0.79,1.25L405.47,204.22z"/>
	</g>
	<g>
		<path class="st6" d="M573.85,166c-2.19,0.65-4.41,0.94-6.63,1.16c-2.22,0.17-4.45,0.3-6.67,0.07c-2.22-0.23-4.43-0.78-6.64-0.99
			c-2.21-0.23-4.43-0.25-6.71-0.32c-1.14-0.07-2.29-0.11-3.52-0.46c-0.3-0.07-0.63-0.2-0.96-0.36c-0.3-0.15-0.78-0.47-0.95-0.65
			l-0.69-0.64l-0.6-0.65c-1.56-1.74-2.89-3.55-4.07-5.45c-2.3-3.84-4.26-7.85-5.59-12.19l0.26-0.15c3.01,3.37,5.54,6.99,8.02,10.6
			c1.22,1.8,2.34,3.7,3.57,5.39l0.46,0.62l0.47,0.55l0.12,0.14c0.03,0.03,0.05,0.04,0.08,0.07c0.06,0.04,0.07,0.1,0.17,0.15
			c0.17,0.1,0.33,0.22,0.56,0.32c0.85,0.41,1.89,0.79,2.93,1.09c2.09,0.62,4.3,0.94,6.5,0.98c2.21,0.04,4.42-0.38,6.62-0.54
			c2.2-0.16,4.4-0.03,6.61,0.1c2.21,0.17,4.41,0.38,6.64,0.87L573.85,166z"/>
	</g>
	<g>
		<path class="st6" d="M489.28,132.44c2.2-0.22,4.34-0.03,6.47,0.23c2.12,0.31,4.24,0.69,6.27,1.47c1,0.38,2.04,0.92,2.93,1.38
			c0.95,0.45,1.93,0.88,2.94,1.21c2.02,0.68,4.1,1.16,6.21,1.72c2.11,0.55,4.23,1.38,6.11,2.78c0.46,0.36,0.92,0.74,1.36,1.14
			c0.4,0.45,0.86,0.85,1.2,1.36c0.79,1.04,1.21,1.92,1.74,2.88c1.92,3.84,3.5,7.84,4.39,12.1l-0.27,0.12
			c-2.64-3.45-4.81-7.08-6.93-10.7c-0.51-0.89-1.04-1.91-1.48-2.6c-0.2-0.4-0.55-0.72-0.81-1.1c-0.31-0.34-0.64-0.69-0.98-1.02
			c-1.44-1.26-3.13-2.4-4.94-3.45c-1.81-1.05-3.8-1.82-5.86-2.31c-1.03-0.25-2.09-0.39-3.17-0.56l-3.13-0.55
			c-2.05-0.39-4.06-0.99-6.08-1.6c-2.02-0.64-4.03-1.31-6.02-2.22L489.28,132.44z"/>
	</g>
	<g>
		<path class="st6" d="M763.92,477.47c-2.05,4.39-3.88,8.91-5.86,13.35c-1.95,4.46-3.95,8.89-6.01,13.31
			c-2.06,4.41-4.19,8.8-6.47,13.13c-1.14,2.17-2.31,4.31-3.72,6.43c-0.73,1.1-1.43,2-2.15,2.98l-2.12,2.94
			c-2.84,3.92-5.63,7.9-8.34,11.92c-2.73,4.02-5.37,8.09-7.81,12.29c-2.41,4.2-4.73,8.49-6.52,12.97c-0.43,1.12-0.86,2.25-1.17,3.4
			c-0.31,1.14-0.57,2.32-0.53,3.41c0.13,2.3,0.87,4.62,1.66,6.85c0.8,2.25,1.87,4.4,2.95,6.53c1.16,2.1,2.34,4.18,3.68,6.16
			c2.64,3.96,5.67,7.73,9.27,10.63c0.87,0.77,1.86,1.33,2.8,1.95l1.49,0.72c0.48,0.25,1.09,0.42,1.63,0.63
			c2.23,0.8,4.52,1.49,6.84,2.07c4.63,1.19,9.35,2.14,14.1,2.78c2.37,0.34,4.75,0.6,7.12,0.72c2.36,0.13,4.74,0.14,6.99-0.15
			c0.58-0.04,1.08-0.21,1.63-0.3c0.53-0.11,0.95-0.29,1.47-0.53c0.99-0.47,1.99-1.08,2.97-1.73c1.97-1.3,3.88-2.77,5.75-4.28
			c3.74-3.03,7.41-6.22,10.99-9.49c3.59-3.27,7.15-6.58,10.68-9.92l0.22,0.21c-6.38,7.37-13.08,14.45-20.37,21.01
			c-1.85,1.62-3.72,3.21-5.76,4.68c-1.02,0.73-2.08,1.42-3.27,2.03c-0.58,0.29-1.28,0.6-1.93,0.77c-0.64,0.14-1.31,0.36-1.94,0.43
			c-2.57,0.43-5.08,0.44-7.57,0.35c-2.49-0.08-4.95-0.31-7.4-0.62c-4.89-0.66-9.73-1.59-14.49-2.93c-2.38-0.65-4.74-1.42-7.07-2.31
			c-0.59-0.25-1.16-0.41-1.75-0.72l-1.78-0.9c-1.08-0.73-2.2-1.41-3.14-2.27c-3.93-3.28-6.91-7.33-9.5-11.54
			c-2.6-4.21-4.68-8.72-6.18-13.44c-0.72-2.37-1.37-4.78-1.4-7.36c0.02-1.36,0.38-2.56,0.75-3.75c0.36-1.19,0.83-2.33,1.3-3.46
			c1.94-4.51,4.26-8.79,6.61-13.06c4.74-8.52,9.61-16.96,14.94-25.14l2.05-3.04c0.67-1.01,1.47-2.03,2.07-2.96
			c1.27-1.94,2.43-4.08,3.59-6.19c2.3-4.25,4.5-8.58,6.72-12.89c2.21-4.33,4.41-8.66,6.66-12.97c1.11-2.16,2.26-4.31,3.42-6.45
			c1.16-2.14,2.29-4.3,3.62-6.36L763.92,477.47z"/>
	</g>
	<g>
		<path class="st6" d="M764.24,503.47c-0.18,1.43-0.67,2.74-1.12,4.06c-0.49,1.3-0.99,2.6-1.54,3.87c-1.07,2.56-2.23,5.06-3.42,7.56
			c-2.38,4.98-4.85,9.91-7.5,14.73c-2.67,4.82-5.57,9.52-7.95,14.48c-1.18,2.48-2.29,5-3.19,7.59c-0.45,1.29-0.86,2.6-1.12,3.91
			c-0.12,0.65-0.22,1.3-0.21,1.91l0.05,2.07c0.04,2.77,0.07,5.51,0.37,8.15c0.31,2.62,0.92,5.17,2.23,7.24
			c1.29,2.07,3.3,3.56,5.67,4.42c0.55,0.28,1.21,0.36,1.81,0.57l0.91,0.27l0.96,0.16l1.92,0.32c0.67,0.06,1.34,0.11,2,0.18
			c10.72,0.92,21.69-0.38,32.46-2.6l0.09,0.28c-5.14,2.11-10.54,3.56-16.03,4.54c-5.5,0.93-11.13,1.38-16.78,0.97
			c-0.71-0.05-1.41-0.12-2.11-0.18l-2.16-0.36l-1.08-0.19l-1.07-0.32l-1.06-0.33c-0.35-0.11-0.71-0.22-1.05-0.4
			c-0.68-0.33-1.38-0.63-2.04-1c-0.64-0.43-1.28-0.86-1.9-1.31c-0.56-0.54-1.13-1.07-1.65-1.64c-0.45-0.63-0.95-1.23-1.33-1.9
			c-1.55-2.68-2.09-5.68-2.21-8.52c-0.13-2.86,0.18-5.65,0.39-8.38l0.14-2.06c0.07-0.78,0.24-1.48,0.42-2.17
			c0.4-1.37,0.9-2.67,1.4-3.96c1.03-2.58,2.15-5.11,3.26-7.64c2.23-5.05,4.27-10.21,6.61-15.21c2.35-5,4.99-9.84,7.66-14.66
			l4.05-7.2l2.01-3.6c0.64-1.21,1.34-2.41,1.78-3.67L764.24,503.47z"/>
	</g>
	<g>
		<path class="st6" d="M768.65,522.83c-0.8,2.67-1.84,5.21-2.9,7.73c-0.53,1.26-1.09,2.5-1.66,3.74c-0.55,1.25-1.17,2.46-1.83,3.66
			c-1.32,2.39-2.86,4.69-3.97,7.18c-1.1,2.49-1.92,5.13-2.33,7.79c-0.21,1.32-0.32,2.67-0.26,3.85c0,0.31,0.08,0.55,0.1,0.82
			c0.07,0.21,0.13,0.45,0.22,0.53c0.02,0.03,0.02,0.05,0.06,0.1l0.15,0.18l0.29,0.36c0.18,0.24,0.42,0.46,0.63,0.68
			c1.76,1.78,3.97,3.2,6.22,4.42c2.24,1.21,4.71,2.25,7.03,2.43c2.79,0.1,5.56,0.38,8.28,1.04l-0.02,0.3l-8.14,1.02
			c-1.59,0.18-3.1-0.06-4.53-0.41c-1.44-0.35-2.8-0.89-4.1-1.53c-2.6-1.3-4.94-3.09-6.86-5.37c-0.23-0.29-0.48-0.57-0.69-0.89
			l-0.32-0.47l-0.16-0.23c-0.06-0.09-0.12-0.24-0.18-0.36c-0.48-1.02-0.46-1.87-0.39-2.65c0.14-1.55,0.61-2.9,1.07-4.23
			c0.99-2.64,2.09-5.14,3.02-7.74c0.95-2.58,1.61-5.29,2.6-7.87c0.5-1.29,1.05-2.55,1.7-3.76c0.62-1.23,1.28-2.44,1.98-3.62
			c1.4-2.37,2.9-4.69,4.71-6.83L768.65,522.83z"/>
	</g>
	<g>
		<path class="st6" d="M689.31,605.86c2.04,5.24,4.57,10.12,6.98,15.06c1.19,2.47,2.33,5.05,4.04,7.24c1.7,2.18,3.84,4.06,6.29,5.24
			c1.23,0.6,2.49,1.09,3.77,1.53c0.63,0.24,1.28,0.44,1.93,0.63c0.64,0.2,1.29,0.4,1.96,0.55c2.63,0.68,5.33,1.1,8.04,1.49
			c5.42,0.79,10.93,1.34,16.57,1.49l0.06,0.29c-2.72,0.97-5.59,1.33-8.44,1.56c-2.86,0.2-5.74,0.15-8.6-0.17
			c-2.86-0.31-5.69-1.01-8.44-1.95c-2.75-0.92-5.41-2.24-7.72-4.03c-2.34-1.78-4.25-3.9-6.16-6.01c-1.88-2.12-3.88-4.23-5.47-6.64
			c-0.77-1.21-1.48-2.46-2.05-3.78c-0.59-1.31-1.13-2.64-1.57-4c-0.46-1.36-0.83-2.75-1.1-4.16c-0.26-1.41-0.48-2.85-0.39-4.31
			L689.31,605.86z"/>
	</g>
	<g>
		<path class="st6" d="M657.28,629.44c2.56-0.22,5.09-0.07,7.6,0.21c2.51,0.31,5.01,0.72,7.42,1.52c2.41,0.8,4.71,1.93,7.06,2.81
			c2.36,0.89,4.76,1.6,7.18,2.43c0.61,0.19,1.21,0.41,1.81,0.65c0.6,0.24,1.21,0.45,1.78,0.75c0.58,0.28,1.16,0.59,1.73,0.89
			l1.64,0.99c2.16,1.36,4.26,2.83,6.18,4.51c1.91,1.68,3.7,3.5,5.34,5.43c1.64,1.94,3.19,3.96,4.45,6.19l-0.23,0.19
			c-4.01-3.1-7.78-6.3-11.63-9.36c-1.91-1.54-3.77-3.14-5.72-4.62l-1.47-1.09c-0.49-0.35-1-0.67-1.49-1.03
			c-1.01-0.67-2.01-1.39-3.08-2.01c-2.11-1.31-4.41-2.31-6.8-3c-2.39-0.71-4.92-0.89-7.36-1.3c-2.44-0.42-4.84-1.04-7.25-1.66
			c-2.4-0.64-4.81-1.29-7.21-2.2L657.28,629.44z"/>
	</g>
	<g>
		<path class="st6" d="M613.64,642.61c3.74-0.71,7.47-1.19,11.22-1.61c3.75-0.4,7.52-0.74,11.33-0.68c3.81,0.07,7.62,0.6,11.38,1.13
			c3.78,0.47,7.5,1.47,11.14,2.51c3.67,1.01,7.26,2.23,10.79,3.6c3.54,1.33,7.05,2.74,10.5,4.28c6.87,3.15,13.61,6.57,20.05,10.61
			l-0.13,0.27c-7.24-2.29-14.25-5.06-21.2-7.95c-3.46-1.48-6.88-3.04-10.3-4.59c-3.44-1.5-6.84-3.13-10.26-4.67
			c-0.86-0.39-1.72-0.76-2.59-1.1c-0.44-0.17-0.87-0.35-1.31-0.51l-1.33-0.42c-0.88-0.32-1.8-0.46-2.71-0.68
			c-0.92-0.15-1.84-0.3-2.77-0.38c-3.73-0.36-7.47,0.1-11.2,0.4c-3.73,0.28-7.48,0.43-11.25,0.5c-3.77,0.05-7.57,0.02-11.36-0.41
			L613.64,642.61z"/>
	</g>
	<g>
		<path class="st6" d="M674.46,671.68c-3.28-1.26-6.64-2.39-9.96-3.56l-9.98-3.48c-6.68-2.24-13.28-4.6-20.06-6.09l-10.27-2.61
			c-3.42-0.87-6.85-1.68-10.31-2.3c-3.46-0.61-6.96-1.1-10.46-1.29c-3.49-0.19-7.03-0.09-10.3,0.82c-3.29,0.95-6.46,2.48-9.63,3.94
			c-3.16,1.5-6.25,3.16-9.35,4.8c-6.18,3.33-12.24,6.91-18.3,10.47c-3.05,1.76-6.04,3.58-9.09,5.38c-3.08,1.83-6.25,3.47-9.48,4.97
			c-6.46,2.97-13.08,5.55-19.86,7.59l-0.1-0.28c6.41-2.97,12.75-6.04,18.9-9.42c3.07-1.68,6.1-3.44,9.01-5.33
			c2.95-1.94,5.97-3.8,8.99-5.66c3.04-1.81,6.1-3.6,9.21-5.29c3.12-1.68,6.25-3.35,9.43-4.93c3.17-1.6,6.39-3.11,9.68-4.47
			c3.29-1.37,6.65-2.6,10.21-3.37c3.61-0.77,7.23-0.51,10.76-0.24c3.54,0.32,7.05,0.81,10.54,1.34c3.5,0.53,7,1.06,10.49,1.63
			l10.44,1.8c1.69,0.32,3.54,0.62,5.25,1.13c1.74,0.46,3.44,0.97,5.13,1.55c3.38,1.12,6.7,2.35,9.99,3.68
			c6.56,2.67,13.05,5.48,19.26,8.96L674.46,671.68z"/>
	</g>
	<g>
		<path class="st6" d="M559.68,691.54c2.19-3.61,4.78-6.96,7.61-10.1c2.84-3.13,5.93-6.1,9.53-8.46c0.92-0.56,1.81-1.15,2.79-1.62
			l1.45-0.72l1.51-0.61c0.98-0.44,2.06-0.68,3.09-1c0.52-0.13,1.07-0.2,1.6-0.29l0.8-0.13l0.8-0.04l1.59-0.1
			c0.53-0.03,1.05,0,1.58-0.03c1.05-0.02,2.11-0.04,3.15-0.04l6.3-0.06c2.1-0.02,4.2-0.02,6.3,0.03c2.1,0.07,4.2,0.16,6.29,0.3
			c4.19,0.24,8.37,0.56,12.53,1.03c4.16,0.51,8.31,1.07,12.44,1.8c4.13,0.72,8.25,1.52,12.33,2.62l-0.05,0.3
			c-8.39-0.21-16.74-0.79-25.06-1.53c-4.16-0.41-8.3-0.9-12.45-1.39c-4.15-0.45-8.29-0.99-12.44-1.52
			c-4.14-0.5-8.34-0.86-12.44-0.45c-0.26,0.02-0.51,0.04-0.76,0.09l-0.73,0.19c-0.48,0.14-0.98,0.22-1.45,0.4
			c-0.93,0.43-1.88,0.75-2.74,1.32l-1.31,0.77l-1.25,0.88c-0.85,0.55-1.63,1.23-2.44,1.83c-6.47,4.99-12.27,10.91-18.36,16.72
			L559.68,691.54z"/>
	</g>
	<g>
		<path class="st6" d="M546.49,653.69c-2.19,3.03-4.68,5.82-7.29,8.5c-2.63,2.66-5.42,5.18-8.46,7.43
			c-3.03,2.24-6.28,4.31-9.97,5.57c-0.9,0.36-1.88,0.54-2.83,0.76c-0.95,0.19-1.91,0.27-2.85,0.38c-1.89,0.15-3.77,0.19-5.64,0.2
			c-3.74,0.01-7.45-0.11-11.17-0.2c-3.72-0.11-7.43-0.22-11.16-0.41c-7.46-0.3-14.88-1.26-22.23-2.89l-0.06-0.01l-0.12-0.04
			c-3.44-1.23-6.86-2.52-10.26-3.84c-3.4-1.35-6.79-2.7-10.16-4.11c-6.75-2.81-13.45-5.74-20.06-8.95l0.11-0.28
			c7.06,2,14.01,4.27,20.92,6.67c3.46,1.19,6.89,2.44,10.33,3.69c3.42,1.28,6.83,2.6,10.22,3.97l-0.18-0.06
			c3.53,0.93,7.13,1.67,10.75,2.34c3.62,0.67,7.26,1.31,10.91,1.85c3.65,0.56,7.34,0.95,11.03,1.13c3.69,0.2,7.4,0.16,11.07-0.2
			c3.65-0.39,7.34-0.92,10.51-2.33c3.24-1.4,6.35-3.27,9.34-5.34c5.97-4.19,11.51-9.07,17.04-14.04L546.49,653.69z"/>
	</g>
	<g>
		<path class="st6" d="M458.3,655.79c1.65,0.47,3.2,1.21,4.72,1.89c1.52,0.68,3.02,1.37,4.53,1.99c0.76,0.3,1.51,0.61,2.28,0.87
			c0.76,0.29,1.52,0.56,2.3,0.8c1.55,0.48,3.1,0.93,4.67,1.35c3.13,0.83,6.38,1.64,9.71,1.68c3.32,0.06,6.65-0.37,9.92-1.03
			l9.77-2.06c3.24-0.71,6.47-1.48,9.66-2.27c1.6-0.38,3.2-0.78,4.77-1.21c0.79-0.21,1.55-0.45,2.31-0.71
			c0.73-0.26,1.5-0.54,2.03-0.86l0.18-0.11c0.03-0.03,0.06-0.05,0.1-0.07c0.09-0.07,0.26-0.29,0.39-0.43l0.82-0.95
			c0.55-0.64,1.1-1.26,1.67-1.89c1.12-1.25,2.27-2.48,3.47-3.68l0.24,0.18c-0.78,1.5-1.62,2.96-2.47,4.41
			c-0.43,0.72-0.86,1.45-1.3,2.16l-0.66,1.07c-0.13,0.19-0.18,0.33-0.37,0.57c-0.11,0.13-0.22,0.26-0.34,0.38
			c-0.11,0.1-0.21,0.18-0.32,0.27c-1.64,1.23-3.21,1.79-4.83,2.42c-1.61,0.61-3.24,1.11-4.88,1.55c-3.28,0.86-6.61,1.47-9.95,1.95
			c-3.33,0.52-6.7,0.81-10.08,0.9l-10.1,0.37c-3.36,0.14-6.81,0.3-10.23-0.2c-0.85-0.14-1.7-0.31-2.54-0.51
			c-0.83-0.24-1.67-0.46-2.47-0.78c-1.63-0.56-3.2-1.29-4.72-2.08c-3.05-1.61-5.71-3.71-8.38-5.7L458.3,655.79z"/>
	</g>
	<g>
		<path class="st6" d="M525.76,644.05c-3.84-1.22-7.62-1.98-11.34-3.41c-1.84-0.74-3.63-1.74-5.54-2.31
			c-1.91-0.59-3.89-0.89-5.89-1.05c-2.01-0.14-3.99-0.33-5.95-0.62c-1.95-0.25-3.93-0.45-5.9-0.84c-3.92-0.82-7.8-1.83-11.57-3.46
			l0.05-0.3c4.1-0.28,8.09,0.06,12.04,0.59c1.96,0.3,3.92,0.73,5.9,1.22c1.97,0.46,3.89,1.08,5.78,1.8
			c1.89,0.72,3.81,1.31,5.77,1.72c1.96,0.4,4.02,0.47,6.01,0.84c1.99,0.41,3.89,1.12,5.74,2c1.81,0.92,3.68,1.93,5.06,3.56
			L525.76,644.05z"/>
	</g>
	<g>
		<path class="st6" d="M509.11,629.73c-5.41-0.41-10.88-0.71-16.2-2.07c-2.65-0.72-5.23-1.74-7.86-2.51
			c-2.63-0.78-5.28-1.39-7.97-2.23c-2.7-0.85-5.19-2.12-7.57-3.52c-2.39-1.39-4.71-2.87-6.91-4.52c-2.19-1.66-4.29-3.43-6.29-5.32
			c-1-0.94-1.98-1.91-2.92-2.93c-0.93-1.04-1.87-2.02-2.6-3.3l0.26-0.15c2.14,1.57,4.51,3.02,6.74,4.54
			c2.26,1.51,4.49,3.03,6.71,4.57l6.55,4.73c1.1,0.77,2.21,1.52,3.32,2.26c1.11,0.74,2.21,1.52,3.37,2.14
			c2.32,1.3,4.91,2.21,7.55,2.8c2.65,0.59,5.41,0.66,8.09,1c1.35,0.17,2.69,0.38,4.01,0.67c1.33,0.26,2.66,0.55,3.99,0.88
			c1.33,0.32,2.65,0.67,3.97,1.09c1.31,0.43,2.64,0.86,3.87,1.6L509.11,629.73z"/>
	</g>
	<g>
		<path class="st6" d="M487.73,615.09c-2.14,0.16-4.03-0.04-5.91-0.36c-1.86-0.35-3.67-0.87-5.43-1.58
			c-1.76-0.71-3.48-1.61-5.09-2.79c-0.81-0.58-1.57-1.3-2.29-2.07c-0.34-0.42-0.69-0.84-0.97-1.33c-0.14-0.26-0.26-0.51-0.38-0.75
			c-0.08-0.3-0.16-0.58-0.19-0.85l0.26-0.15c0.5,0.74,1.34,1.22,2.11,1.7c0.8,0.47,1.63,0.89,2.48,1.28
			c1.69,0.79,3.43,1.48,5.18,2.17l5.21,2.13c1.74,0.71,3.47,1.46,5.15,2.32L487.73,615.09z"/>
	</g>
	<g>
		<path class="st6" d="M442.02,622.67c-1.76-0.38-3.16-1.22-4.37-2.2c-1.2-0.99-2.21-2.15-3.01-3.44c-0.81-1.28-1.43-2.68-1.81-4.17
			c-0.36-1.51-0.57-3.09-0.2-4.87l0.28-0.12c0.64,1.29,1.33,2.57,2.03,3.84c0.71,1.26,1.46,2.5,2.24,3.72
			c0.75,1.23,1.56,2.44,2.41,3.61c0.85,1.17,1.75,2.3,2.66,3.43L442.02,622.67z"/>
	</g>
	<g>
		<path class="st6" d="M431.2,626.18c-1.92-0.4-3.46-0.6-5.04-0.91c-1.55-0.31-3.09-0.65-4.63-1.09c-1.54-0.44-3.07-0.98-4.62-1.66
			c-1.54-0.71-3.09-1.5-4.64-2.74l0.03-0.3c1.7,0.13,3.39,0.37,5.07,0.68c1.68,0.3,3.34,0.68,4.99,1.13
			c1.64,0.48,3.26,1.05,4.81,1.79c1.55,0.73,3.07,1.61,4.25,2.88L431.2,626.18z"/>
	</g>
	<g>
		<path class="st6" d="M421.77,629.74c-4.46,0.5-8.72,1.27-13.13,1.53c-2.21,0.06-4.46-0.05-6.66,0.25
			c-2.19,0.32-4.34,0.94-6.39,1.77c-1.02,0.42-2.02,0.88-2.99,1.33c-0.98,0.45-1.9,0.93-2.67,1.43c-1.91,1.34-3.84,2.5-5.86,3.49
			c-4.06,1.93-8.24,3.54-12.69,4.52l-0.12-0.27c3.64-2.73,7.49-4.95,11.35-7.1c1.93-1.05,3.94-1.99,5.79-3.03
			c2.29-1.25,4.51-1.62,6.78-1.97c2.25-0.31,4.46-0.63,6.64-1.14c2.18-0.48,4.32-1.32,6.53-1.78c2.21-0.47,4.48-0.56,6.75-0.52
			c2.26,0.09,4.58,0.29,6.74,1.18L421.77,629.74z"/>
	</g>
	<g>
		<path class="st6" d="M402.92,646.42c-6.62,1.25-13.15,2.47-19.67,3.59c-1.63,0.26-3.27,0.5-4.88,0.85
			c-1.64,0.32-3.14,0.83-4.6,1.65c-2.93,1.63-5.73,3.48-8.46,5.44c-2.73,1.97-5.49,3.88-8.32,5.66c-2.81,1.82-5.64,3.61-8.53,5.3
			c-5.82,3.31-11.76,6.45-18.05,9.09l-0.17-0.25c5.22-4.24,10.81-7.98,16.51-11.55c2.87-1.74,5.8-3.4,8.75-5.01
			c2.93-1.65,5.93-3.19,8.96-4.65c3.03-1.48,5.98-3.07,8.82-4.87c1.4-0.93,3.01-1.75,4.58-2.39c1.59-0.67,3.2-1.25,4.85-1.71
			c1.64-0.45,3.31-0.82,4.99-1.04c1.68-0.26,3.36-0.45,5.05-0.58c1.69-0.13,3.38-0.21,5.08-0.19c1.69,0.01,3.4,0.07,5.09,0.35
			V646.42z"/>
	</g>
	<g>
		<path class="st6" d="M450.84,683.86c-1.92-0.87-3.69-1.96-5.46-3.03c-1.77-1.07-3.5-2.19-5.23-3.29l-10.36-6.57
			c-3.43-2.2-6.88-4.47-10.71-5.92c-0.95-0.38-1.93-0.65-2.91-0.94c-0.49-0.16-0.98-0.26-1.49-0.35c-0.5-0.1-1-0.19-1.5-0.27
			c-2-0.3-4.02-0.26-6.07-0.13c-4.09,0.3-8.15,0.8-12.21,1.3c-4.05,0.55-8.09,1.21-12.12,1.9c-4.02,0.67-8.08,1.37-11.94,2.38
			c-0.49,0.12-0.91,0.3-1.38,0.43c-0.41,0.18-0.71,0.27-1.24,0.6c-0.94,0.55-1.91,0.99-2.89,1.39c-1.96,0.79-3.94,1.43-5.98,1.91
			l-0.1-0.28c1.84-0.95,3.65-1.93,5.38-2.99c0.86-0.53,1.7-1.09,2.48-1.68c0.32-0.27,0.93-0.66,1.44-0.94
			c0.5-0.23,1.01-0.48,1.51-0.67c3.99-1.56,8.05-2.46,12.14-3.29c4.1-0.76,8.24-1.26,12.39-1.57c4.15-0.35,8.33-0.41,12.5-0.13
			c1.05,0.09,2.07,0.12,3.13,0.27l1.57,0.23c0.52,0.06,1.05,0.13,1.55,0.27c2.06,0.43,4.06,1,6.04,1.65
			c3.95,1.31,7.92,2.74,11.63,4.67c7.4,3.94,13.8,9.33,19.97,14.8L450.84,683.86z"/>
	</g>
	<g>
		<path class="st6" d="M327.51,662.18c-0.81,1.53-1.95,2.83-3.08,4.06c-1.17,1.2-2.38,2.35-3.67,3.38c-1.24,1.1-2.61,2-3.93,2.98
			c-1.36,0.91-2.75,1.78-4.14,2.64c-1.43,0.79-2.86,1.59-4.32,2.32c-1.49,0.68-2.95,1.42-4.51,1.99c-1.53,0.62-3.11,1.13-4.72,1.58
			c-1.64,0.37-3.28,0.85-5.08,0.7l-0.05-0.3c1.52-0.39,2.98-1.17,4.42-1.86c1.45-0.71,2.88-1.46,4.3-2.23
			c2.85-1.53,5.65-3.14,8.43-4.79c2.8-1.62,5.57-3.29,8.29-5.04c1.36-0.87,2.71-1.76,4.02-2.7c1.33-0.91,2.63-1.88,3.82-2.95
			L327.51,662.18z"/>
	</g>
	<g>
		<path class="st6" d="M281.6,673.18c0,0.3-0.04,0.7-0.12,1.01l-0.29,0.94c-0.23,0.58-0.5,1.16-0.78,1.71c-0.6,1.08-1.26,2.1-2,3.04
			c-1.45,1.92-3.14,3.59-4.98,5.08c-1.84,1.49-3.85,2.78-6.05,3.8c-1.09,0.52-2.25,0.94-3.46,1.26c-1.2,0.29-2.52,0.5-3.79,0.3
			l-0.07-0.29c1.07-0.36,2.11-0.84,3.09-1.43c1-0.55,1.96-1.18,2.91-1.82c1.9-1.29,3.71-2.7,5.49-4.16
			c1.79-1.43,3.55-2.92,5.23-4.49c0.84-0.78,1.66-1.58,2.45-2.41c0.77-0.82,1.63-1.66,2.1-2.64L281.6,673.18z"/>
	</g>
	<g>
		<path class="st6" d="M880.65,572.35c-5.39,3.87-11.04,7.36-16.96,10.42c-2.96,1.53-5.99,2.95-9.17,4.11
			c-1.56,0.59-3.3,1.08-4.89,1.43c-1.6,0.39-3.22,0.72-4.83,1.08c-3.23,0.67-6.46,1.34-9.67,2.08c-3.21,0.73-6.42,1.52-9.55,2.54
			c-3.11,1.03-6.22,2.2-9.01,3.86c-0.71,0.4-1.35,0.88-1.98,1.35c-0.61,0.51-1.18,1.08-1.74,1.67c-1.12,1.18-2.16,2.44-3.18,3.72
			c-2.02,2.58-3.86,5.3-5.68,8.01c-0.9,1.37-1.76,2.75-2.58,4.15c-0.81,1.4-1.62,2.81-2.21,4.22c-0.14,0.35-0.27,0.69-0.36,0.99
			c-0.03,0.14-0.07,0.3-0.07,0.36l-0.01,0.06c0.01-0.02,0.01-0.03,0.01-0.05c0-0.03-0.01,0-0.02-0.08
			c-0.02-0.09-0.06-0.19-0.12-0.27c-0.1-0.12-0.03-0.03-0.01-0.02l0.09,0.08l0.18,0.17c0.13,0.12,0.21,0.22,0.37,0.35l0.9,0.74
			c1.26,0.97,2.59,1.91,3.94,2.83c2.7,1.83,5.45,3.62,8.24,5.33c2.76,1.76,5.59,3.42,8.44,5.02c2.85,1.58,5.75,3.12,8.71,4.28
			c0.74,0.23,1.5,0.58,2.22,0.71c0.37,0.08,0.72,0.19,1.11,0.26l1.19,0.15c1.6,0.17,3.22,0.24,4.84,0.23
			c3.25-0.03,6.53-0.35,9.77-0.97l0.09,0.29c-1.57,0.58-3.18,1.01-4.81,1.38c-1.63,0.37-3.28,0.66-4.96,0.82
			c-1.67,0.17-3.36,0.25-5.06,0.22l-1.28-0.05c-0.43-0.03-0.88-0.12-1.33-0.18l-0.67-0.1c-0.22-0.05-0.42-0.11-0.63-0.17l-1.25-0.35
			c-3.28-1.02-6.31-2.45-9.31-3.94c-3-1.49-5.88-3.16-8.75-4.86c-2.84-1.75-5.65-3.53-8.36-5.5c-1.36-0.98-2.7-1.99-4.02-3.08
			c-0.68-0.6-1.26-1.02-2.08-2.04c-0.1-0.17-0.19-0.36-0.25-0.55c-0.05-0.18-0.04-0.25-0.06-0.39c-0.01-0.12-0.01-0.24-0.01-0.36
			c0.01-0.1,0.02-0.17,0.03-0.25c0.04-0.35,0.12-0.59,0.19-0.85c0.15-0.49,0.33-0.91,0.52-1.32c1.52-3.19,3.45-5.88,5.42-8.59
			c1.97-2.7,4.13-5.25,6.38-7.72c1.13-1.23,2.28-2.44,3.52-3.58c1.22-1.13,2.62-2.22,4.12-2.99c2.97-1.6,6.08-2.77,9.2-3.89
			c3.12-1.12,6.26-2.2,9.42-3.23c3.16-1.02,6.33-1.99,9.52-2.89c1.6-0.43,3.2-0.87,4.8-1.25c0.82-0.19,1.59-0.4,2.34-0.62
			c0.76-0.2,1.52-0.47,2.29-0.72c3.04-1.05,6.05-2.36,9.04-3.69c5.97-2.71,11.88-5.65,17.82-8.59L880.65,572.35z"/>
	</g>
	<g>
		<path class="st6" d="M823.4,609.29c1.3-2.12,3.01-3.94,4.86-5.58c1.87-1.62,3.9-3.07,6.14-4.12c2.24-1.05,4.64-1.7,6.89-2.61
			c2.27-0.87,4.46-1.92,6.68-2.96c1.11-0.54,2.22-1.03,3.35-1.5c1.14-0.45,2.29-0.85,3.45-1.23c2.32-0.76,4.67-1.46,7.06-1.95
			c2.4-0.47,4.83-0.8,7.27-0.96c2.44-0.16,4.9-0.21,7.36,0.09l0.02,0.3c-4.7,1.39-9.32,2.56-13.96,3.7
			c-2.32,0.57-4.66,1.02-6.99,1.56c-2.32,0.57-4.67,1.05-7.03,1.56c-2.36,0.49-4.65,1.26-6.82,2.29c-2.16,1.06-4.09,2.56-6.04,3.9
			c-1.96,1.33-3.99,2.51-5.98,3.81c-2,1.27-3.94,2.63-6.05,3.93L823.4,609.29z"/>
	</g>
	<g>
		<path class="st6" d="M894.02,572.37c-1.3,0.08-2.58,0.64-3.78,1.22c-1.2,0.6-2.36,1.31-3.46,2.07c-1.1,0.77-2.17,1.57-3.17,2.41
			c-0.5,0.41-1,0.82-1.44,1.26c-0.44,0.42-0.86,0.87-1.1,1.24c-0.14,0.19-0.14,0.33-0.14,0.25c-0.01-0.04,0-0.16-0.07-0.23
			c0-0.03-0.02-0.06-0.05-0.07c-0.03-0.01,0.01,0,0.01,0c0.02,0.03,0.23,0.12,0.55,0.24c0.29,0.11,0.58,0.22,0.89,0.31
			c1.22,0.38,2.49,0.73,3.79,1.03c2.59,0.61,5.29,1.02,7.97,1.09l-0.06,0c4.23-0.51,8.4-1.53,12.53-2.59l6.18-1.51
			c1.02-0.26,2.03-0.53,3.01-0.83c0.48-0.15,0.96-0.31,1.38-0.48c0.21-0.08,0.41-0.18,0.51-0.25c0.06-0.03,0.08-0.07-0.01,0.01
			c0,0-0.08,0.08-0.11,0.13c-0.02,0.03-0.04,0.06-0.06,0.09c-0.03,0.06-0.08,0.14-0.1,0.22c-0.03,0.08-0.05,0.16-0.06,0.24
			c-0.02,0.09-0.03,0.22-0.01,0.33c0.01,0.11,0.04,0.23,0.08,0.33c0.02,0.07,0.05,0.15,0.09,0.22c0.04,0.07,0.09,0.14,0.14,0.19
			l0.07,0.08c0.04,0.04,0.12,0.1,0.14,0.11c0.01,0.02,0.08,0.05,0.05,0.04c-0.01,0-0.08-0.03-0.16-0.05l-0.78-0.22
			c-0.54-0.15-1.05-0.32-1.57-0.48c-1.03-0.32-2.05-0.69-3.05-1.04c-2-0.74-3.99-1.45-5.95-2.24c-1.97-0.77-3.94-1.56-5.98-2.15
			C898.26,572.75,896.15,572.39,894.02,572.37z M894.02,572.07c2.15-0.01,4.29,0.09,6.46,0.24c2.17,0.14,4.35,0.38,6.48,0.79
			c2.14,0.39,4.22,1.02,6.26,1.64l3.03,0.97c0.5,0.15,1,0.33,1.49,0.46l0.75,0.22c0.18,0.05,0.37,0.11,0.6,0.22
			c0.1,0.04,0.28,0.15,0.41,0.23c0.08,0.05,0.2,0.15,0.29,0.24c0.05,0.05,0.09,0.09,0.14,0.15c0.07,0.09,0.13,0.18,0.19,0.28
			c0.24,0.28,0.32,1.16,0.13,1.5c-0.04,0.11-0.09,0.22-0.14,0.31l-0.12,0.17c-0.08,0.1-0.2,0.24-0.25,0.28
			c-0.28,0.26-0.49,0.37-0.66,0.47c-0.36,0.19-0.66,0.3-0.95,0.41c-0.58,0.2-1.12,0.35-1.67,0.49c-1.09,0.27-2.15,0.48-3.22,0.68
			c-2.13,0.4-4.26,0.7-6.4,0.92c-4.28,0.41-8.56,0.68-12.78,1.36l-0.03,0l-0.04,0c-2.74,0.01-5.46,0.07-8.24-0.05
			c-1.39-0.07-2.78-0.2-4.18-0.52c-0.35-0.07-0.7-0.17-1.05-0.26c-0.31-0.09-0.77-0.2-1.3-0.56c-0.13-0.1-0.25-0.16-0.39-0.32
			c-0.13-0.15-0.25-0.31-0.36-0.47c-0.2-0.39-0.31-0.83-0.27-1.21c0.06-0.76,0.35-1.25,0.6-1.61c1.06-1.44,2.28-2.12,3.5-2.87
			c1.24-0.69,2.51-1.26,3.8-1.76c1.29-0.5,2.58-0.97,3.89-1.39C891.33,572.65,892.61,572.17,894.02,572.07z"/>
	</g>
	<g>
		<path class="st6" d="M927.81,577.83c2.06,1.56,4.44,2.73,6.7,4.13c0.57,0.35,1.13,0.72,1.69,1.13c0.28,0.2,0.56,0.42,0.84,0.67
			c0.28,0.29,0.57,0.48,0.86,1.12c0.03,0.11,0.06,0.22,0.08,0.33c0.02,0.1,0.03,0.23,0,0.4c-0.05,0.34-0.21,0.59-0.42,0.8
			c-0.39,0.34-0.7,0.4-0.93,0.45c-0.49,0.11-0.86,0.11-1.24,0.12c-0.72,0-1.45-0.08-2.07-0.12c-2.57-0.2-5.13,0.05-7.69-0.12
			c-2.57-0.16-5.15-0.3-7.85-0.7l-0.05-0.3c1.24-0.64,2.54-1.05,3.86-1.37c1.32-0.33,2.66-0.51,4-0.63c2.7-0.27,5.4,0.27,8.05,0.74
			c0.69,0.12,1.26,0.24,1.85,0.3c0.28,0.03,0.57,0.04,0.73,0.02c0.09,0,0.11-0.04-0.03,0.09c-0.09,0.09-0.15,0.21-0.19,0.38
			c0,0.04,0,0.08,0,0.12c0,0.02,0,0.03,0,0.05c0,0.03,0.01,0.06,0.03,0.09c0.05,0.02-0.14-0.27-0.3-0.46
			c-0.19-0.21-0.4-0.43-0.63-0.64c-0.45-0.43-0.95-0.85-1.45-1.26c-1-0.83-2.04-1.64-3.07-2.47c-1.03-0.83-2.08-1.64-2.97-2.68
			L927.81,577.83z"/>
	</g>
	<g>
		<path class="st6" d="M947.15,588.55c1.37,0.37,2.27,1.05,3,1.78c0.72,0.74,1.23,1.57,1.57,2.46c0.34,0.89,0.51,1.84,0.48,2.85
			c-0.05,1.02-0.25,2.09-0.94,3.32l-0.28,0.1c-0.36-0.86-0.7-1.72-1.02-2.6l-1.02-2.59c-0.32-0.87-0.64-1.74-0.99-2.6l-1.05-2.58
			L947.15,588.55z"/>
	</g>
	<g>
		<path class="st6" d="M816.33,617.02c0.17,0.82,0.12,1.59,0.14,2.31c0,0.73,0.01,1.42,0.06,2.08c0.09,1.32,0.44,2.43,0.88,3.57
			c0.42,1.14,1.07,2.51,2.24,3.35c0.53,0.48,1.22,0.75,1.87,1.04c0.66,0.28,1.4,0.39,2.1,0.55c1.46,0.23,2.93,0.48,4.33,0.84
			c1.42,0.32,2.84,0.62,4.23,1.02c2.77,0.85,5.47,1.81,8.3,2.92v0.3c-1.53,0.46-3.08,0.5-4.6,0.46c-1.53-0.05-3.03-0.26-4.5-0.58
			c-1.47-0.33-2.88-0.88-4.28-1.42c-0.69-0.29-1.39-0.57-2.06-0.9c-0.68-0.34-1.32-0.72-1.98-1.11c-0.66-0.42-1.32-0.79-1.98-1.17
			c-0.63-0.43-1.33-0.73-1.96-1.16c-1.32-0.72-2.83-1.5-3.88-2.92c-1.05-1.41-1.29-3.32-1.03-4.93c0.28-1.65,1.02-3.04,1.84-4.3
			L816.33,617.02z"/>
	</g>
	<g>
		<path class="st6" d="M843.11,650.51c1.04-0.31,2.03-0.6,3-0.93c0.97-0.34,1.96-0.69,3.02-0.98c2.13-0.55,4.43-0.77,6.59-0.4
			c2.17,0.35,4.19,1.18,6.25,1.69c2.06,0.5,4.13,0.88,6.26,1.13c1.05,0.15,2.12,0.27,3.16,0.47c1.04,0.2,2.08,0.43,3.11,0.69
			c2.06,0.51,4.12,1.04,6.11,1.75c3.97,1.48,7.85,3.23,11.43,5.66l-0.11,0.28c-4.26-0.62-8.32-1.7-12.33-2.9
			c-2-0.61-3.95-1.37-5.92-2.08c-1.98-0.69-3.92-1.47-5.87-2.29c-1.95-0.79-3.96-1.46-6.03-1.77c-2.07-0.33-4.21-0.2-6.24-0.15
			c-2.04,0.03-3.97-0.01-5.99,0.2c-1.99,0.19-4.31,0.52-6.44-0.08V650.51z"/>
	</g>
	<g>
		<path class="st6" d="M791.15,282.48c-1.53,4.15-3.26,8.17-4.98,12.2c-1.74,4.02-3.47,8.02-5.3,11.97
			c-1.82,3.94-3.89,7.85-4.94,12.05c-0.45,2.07-0.57,4.3-0.66,6.47c-0.09,2.18-0.03,4.37,0.19,6.51c0.23,2.12,0.63,4.27,1.45,6
			c0.42,0.85,0.96,1.55,1.59,1.87c0.32,0.16,0.65,0.26,1.03,0.3c0.39,0.02,0.79-0.01,1.32-0.09c2.06-0.31,4.21-0.77,6.32-1.23
			c2.12-0.48,4.24-0.95,6.34-1.47c2.12-0.47,4.21-1.04,6.28-1.61c2.06-0.58,4.14-1.23,5.95-2.08c0.42-0.25,0.8-0.42,1.22-0.75
			c0.42-0.3,0.82-0.64,1.21-0.98c0.78-0.7,1.54-1.45,2.26-2.24c1.44-1.59,2.78-3.32,4-5.14l0.27,0.13
			c-0.38,1.05-0.85,2.05-1.37,3.04c-0.51,0.99-1.06,1.97-1.69,2.9c-0.62,0.94-1.31,1.85-2.07,2.71c-0.39,0.43-0.78,0.85-1.2,1.25
			c-0.39,0.41-0.98,0.78-1.47,1.14c-2.04,1.24-4.13,2.05-6.24,2.8c-2.11,0.75-4.25,1.36-6.39,1.94c-4.32,1.09-8.6,1.95-13.14,2.42
			c-0.56,0.05-1.26,0.09-1.96,0c-0.71-0.11-1.43-0.36-2.06-0.76c-1.27-0.81-2-2.05-2.43-3.2c-0.45-1.17-0.64-2.33-0.76-3.48
			c-0.11-1.15-0.14-2.28-0.12-3.4c0.04-2.24,0.25-4.45,0.43-6.64c0.23-2.2,0.34-4.36,0.73-6.61c0.91-4.36,2.09-8.65,3.59-12.81
			c0.76-2.08,1.62-4.11,2.57-6.1c0.93-2,1.91-3.97,2.94-5.92c2.07-3.89,4.27-7.71,6.81-11.33L791.15,282.48z"/>
	</g>
	<g>
		<path class="st6" d="M793.14,305.03c-1.01-3.36-1.4-6.86-1.42-10.38c-0.01-0.88,0.04-1.76,0.08-2.65
			c0.09-0.88,0.17-1.77,0.31-2.65c0.26-1.77,0.72-3.53,1.47-5.2c0.15-0.43,0.4-0.83,0.62-1.23c0.24-0.4,0.42-0.81,0.7-1.19
			c0.56-0.74,1.11-1.5,1.72-2.12c1.19-1.29,2.42-2.54,3.69-3.74c2.5-2.43,5.2-4.65,8.09-6.65c1.45-0.99,2.93-1.94,4.47-2.77
			c1.53-0.84,3.08-1.61,4.74-2.31c3.25-1.36,6.53-2.47,9.84-3.46c6.66-1.86,13.41-3.35,20.32-4.16l0.07,0.29
			c-6.41,2.67-12.95,4.82-19.46,6.94c-3.27,1.02-6.56,1.97-9.75,3.04c-1.56,0.54-3.13,1.2-4.72,1.84c-1.57,0.65-3.15,1.28-4.68,2.02
			c-3.07,1.44-5.92,3.4-8.22,5.91c-0.58,0.62-1.1,1.29-1.63,1.96c-0.49,0.7-0.99,1.38-1.43,2.11c-0.49,0.71-0.81,1.45-1.18,2.15
			c-0.3,0.75-0.61,1.49-0.84,2.27l-0.35,1.16c-0.11,0.39-0.19,0.8-0.29,1.19c-0.22,0.78-0.36,1.6-0.54,2.41
			c-0.3,1.63-0.53,3.29-0.69,4.96c-0.34,3.35-0.47,6.76-0.6,10.23L793.14,305.03z"/>
	</g>
	<g>
		<path class="st6" d="M804.62,290.08c-0.28-0.64-0.29-1.3-0.28-1.93c0.02-0.63,0.13-1.25,0.29-1.84c0.34-1.18,0.8-2.33,1.59-3.27
			c0.79-0.94,1.88-1.64,2.71-2.48c0.85-0.83,1.54-1.78,2.37-2.75c0.82-0.96,1.77-1.76,2.8-2.39c1.01-0.66,2.05-1.25,3.16-1.68
			c2.23-0.8,4.57-1.29,7.08-1.08l0.09,0.29c-1.89,1.62-3.89,2.73-5.91,3.74c-1.01,0.49-2.08,0.84-3.11,1.25
			c-1.02,0.44-2.07,0.79-3.13,1.19c-1.03,0.41-1.96,1.12-2.6,2.05c-0.66,0.93-0.91,2.12-1.31,3.15c-0.88,2.04-2.18,3.74-3.45,5.74
			H804.62z"/>
	</g>
	<g>
		<path class="st6" d="M814.44,334.5c0.45-2.22,1.42-4.28,2.9-6.11c0.76-0.9,1.68-1.75,2.89-2.32c1.29-0.61,2.57-0.62,3.7-0.56
			c2.29,0.18,4.39,0.91,6.54,1.25c2.14,0.35,4.31,0.5,6.48,0.5c2.18-0.01,4.34,0.04,6.47,0.15c2.11,0.07,4.36,0.12,6.51,0.41
			c4.32,0.62,8.58,1.55,12.71,3.18l-0.05,0.3c-4.42,0.28-8.73,0.04-13.01-0.29c-2.15-0.2-4.22-0.48-6.42-0.77
			c-2.18-0.28-4.31-0.77-6.42-1.35c-2.11-0.56-4.23-1.01-6.38-1.17c-2.15-0.16-4.36,0.08-6.39,0.29c-1.02,0.12-1.96,0.2-2.65,0.5
			c-0.76,0.31-1.55,0.86-2.29,1.5c-1.52,1.29-2.86,2.95-4.31,4.61L814.44,334.5z"/>
	</g>
	<g>
		<path class="st6" d="M748.69,190.15c-0.24,3.35-0.74,6.62-1.27,9.88c-0.26,1.63-0.56,3.25-0.86,4.87c-0.27,1.62-0.62,3.23-1,4.83
			c-0.75,3.2-1.76,6.38-2.02,9.64c-0.05,0.81-0.08,1.63,0.02,2.4c0.07,0.76,0.4,1.62,0.69,1.34c0.59-0.17,1.26-0.7,1.84-1.22
			c0.59-0.53,1.14-1.14,1.68-1.74c1.08-1.22,2.08-2.52,3.11-3.8l3.09-3.84c2.05-2.58,4.09-5.18,6.26-7.69
			c1.1-1.25,2.21-2.49,3.41-3.69c0.6-0.6,1.21-1.19,1.89-1.78c0.37-0.3,0.68-0.57,1.25-0.89c0.36-0.19,0.48-0.21,0.66-0.29
			c0.18-0.06,0.36-0.14,0.54-0.22c2.93-1.28,5.87-2.88,8.89-4.29l0.17,0.25c-2.48,2.27-5.06,4.33-7.99,6.14
			c-0.19,0.11-0.37,0.22-0.57,0.33c-0.19,0.1-0.46,0.24-0.44,0.27c-0.14,0.1-0.43,0.4-0.68,0.66c-0.53,0.55-1.05,1.17-1.57,1.78
			l-3.11,3.8c-2.11,2.53-4.29,5.03-6.55,7.47c-2.23,2.46-4.59,4.84-7.22,6.98c-0.65,0.54-1.33,1.05-2.03,1.55
			c-0.36,0.24-0.71,0.49-1.11,0.7c-0.19,0.11-0.39,0.22-0.61,0.31c-0.2,0.1-0.45,0.17-0.71,0.22c-0.23,0.07-0.7,0.04-0.96-0.2
			c-0.27-0.21-0.43-0.47-0.52-0.69c-0.2-0.47-0.26-0.91-0.31-1.34c-0.09-0.87-0.09-1.71-0.08-2.55c0.08-3.35,0.14-6.72,0.52-10.04
			c0.2-1.66,0.48-3.3,0.86-4.92c0.35-1.62,0.74-3.24,1.19-4.84c0.89-3.2,1.89-6.38,3.25-9.45L748.69,190.15z"/>
	</g>
	<g>
		<path class="st6" d="M765.23,191.18c4.05-1.89,7.79-4.03,11.86-5.72c2.05-0.79,4.22-1.41,6.19-2.42c1.97-1,3.79-2.28,5.47-3.72
			c0.84-0.71,1.65-1.47,2.41-2.19l0.56-0.54l0.48-0.53c0.31-0.38,0.61-0.76,0.9-1.21c1.19-1.75,2.28-3.67,3.49-5.49
			c2.46-3.65,4.99-7.28,8.02-10.65l0.26,0.15c-1.36,4.34-3.32,8.35-5.58,12.21c-1.16,1.92-2.47,3.74-3.96,5.52
			c-0.36,0.44-0.79,0.91-1.24,1.33l-0.73,0.61c-0.24,0.18-0.49,0.34-0.73,0.5c-0.97,0.65-1.99,1.15-3,1.67c-2.03,1-4,2.02-5.9,3.19
			c-1.89,1.17-3.63,2.65-5.56,3.82c-1.92,1.17-4.02,2-6.18,2.71c-2.16,0.65-4.42,1.22-6.74,1.06L765.23,191.18z"/>
	</g>
	<g>
		<path class="st6" d="M833.68,166.15c-3.13-0.1-6.13,0.19-9.2-0.24c-1.53-0.25-3.07-0.75-4.62-0.82c-1.55-0.08-3.11,0.14-4.62,0.53
			l-2.24,0.6c-0.74,0.19-1.47,0.36-2.13,0.57c-0.33,0.1-0.64,0.23-0.84,0.33l-0.09,0.06c0.02,0.01,0.09-0.06,0.04-0.01l-0.36,0.4
			c-0.49,0.56-1.02,1.13-1.56,1.67c-2.22,2.16-4.56,4.25-7.36,5.92l-0.22-0.2c1.36-2.97,3.2-5.52,5.25-7.92
			c0.53-0.59,1.07-1.16,1.68-1.7l0.48-0.42c0.1-0.09,0.34-0.26,0.51-0.36c0.16-0.08,0.29-0.13,0.43-0.2
			c0.53-0.19,0.97-0.28,1.4-0.35c1.7-0.29,3.29-0.21,4.9-0.04c1.6,0.16,3.16,0.27,4.73,0.14c1.56-0.11,3.14-0.58,4.73-0.71
			c1.59-0.13,3.18,0.1,4.75,0.43c1.55,0.4,3.19,0.86,4.48,2.04L833.68,166.15z"/>
	</g>
	<g>
		<path class="st6" d="M682.56,305.69c4.14-0.37,8.24-1.14,12.6-0.78c2.16,0.18,4.34,0.66,6.39,1.5c2.08,0.84,3.86,1.96,5.62,3.12
			c3.49,2.36,6.68,5.1,9.98,7.66c1.65,1.29,3.29,2.58,4.9,3.93c0.8,0.69,1.59,1.38,2.35,2.17c0.37,0.4,0.74,0.82,1.06,1.34
			c0.16,0.27,0.31,0.55,0.4,0.95c0.1,0.38,0,1.05-0.41,1.42c-0.38,0.37-0.77,0.48-1.1,0.57c-0.35,0.09-0.6,0.1-0.91,0.14
			c-0.57,0.05-1.12,0.07-1.67,0.06c-1.09-0.01-2.16-0.1-3.22-0.22c-2.11-0.25-4.19-0.65-6.24-1.1c-4.12-0.89-8.17-1.99-12.15-3.37
			c-1.98-0.73-3.95-1.46-5.89-2.35c-0.97-0.44-1.93-0.91-2.89-1.42c-0.48-0.26-0.95-0.55-1.42-0.85c-0.48-0.33-0.94-0.63-1.44-1.15
			c-0.29-0.3-0.39-0.43-0.55-0.62c-0.14-0.18-0.31-0.36-0.47-0.53c-0.32-0.36-0.69-0.69-1.06-1.04c-0.75-0.68-1.56-1.35-2.34-2.1
			c-0.78-0.75-1.55-1.63-1.96-2.74c-0.22-0.55-0.26-1.15-0.23-1.71c0.05-0.28,0.11-0.56,0.18-0.82l0.31-0.75l0.28,0.1
			c-0.24,1-0.16,2.01,0.34,2.78c0.48,0.78,1.25,1.38,2.06,1.96c0.82,0.57,1.71,1.11,2.59,1.73c0.44,0.31,0.89,0.62,1.31,0.99
			c0.22,0.18,0.43,0.35,0.64,0.56c0.2,0.19,0.45,0.44,0.54,0.5c0.25,0.21,0.68,0.46,1.09,0.67c0.42,0.22,0.87,0.42,1.32,0.63
			c0.91,0.4,1.85,0.78,2.81,1.13c1.91,0.7,3.85,1.39,5.81,2.01c3.9,1.29,7.83,2.55,11.79,3.65c1.98,0.54,3.98,1.03,5.96,1.48
			c0.99,0.21,1.99,0.41,2.97,0.56c0.49,0.07,0.98,0.12,1.45,0.14c0.21-0.01,0.49,0.01,0.65-0.01c0.17-0.01,0.31-0.06,0.3-0.05
			c-0.02,0.02,0.01,0.12,0.02-0.01c0-0.11-0.06-0.31-0.14-0.5c-0.17-0.39-0.45-0.8-0.75-1.19c-0.6-0.79-1.32-1.53-2.06-2.24
			c-1.49-1.42-3.12-2.7-4.8-3.91c-3.37-2.41-7.09-4.32-10.7-6.3c-1.8-0.98-3.6-2.02-5.35-2.81c-1.79-0.78-3.69-1.3-5.65-1.64
			c-3.92-0.7-8.16-0.45-12.33-1.23L682.56,305.69z"/>
	</g>
	<g>
		<path class="st6" d="M671.89,310.26c-1.25-0.76-2.24-1.74-3.13-2.79c-0.86-1.07-1.67-2.2-2.14-3.54c-0.46-1.34-0.61-2.8-0.86-4.19
			c-0.1-0.71-0.25-1.42-0.08-2.25c0.09-0.41,0.32-0.85,0.67-1.19c0.35-0.3,0.82-0.52,1.18-0.62c1.4-0.51,2.83-0.71,4.23-0.71
			c1.4-0.03,2.79-0.01,4.14,0.23c2.7,0.51,5.32,1.35,7.74,2.88l-0.07,0.29c-2.82,0.36-5.48,0.21-8.1,0
			c-1.31-0.13-2.59-0.39-3.87-0.57c-1.28-0.16-2.55-0.4-3.81-0.5c-0.57-0.06-0.92,0-1.15,0.48c-0.21,0.47-0.14,1.14,0.05,1.73
			c0.4,1.22,1.38,2.22,2.14,3.27c0.76,1.06,1.32,2.23,1.89,3.43c0.55,1.21,1.07,2.46,1.4,3.87L671.89,310.26z"/>
	</g>
	<g>
		<path class="st6" d="M663.55,305.83c-0.93-3.11-2.59-5.8-4.56-8.2c-0.99-1.2-2.07-2.32-3.21-3.39c-0.58-0.52-1.16-1.04-1.76-1.54
			c-0.29-0.28-0.59-0.47-0.88-0.7c-0.3-0.21-0.55-0.48-0.89-0.66c-2.52-1.66-5.5-3.07-8.63-3.85c-3.13-0.77-6.39-1.04-9.61-0.97
			l-2.41,0.09l-2.4,0.16c-1.59,0.13-3.17,0.26-4.69,0.51c-1.41,0.27-3.12,0.72-4.72,1.02c-1.61,0.32-3.23,0.56-4.85,0.81
			c-6.48,0.82-12.99,1.3-19.57,1.11l-0.04-0.3c6.34-1.73,12.74-2.9,19.13-3.99l9.66-1.47c3.4-0.33,6.72-0.09,9.98,0.41
			c3.27,0.5,6.48,1.06,9.71,1.66c3.21,0.62,6.54,1.08,9.69,2.64c0.4,0.17,0.76,0.46,1.14,0.68c0.38,0.24,0.77,0.49,1.07,0.76
			c0.66,0.52,1.29,1.1,1.89,1.7c1.2,1.2,2.3,2.5,3.24,3.92c1.84,2.82,3.19,6.17,2.99,9.55L663.55,305.83z"/>
	</g>
	<g>
		<path class="st6" d="M624.72,292.36c1.21-0.98,2.6-1.58,4.04-2.01c1.44-0.4,2.95-0.67,4.47-0.48c1.53,0.19,2.98,0.8,4.39,1.26
			c1.41,0.46,2.82,1.04,4.2,1.49c1.41,0.45,2.77,0.99,4.05,1.66c1.3,0.65,2.59,1.3,3.79,2.09c2.37,1.64,4.62,3.47,6.51,5.85
			l-0.16,0.25c-2.93-0.75-5.53-1.99-8.03-3.38c-1.24-0.71-2.39-1.56-3.56-2.38c-1.18-0.8-2.3-1.71-3.4-2.66
			c-1.12-0.95-2.26-1.75-3.64-1.99c-1.38-0.25-2.8,0.11-4.14,0.31c-1.35,0.2-2.7,0.2-4.09,0.28c-1.39,0.05-2.81,0.1-4.33-0.01
			L624.72,292.36z"/>
	</g>
	<g>
		<path class="st6" d="M602.62,280.96c-1.09,1.67-2.71,2.9-4.4,3.9c-1.72,0.96-3.59,1.7-5.55,1.95c-1.96,0.25-3.94,0.01-5.84,0.01
			c-1.91,0.01-3.81,0.03-5.75,0.13c-1.91,0.08-3.82,0.05-5.71-0.13c-1.89-0.17-3.78-0.34-5.64-0.7c-3.71-0.77-7.37-1.81-10.85-3.54
			l0.06-0.29c3.87-0.16,7.61,0.19,11.32,0.68c1.85,0.27,3.68,0.67,5.51,1.05c0.92,0.19,1.83,0.37,2.75,0.59
			c0.91,0.22,1.82,0.48,2.74,0.72c1.8,0.46,3.67,0.74,5.52,0.54c1.86-0.18,3.62-0.89,5.33-1.48c3.46-1.07,6.79-2.09,10.31-3.63
			L602.62,280.96z"/>
	</g>
</g>
</svg>
