<svg xmlns="http://www.w3.org/2000/svg" viewBox="0 0 262.64 385.71"><defs><style>.cls-1{fill:#fae3ad;}.cls-2{fill:#7096a0;}.cls-3{fill:#da1415;}.cls-4{fill:#003050;}.cls-5{fill:#b0b7a7;}</style></defs><title>KateHappy</title><g id="Yellow_Skin" data-name="Yellow Skin"><path class="cls-1" d="M124.7,127.56c-.39-1.29-4.49-9.64-5.81-10.17s-6.87-2.11-7.92,0a25.93,25.93,0,0,0-3.17,11.89c0,5.54.53,26.14,1.85,29.57s9.77,20.86,12.67,23.24,7.4,1.85,8.72,3.7,5,25.08,6.34,28,3.43,8.71,4.22,9.24-.53,28.26-1.32,33a74.07,74.07,0,0,1-3.7,9.24c-3.17,7.13-13.73,20.34-16.37,23.24s-17.16,13.73-17.16,13.73-3.17,15.58,0,23.77,10.3,29.84,14,33.54c0,0,5.81,11.35,17.43,16.63s24.3,13.21,40.14,14.79,18.75,1.59,18.75,1.59-1.85-1.32,0-1.59,21.39,0,30.63-1.85,24-2.37,31.16-7.65,20.6-20.07,21.66-24.3,8.71-37.5,7.92-42.25-1.32-8.71-1.32-8.71-2.64,1.32-10.3-3.17-25.62-14.53-31.43-26.94-5-19.8-5-19.8,12.67-12.68,15.84-16.91S271,209.82,275,199.78s1.85-22.18,1.32-25.61-3.17-11.36-.79-19,10.15-13.74,9.3-19.28-6.93-37-17.75-41.73c0,0-11.89-7.13-25.88-4.48s-33.54,3-39.35-.59-17.43-7.6-20.6-13.41-5.81-5.28-5,0A117.6,117.6,0,0,1,177,89.4s-13.74,6.08-15.06,8.19-16.63,27.2-19.27,30.63-10.83,18-14,26.14-3.7,25.09-3.7,25.09-3.1-15.38-3.1-19.08,3.1-23.7,3.37-25.55A12.85,12.85,0,0,0,124.7,127.56Z" transform="translate(-64.02 -7.14)"/></g><g id="Light_Blue_Shadow" data-name="Light Blue Shadow"><path class="cls-2" d="M276.45,150.93c1.94-3.17,10-12.85,9.86-14.26s-9.33-32-12.5-35.56-11.26-10.92-18.48-10.92-36.09,2.12-41,.53S184.58,81,183.52,82.8c-.63,1.06,12.32,7.17,16,8.58s20,2.69,20.38,4.1-3.87,9.85-7,13.73,3.35,7.74,1.58,8.8-25.17-.53-28.69,0-19,1.94-21.13,3.7-3.64,4.74-5.81,5.63-12-5.81-10-6.69,14.18-11.82,16.12-14.81,4.3-11.8,7.29-12.68,8.59-3.38,8.59-5.14c0,0-.27-18.16-2.54-17.1-1.77.81,2.34,14.34,0,16.28s-13.7,6.54-14.76,9.53-4.62,10.43-6.74,12-9.57,10.13-10.62,11.89c0,0-8.56,12.41-10,15.05s-9.69,19.65-10.57,22.12-2.68,12.67-3.91,12.14-9.84-12.33-7.2-10.39,4,3.88,4.2,2.65-1.23-1.41.88-2.12,7-24.47,6.17-27.63-2.82-7.93-3.17-4.93-1.23,8.27-2.29,5.63-9.56-16.4-10.62-13.94-1.18,27.5-.65,32.07,4.76,18.66,7,21.66,6,6.51,9,6.33,4.76-1.57,5.28,0,6.17,34.15,8.45,37.84c0,0,3,4.93,3.35,7.22s-.18,35.39,1.94,43.31,15.21,29.05,20.36,33.27,22.77,18,29.11,19.19,22.39,1.24,26.42-1.58,27.62-20.07,30.44-19.89,16.37,1.4,16.37,1.4-9.81-7.35-12.28-10.34c0,0-14.3-14.48-16.59-18.53s-2.47-12.15-1.76-13.55,13.91-15.85,16-19.72c0,0,20.24-40,22.89-46.48a29.55,29.55,0,0,0,1.4-18S274.52,154.1,276.45,150.93ZM166.07,131.74c4.74-1.45,5.46-.53,4.93,1.94s-7,3-11.44,1.93S163.94,132.4,166.07,131.74Zm25.53,91.9c-1.41-1.41,6.43-10.43,8.24-9.51s7.25,11.09,6.55,11.94S193,225.05,191.6,223.64Zm13.73,11.79c-2.11-1.05,3.25-1.34,3.7,0C209.73,237.55,207.44,236.49,205.33,235.43Zm14.26-31.32c-2.29,2.3-7.39.34-10-.72s-6,.36-9.72.71,2.15-6.87,4.26-8-7.75-4.71-13-7-23.59,1.94-33.45,1.41-14.43-9.15-20.42-17.08-4.75-20.59-4-23.76,11.2-19.08,12-19.54c2.64-1.59,3,15.49,4.76,18.66s18,16.37,23.06,18.85,18.66,4.56,20.95,4.21,5.1-4.4,7.92-4.21,3.7,8.08,6,7.56,5.81-12.15,8.81-12.68,1.23,6.87,2.29,10.74,4.93,16,6.16,18.31S221.88,201.81,219.59,204.11Z" transform="translate(-64.02 -7.14)"/></g><g id="Red_Shadow" data-name="Red Shadow"><path class="cls-3" d="M178.28,70.92c-.78-1.47.29-4.76,2.14-2.38s7.92,14.79,8.71,14.79,3.5-2,8-.2,24.76,7.86,30,8.12S253.17,86.1,260,89s18.61,13.46,19.14,17.42,3.29,16.51,5.67,19.15.67,5.81.67,9.77-4.62,11.07-5.41,15.83-3.44,9.81-1.06,18.26a31.18,31.18,0,0,1-1.19,20.72s-23.76,47.39-27.73,51.08c0,0-12.93,14.53-12.93,15.85s-1.59,8.71,1.32,13.47,9.24,12.93,9.24,12.93a26.72,26.72,0,0,1-6.08-1.32c-2.9-1.05-4.22-4.48-6.6-1.32s-11.62,20.6-15.58,23.51-7.39,9-12.67,8.18-26.41-18.48-33-24S158.24,270.82,155.6,264s-9-29-9.25-31.42-3.43-7.13-5.28-9.51-7.73-9.43-8.53-14.18-1-21-1.5-21.82-3.35,1.85-7,0-13.89-22-15.47-26.25-2.31-26.21-2-31,.79-12.41,2.9-13.46,8.19-.53,9.51,1.58c0,0,13.47,8.45,18.49,5.28S157.45,93.36,160.61,92s11.95-6.07,11.95-7.66,3.83-17,5.15-15.38,1.85,18.29.57,19.61-12.91,5-14.23,7.92-10.57,20.6-12.41,21.92-14,11.09-16.11,11.09-15.58-10.3-17.7-10.3-7.39-1.32-7.92.53-1.32,18-.79,21.92,5.28,25.35,7.13,27.73,4.22,8.45,6.87,9,6.07-2.64,7.39,1.06,3.43,6.6,3.43,8.71,4,23.51,5.55,26.68,3.43,9,4.75,9.5,6.08,2.64,9,5.55c0,0,16.64,14.52,19.81,18.22s15,15.32,23,15.84,25.89-.52,19.29-5.81-23-18.48-23.24-20.86-.79-6.86-3.17-7.92-4-4.2-6.6-3.29-2.91,4.08-6.6,2.23S168,220.38,170.38,217s5.55-8.72,9.25-8.72,10.56-3.43,8.71.53-10.83,11.89-6.34,14,18.49,5.54,21.13,5.28,5.81-1.58,7.66-.53,1.49,1.76,4.93,1.23c1.07-.16,2-1.26,4.05-1.58s5.25,1.2,7,.88a6.29,6.29,0,0,0,3.78-2c0-.41-.52-2.26-5.28-3s-11.88-.26-14.26-3.17-.26-4.75-2.64-6.07-10.8-4.75-8.57-6.07,2.76-3.7,7.25-2.12,7.66,3.7,11.62,2.12,7.13-3.7,9.51-3.7,5,.53,5-.79-5.54-3.44-5.81-5.55-1.84-4,1.06-4,14.79-2.38,19.81-1.58,6.6-.26,7.39-2,10.83-3.57,13.2-5.68,6.08-9.51,5.29-13.21-1.33-6.07-2.91-4.75-9.24,8.72-13.73,9-13.2-5-10.3-5.81,12.68-.79,15-3.43,5-9-3.17-9.25-17.43,3.17-19,5.81-10.3,12.42-10.3,14.53-3.7-2.64-4.75-6.08,1.85-21.12,1.85-23.76-2.12-8.72.52-11.62,21.13-9,26.68-9.51,14.78,5.81,16.9,5.28a7.16,7.16,0,0,0,3.17-6.07c0-4.23,0-19-3.7-21.92s-14.53-7.92-19.81-9-21.92,0-29-1.05S188.87,86,186.76,84.38,180.09,74.35,178.28,70.92Z" transform="translate(-64.02 -7.14)"/><path class="cls-3" d="M170.91,129c1.85-.3,13.21-2.9,12.94,0s-2.9,8.45-11.62,12.41-10.82,4.49-10.82,6.87-.53,7.39,4,10.83,14,5.28,18.49,5.54,15.34-1.32,16,0,5.14-3.17,5.4-6.34,2.11-15,3.7-18.48,4.49-5.81,3.17-8.19S194.94,118.71,191,118.71s-18.75.27-24,3.44-17.69,15-11.88,13.46S164,130.16,170.91,129Z" transform="translate(-64.02 -7.14)"/></g><g id="Yellow_Eyes" data-name="Yellow Eyes"><path class="cls-1" d="M167.72,151.18c-1.18.63-1.47,2.92-.77,4a11.9,11.9,0,0,0,7,4.75c4.23,1.06,19,1.76,19.72,1.94s2.29.52,1.59,0-.35-5.95-3.17-8.06-11.27-4.11-14.62-4.11S169.48,150.22,167.72,151.18Z" transform="translate(-64.02 -7.14)"/><path class="cls-1" d="M238.08,166.42c-1.28-1.91,6-7.22,9.15-7.74s12.32-1.24,14.08,0,4.58,3.34,4.23,4.57-2.82,4.23-5.28,4.76S238.78,167.48,238.08,166.42Z" transform="translate(-64.02 -7.14)"/></g><g id="Dark_Blue_Shadow" data-name="Dark Blue Shadow"><path class="cls-4" d="M246.44,131.39c-2.37.56-7.4.79-7.92,4.75s-1.59,6.34,0,6.6-.09,1.59-.84,4,.75,9.5,0,10.56-6.29,6.6-2.86,5.54,11.62-7.13,15.58-8.45,7.13-2.64,10.56-.26,11.62,6.34,11.36,4.75-9.51-9.77-11.89-9.77-5.86,0-7.42-3.43-4.72-3.43-1.82-4.75,11.62-3.7,16.9-1.32,7.92,7.65,8.45,6.07,1.06-7.4-1.58-9.51-13.09-6.07-19.62-5.81S251.16,130.27,246.44,131.39Z" transform="translate(-64.02 -7.14)"/><path class="cls-4" d="M196.53,131.92c3.88,1.75,9.5,3.17,10.56,2.11s.53-6.07-2.11-7.13-10-7.13-17.43-7.13-18.49,1.58-22.18,4-11.62,13-9,10.71,12.15-7.34,14.79-7.18,11.88-3.06,16.11,0S193.62,130.6,196.53,131.92Z" transform="translate(-64.02 -7.14)"/><path class="cls-4" d="M181.73,143.54c2-1.82,7.4,0,9.52,0s1.05-5,2.9-3.17,6.63,9,5.69,11.88-2.26,9-2.52,6.6-7.13-11.5-8.19-12.22S179.08,145.91,181.73,143.54Z" transform="translate(-64.02 -7.14)"/><path class="cls-4" d="M235.87,166.77c2.42-2.83,4.66-5.78,7.74-8.2a12,12,0,0,1,2.58-1.62,20.3,20.3,0,0,1,2.81-1,32.93,32.93,0,0,1,5.68-1,24,24,0,0,1,2.95-.07,10.45,10.45,0,0,1,3.16.58,8.18,8.18,0,0,1,2.68,1.88c.7.68,1.3,1.35,1.91,1.9a5.24,5.24,0,0,0,4.37,1.44,12.66,12.66,0,0,0,5.21-1.34,10.38,10.38,0,0,1-5,2.8,7.68,7.68,0,0,1-3.1.23,7,7,0,0,1-2.94-1.28,28.3,28.3,0,0,1-2.24-1.78,6.49,6.49,0,0,0-1.9-1.18,8.56,8.56,0,0,0-2.29-.29,23,23,0,0,0-2.6.1,43,43,0,0,0-5.26.76,24.41,24.41,0,0,0-2.49.65,13.13,13.13,0,0,0-2.24,1.09C241.91,162.31,239.11,164.86,235.87,166.77Z" transform="translate(-64.02 -7.14)"/><path class="cls-4" d="M197.58,163c-1.09-1.6-2.13-3.21-3.25-4.74-.55-.77-1.11-1.52-1.71-2.23a13.66,13.66,0,0,0-1.83-1.88,2.76,2.76,0,0,0-.46-.32,3.29,3.29,0,0,0-.5-.25l-1.26-.54c-.86-.35-1.73-.66-2.6-.94a27.93,27.93,0,0,0-5.28-1.26,12.86,12.86,0,0,0-5.08.16,4.7,4.7,0,0,0-.67.17l-.72.2c-.48.12-1,.24-1.46.34a21,21,0,0,1-2.95.45,16.78,16.78,0,0,1-6.05-.35,13.28,13.28,0,0,1-1.39-.62c-.44-.22-.87-.42-1.3-.65-.87-.44-1.73-.88-2.57-1.36,1,.17,1.9.37,2.84.58l1.4.32a10.57,10.57,0,0,0,1.34.29,12,12,0,0,0,2.66-.08c.91-.11,1.82-.24,2.72-.44s1.78-.44,2.66-.69c.44-.12.88-.27,1.31-.41l.65-.23.71-.25a12.65,12.65,0,0,1,3.19-.56,18.84,18.84,0,0,1,3.11.16,27.67,27.67,0,0,1,5.83,1.56c.93.38,1.84.77,2.73,1.22.44.22.88.44,1.32.7a6.65,6.65,0,0,1,.73.49,4.12,4.12,0,0,1,.65.58,18.64,18.64,0,0,1,3.24,5.1A35.24,35.24,0,0,1,197.58,163Z" transform="translate(-64.02 -7.14)"/><path class="cls-4" d="M166.19,150.52c.21,1,.49,2,.8,3,.15.5.32,1,.52,1.48a5,5,0,0,0,.76,1.37,5.44,5.44,0,0,1-1.37-.93c-.41-.36-.81-.75-1.2-1.15-.77-.8-1.49-1.61-2.21-2.49Z" transform="translate(-64.02 -7.14)"/><path class="cls-4" d="M270.22,162.27c-.38.46-.75.87-1.14,1.29s-.78.81-1.19,1.21-.83.77-1.28,1.12a6,6,0,0,1-1.42.88,5.44,5.44,0,0,0,.84-1.35c.23-.49.43-1,.61-1.48s.34-1,.5-1.52.3-1,.41-1.52Z" transform="translate(-64.02 -7.14)"/><path class="cls-4" d="M191.31,157.67c0,2.37-1.52,3.8-2.53,3.78-2.14,0-3.23-.26-4.27-.29a26.41,26.41,0,0,1-2.78-.24c-2-.19-3.41-1.08-3.41-3.25a6.5,6.5,0,0,1,13,0Z" transform="translate(-64.02 -7.14)"/><path class="cls-4" d="M261.93,163a6.43,6.43,0,0,1-1.51,4.16c-1.19,1.43-2.74,1-4.74,1a20.23,20.23,0,0,1-4.58-.23c-1.41-.3-2.15-3.28-2.15-5a6.49,6.49,0,1,1,13,0Z" transform="translate(-64.02 -7.14)"/><path class="cls-4" d="M242,226.07s-1.06-5.42,1.32-5.69,4.49-.26,5.68,1.85,1.18,6.6-1.46,6.87S244.59,227.54,242,226.07Z" transform="translate(-64.02 -7.14)"/><path class="cls-4" d="M207.6,242c1-1.2,9.53-.53,13-1.59s7.92-8.19,8.71-4-2.37,6.87-5,7.66S205.21,244.94,207.6,242Z" transform="translate(-64.02 -7.14)"/><path class="cls-4" d="M224,210.08c2.81-1.51,2.63-2.11,5.41-2.11s3.83-.79,1.46,2.11-9.38,4.23-12.48,4.23-4.16-1.85-2-2.11A26.76,26.76,0,0,0,224,210.08Z" transform="translate(-64.02 -7.14)"/><path class="cls-4" d="M205.24,207.87c-2.11.36-2.37,2.21,0,1.95S207.35,207.51,205.24,207.87Z" transform="translate(-64.02 -7.14)"/><path class="cls-4" d="M242,226.2a22.21,22.21,0,0,1-5.94,4.43,14.55,14.55,0,0,1-3.63,1.35,20.74,20.74,0,0,1-3.7.41c-2.44.06-4.88-.23-7.3-.15a54.76,54.76,0,0,0-7.2.75,36.44,36.44,0,0,1-7.39.64,56.06,56.06,0,0,1-7.29-.89,63.25,63.25,0,0,1-7.07-1.82c-.59-.18-1.17-.39-1.77-.64a4.1,4.1,0,0,1-1-.53,7.16,7.16,0,0,1-.76-.65,15.38,15.38,0,0,1-2.34-2.92l.22-.21c1,.67,2,1.35,3,1.9a7.77,7.77,0,0,0,.73.34,2.82,2.82,0,0,0,.68.17l1.73.24c2.36.29,4.74.61,7.1,1s4.71.87,7,1.21c1.11.16,2.26.2,3.46.29l3.6.26a38.59,38.59,0,0,0,7.21-.08c2.39-.25,4.75-.93,7.1-1.37,1.16-.23,2.36-.37,3.46-.54a22.12,22.12,0,0,0,3.22-.87c2.19-.75,4.38-1.7,6.68-2.54Z" transform="translate(-64.02 -7.14)"/><path class="cls-4" d="M178,69.33c1.08-.93,3.17,2.64,4.76,5.55s1.84,9.24,6.07,8.45,6.61-.79,11.09,2.11,17.69,6.07,25.62,6.07,28-3.16,32.74-1.84,17.24,11.09,18.65,15.58,7.49,26,8.55,29.51-5.28,10.72-6.34,14.37S276.08,162,277,171c0,0,1.75,9.51,0,16.9s-10.89,18-15,26.41-10.3,24.64-14.17,27.81-15.14,12.33-17.25,14.79-5.81,8.1-10.39,10-15.14,5.28-18.31,5.28-7.75-1.94-7.22,0-.53,1.58,2.11,1.76,5.26-1.94,6.86,0,3.35,4.4,7.76,4.75,9.28-7,12.38-9.15,12.26-13.73,12.17-12.33c0,0-1.49,9.51,1.33,13.38s17.25,22,22.35,24.47,12.15,11.62,20.25,11.45,26.23-8.81,32.39-16.2,16-19,14.26-25.53-.35-13.55-6.86-21.3c0,0-10.57-19.89-11.1-25.88s4.58-14.26,6.34-19.54,3.35-14.26-1.76-17.6-7.92-1.94-8.27-10.21,4.05-8.81,7.74-12.86,10-8.8,7.93-15.31c0,0-9.51-40.85-9.86-45.42S303,64.14,299.52,59.21c0,0-10.74-14.61-22-20.77S263.25,32.63,257.79,27,237,9.92,224.52,8,189,7.8,182.8,9.92c0,0-17.43,9.5-20.6,12s-7.57,4.4-8.45,5.81-4.93.52-6.87.7-12,3.52-14.79,9.16-18.13,44-18.66,51.23S114.49,103.4,112,108s-6,10-6.16,14.62c0,0-4,22.13-5.63,27.09s-4.93,18.5-11.27,28S66.25,210.26,65.2,219.41c0,0-2.64,22.19,0,31.87s8.09,28.52,15.14,33.45,18.13,8.8,24.64,8.45,13.56-1.23,18-7.92,16.2-18,16.9-23.95,2.64-36.79,2.29-37.5-6.16-11.72-7.22-16c0,0-2.46-18-2.82-19.75s-.17-1.94-1.23-2.29a20.56,20.56,0,0,1-7.57-3c-3.7-2.47-7-8.93-9.5-13.36s-5.11-14.68-5.81-19.76-.88-20.2-.36-22.42,0-7.67,3.17-8.72,4.4-2.82,6.69-1.59,5.64,7.4,6.16,12,1.59,6.52.18,12.86-3.52,15.55-2.29,22.38,1.76,16.7,2.64,13.35,1.94-18,4.23-23.72c0,0,9.68-20.29,13.55-25.22s15-23.06,16.55-27.46,1.76-5.28,4.05-6.52,14.61-6,14.61-6-.88-12.15-1-14.44S176.11,71,178,69.33Z" transform="translate(-64.02 -7.14)"/></g><g id="Green_Shadow" data-name="Green Shadow"><path class="cls-5" d="M225.05,190.81c-1.32-2.12-4.76-13.21-5.28-16.38s-.66-14.43-3.3-12.84-7.27,14.16-8.85,12.31-4.46-7.65-7.78-6.6-3.31,4.23-7.8,4.23-23.23-6-26.93-9.77-13.1-12-15-15.48-2.82-17.53-4.4-17S131,147.76,131,151.72s.15,11.84,1.5,15.12c2,4.86,9.85,15.52,14.34,18.95s10.83,8.45,16.37,7.39,14.53-3.69,21.92-2.37,17.7,3.69,16.38,5.54-4.58,8.72-3.14,8.72,8.68-1.32,12.11-1.06,7.4,4.23,9.51,2.05S226.37,192.92,225.05,190.81Zm-3.7,7.13c-.53,1.32-3.17,4.22-6.34,2.9s-9.24,0-10.82,0,1.32-2.9,2.64-4.75-10.3-9.25-12.94-10.83-13.73.26-17.43,1.06-17.43.26-22.71-1.85-14-16.37-16.64-22.18-.89-14.23-.53-16.64,2.38-7.13,4.76-8.45,11.35,18.22,14,21.12,31.69,16.91,35.12,17.17,6.34-2.11,9.39-3,6.46,7.49,8,7,7.66-9.24,7.93-11.09S221.88,196.62,221.35,197.94Z" transform="translate(-64.02 -7.14)"/><path class="cls-5" d="M199.84,213.34c-3-1-11.76,8.89-8.07,10.47s14.7,4.52,15.23,2.26S202.1,214.13,199.84,213.34Z" transform="translate(-64.02 -7.14)"/><path class="cls-5" d="M158.34,133.89c1.3-.66,6.32-1.83,8.08-2.36s3.76-1.78,4.73-.46,2.54,2.1-1.6,4.12-6.71,2.38-8.47,1.94S157,134.55,158.34,133.89Z" transform="translate(-64.02 -7.14)"/><path class="cls-5" d="M216.51,110.18c2.11-2.12,8.45-14.53,6.51-15.59s-20.49-2.54-24.12-4.13A66.83,66.83,0,0,0,192,87.62a44.08,44.08,0,0,1-5-2.18c-.62-.44-7.36-13.81-7.61-11.62-.35,3.06.37,11.44.46,12.41a8,8,0,0,1-2.51,4.69c-1.13.7-10.19,4-10.89,6.07s-8.05,10.19-9.37,12.22-10,10.67-8.79,12.34,8.12,7.54,9.45,7.18,4.15-4.56,5.65-5,15.32-4.58,18.57-4.4,18,.09,21.13.62,8.45,2.2,11,1.49,5.11,1.41,3.88-1.85S214.4,112.29,216.51,110.18ZM213.1,117c.09,1.58-3.28,1.27-7.15,1.27s-24.74-1.32-28.7-1.14-18,6.69-20.6,7.31-2.9-2.29-3.52-4.14,5.46-4.67,7.31-6.25,8.12-13.68,8.54-14.52a12.22,12.22,0,0,1,2.2-3.33c.79-.79,12.17-6.34,12.61-6.86s-3.46-13.14-3.46-13.85,4.33,12.83,5.47,13.19,5.25,1.64,6,1.84c1.47.41,7.82,3.44,9.84,4.23s16.49.8,17.89,1.77-7.52,12.71-8.05,14.21S213,115.41,213.1,117Z" transform="translate(-64.02 -7.14)"/><path class="cls-5" d="M142,236.14c-.63.63-3.34,25.88-3,28s4.75,17.08,3,18.84-40.31,32.57-40.31,35c0,0,8.45,36.44,16.55,43.84S150.93,388.6,164,391.41s44.19,1.06,55.28-1.41,31.16-3.87,38.55-10.56,19.54-24.12,21.3-35.91,4.76-35.92,4.58-36.8S276.25,305.27,271,302c-2.95-1.85-4.26-1.77-4.71-2.18s-.89.11-1.31-.08c-5.48-2.33-11.59-5.55-16.17-2.23-3.52,2.55-22.49,17.61-32.87,18s-18.18,6.81-32.09-.95c0,0-20.77-13.75-24.29-19.39s-11.62-17.56-13.21-26S143.71,234.38,142,236.14Z" transform="translate(-64.02 -7.14)"/></g></svg>