<svg xmlns="http://www.w3.org/2000/svg" viewBox="0 0 262.64 385.71"><defs><style>.cls-1{fill:#7096a0;}.cls-2{fill:#b0b7a7;}.cls-3{fill:#fae3ad;}.cls-4{fill:#da1415;}.cls-5,.cls-6{fill:#003050;}.cls-6{stroke:#003050;stroke-miterlimit:10;}</style></defs><title>KateSad</title><g id="Light_Blue_Shadow" data-name="Light Blue Shadow"><path class="cls-1" d="M187.72,90.21c-.64-.54-1.93-.3-1.64,3.91s3,16.55,1.64,18.35-8.58,3.31-10.32,5.12-9,16.24-12.73,19.25-18.8,11.43-21.12,11.73-9.83-.6-12.73-2.4-2.31-11.47-3.76-15.08-5.71-11.59-8.32-11.59-5.85,2-7.59,4.7-3.47,13.84-3.47,19,6.36,32.49,8.1,35.8,8.39,12.93,11,13.54,6.08,2.1,6.08,4.21,2.31,24.67,3.76,28,2.6,4.51,2.6,6.31-2.89,43.63-4.34,49.34-12.73,18.05-18.22,21.06c0,0-8.1,4.81-11.58,5.42s-7.81,1.5-7.81,1.5.58,26.77,6.08,34.6,18.51,27.37,33.85,35.5,35.58,14.44,44.84,14.44,57.58-9,67.7-16.25,23.15-12.63,29.51-20.16,11.86-41.21,11.86-41.21S257,311,253.49,308.32s-16.2-17.15-18.8-20.76-3.76-17.15-3.76-17.15,9.26-9.32,13.59-15,16.21-25,18.52-28.58,9.55-18.35,10.13-21.36,2.89-16.77,3.47-23.09,6.65-31.06,6.94-35,0-23.77-2.31-27.38-8.39-9.62-13.6-9-18.52,5.41-30.67,5.41-28.61-5.41-33.69-7.52a24.8,24.8,0,0,1-11.44-9.93C189.84,95.32,192,93.82,187.72,90.21Z" transform="translate(-64.02 -7.14)"/></g><g id="Green_Shadow" data-name="Green Shadow"><path class="cls-2" d="M191,113.53c-2.06,3.42-9.47,4.15-10.92,8.36s-6.18,27.59-2.42,30.29,28.07,5.12,33.27,7.22,9,6,14.76,5.72,27.48-4.81,32.11-4.81,16.21-1.51,17.94-6,4.92-24.07,2.89-26.78-21.69-13.23-32.11-9.92-36.16-1.21-38.19-2.41-10.7-4.51-12.73-7.52S189,95,189,97.43,192.47,111.12,191,113.53Z" transform="translate(-64.02 -7.14)"/><path class="cls-2" d="M200.26,192.5c-3.67,1.71-13.89,5.71-18.23,5.11s-20.83-17.45-22.56-16.55-4.92,11.57,0,16.62,14.46,20.09,23.14,21a32.07,32.07,0,0,0,20.7-5.12c4.47-3,7.36-12.63,5.63-17.14S204.59,190.48,200.26,192.5Z" transform="translate(-64.02 -7.14)"/><path class="cls-2" d="M224.56,185c-2.43,1.64-7.52,20.16-6.65,25.58s-1.16,20.45,2,20.75,13,.31,13.31-2.7-1.45-11.13,0-11.44,4.92,1.53,11.28,1.67,12.45-1.36,15-4.37,11.28-7.82,12.44-12,.29-15.64,0-14.74-7.52,8.73-11.57,10.23-9.55,3.14-11.86,2-6.37-11.35-9-8.94S235,205.73,233,204.23,229.48,181.67,224.56,185Z" transform="translate(-64.02 -7.14)"/><path class="cls-2" d="M203.31,251.46c-2,.18-4.21-5.41-1.31-6.92s9.54,1.51,11,3.46,2.7,2.56,4.82,1.05,4.15-3.71,7.33-1.25,3.18,2.76,0,3.66S206.66,251.16,203.31,251.46Z" transform="translate(-64.02 -7.14)"/><path class="cls-2" d="M135.45,277c.87-.6,7.81,14.44,13.31,20.76s11.86,14.14,22.86,13.24,25.17-1.66,33,.07,12.15-3.68,15.33-8.2,7.53-12.93,11.58-10.22,15.62,12.93,20.25,15.34,17.65,10.23,16.78,10.23-22.86-4.21-30.67-2.71-19.38,22.26-25.75,23.77-45.13-.61-46.58,0,8.68,10.22,4.34,11.13-14.18-2.11-18.23,1.2-13.59,18.65-11.57,23.17,10.85,10.47,7.09,8.36-20.69-9.87-27-17.09S98.93,336.51,99.51,333.2s18.29,4,22.06.39,8.67-28.58,8.1-32.79-1.16-11.43-1.16-11.43a7.26,7.26,0,0,0,4.63-3.31C134.58,283.35,135.45,277,135.45,277Z" transform="translate(-64.02 -7.14)"/><path class="cls-2" d="M116.36,125.41c1.23,2,2.6,5.11,4.19,4.21s1-4.06,0-5.11-3.76-3.46-4.19-2.56A3.83,3.83,0,0,0,116.36,125.41Z" transform="translate(-64.02 -7.14)"/></g><g id="Yellow_Highlights" data-name="Yellow Highlights"><path class="cls-3" d="M193.16,114.58c1.19-1.14-.42-7.07.3-6.47s4.48,6.47,11,9.33,19,4.66,23.73,5,20.11-1.81,26.18,0,14.76,6.92,15.05,12.48,3.47,20-5.79,20.31S229.05,160.31,223,159s-38-5.41-39.49-8.12-2.46-21.36-1.59-24.67,3.38-6.92,5.84-8.12A17.22,17.22,0,0,0,193.16,114.58Z" transform="translate(-64.02 -7.14)"/><path class="cls-3" d="M201.71,195.35c.92-1,1.88-3.76,2.74,0s3.77,7.68,0,11.74-7.37,7.37-14,7.37-14.17-3.31-17.36-7.07-12.44-15.5-12.29-17-.73-4.36,1.3-3.31,14.11,12.34,19.5,12.64,9.87.15,12.47-.61S200,197.24,201.71,195.35Z" transform="translate(-64.02 -7.14)"/><path class="cls-3" d="M223,227.24c-1.15-.2-1-6.62-1-10.83s0-31.44,2.6-25.87,2.9,18.65,5.06,19.1,5.79-.9,6.66-3.91.43-11.13,3.33-8.72,7.37,8.27,12,7.37S268,194.75,269,195.81s-.14,6.76-2.75,8.57-9.69,8.57-11.28,10.08-9.84,0-13.6-1.21-7.09-2.25-10.12-.6-2.46,9.48-4.49,11.89S224.71,227.54,223,227.24Z" transform="translate(-64.02 -7.14)"/><path class="cls-3" d="M143.94,380.92c-1.32-.93-10.42-5.61-10.8-8.82a11.4,11.4,0,0,1,8.48-11.63c6.95-2,3.09-6.42,8.49-10.43s10.42-10.83,16.59-10.83,34,2.2,41.73-3.81,11.12-20.86,26.93-23.27,25.92,3.41,33.22,3.81,14.23,8,15.77,12.84-9.25,39.71-20.06,46.13-55.54,17.65-72.52,16.44S149.26,384.68,143.94,380.92Z" transform="translate(-64.02 -7.14)"/><path class="cls-3" d="M97.26,305.71s1.2,33.77,4.67,34.57,18.48-.87,21.56-5.29,7-22.26,7-27.87V290.27S101.12,306.11,97.26,305.71Z" transform="translate(-64.02 -7.14)"/></g><g id="Red_Shadow" data-name="Red Shadow"><path class="cls-4" d="M217,165.32c-2.12-1.81-19.67-8.22-26.81-8.42s-23.15-.4-25.27-1-2.12-4.41-4.63-2-8.48,11-3.85,15.24,9.06,5,10.41,7.42,1.54,8.42,5,11.63,8.29,6.62,13.3,5.62,16.4-3.61,19.29-6,4.41-3.23,6-4.81a12.07,12.07,0,0,0,3.67-7.42c.19-3.41-.77-3.61,1.15-4.82S219.16,167.12,217,165.32ZM181,169.13c-5.21.8-10.22-2.21-15.24-4s.42-3.16,2.9-3.61c2.26-.41,19.09,3,21.79,3.88S186.18,168.33,181,169.13Z" transform="translate(-64.02 -7.14)"/><path class="cls-4" d="M278.57,161.48c-.77-1.44-4.44.43-14.08,1s-24.11,3.61-26.81,5.22-1,2.6-1,4.41-1.16,5-1.93,7.22c-.57,1.66,1.16,6.42,1.74,8.82s20.06,9.63,22.18,10,9.45-8.82,11-11.83-1.93-2.61-1.35-4.21,6.94-5.22,8.1-5.62.77-4.61,1-6.4S279.34,162.91,278.57,161.48Zm-6.75,12.06c-2.7,0-6.75-.6-8.1-2.6s5.92-2.46,8.1-1.68C276.06,170.8,274.52,173.54,271.82,173.54Z" transform="translate(-64.02 -7.14)"/><path class="cls-4" d="M264.54,224.69c-1,.8-12,9.42-14.52,9.62s-8.1-2.81-10.61-5.21-3.47-5.22-3.47-3.21,4.24,15.24,2.7,19.25a60.4,60.4,0,0,1-5.4,9.63s-10-3.81-10.8-3-4.44,2.61-6.75,2.21-4.44-1.56-7.33-1.28-7.91,1.48-11.19,1.08-9.07-4.21-9.45-7.42,5.45-14.24,3.31-14-12.57,5-17.58.2-15.95-13.24-18.68-17.85-10.06-8.79-13.72-9.11c0,0-4.44-1.32-5-4.33s-5-21.66-5-24.87,8.68-22.06,12.15-24.87-10.8-12.83-16.4-10.83c-.93.33-1.73,4-2.5,2.41s-7.91-19.46-10.61-18.45-5.6,18.45-3.86,21.66,7.91,18,10.22,16,3.86-7.22,4.25-4.61,2.12,23.31.38,21.88-12.73-14.73-13.69-18.1-3.67-25.64-2.9-28.45,4.25-11.83,6.56-11.63,4.69-2.41,2.73-1.81-9,4.61-9.42,7.42-.06,39.45,1.48,41.89,10.81,17.28,14.08,19.89,8.88,4.21,9.26,6.61c0,0,1.35,20.06,2.9,25.27s4.43,11,4.62,15.45,2.13,22.26,3.48,27.27,6.36,21.06,9.83,22.67,10.23-2,14.85-2,5.69.8,8.92,1.61,5.54-2.81,9-1.41,8.49,6.42,16,7.22,12.73-2.2,16.59-5.81,12.95-15.4,16.73-18.41,13.94-17.44,17.21-21.66S265.53,223.88,264.54,224.69Zm-40,44.52c-1,2.21-6.17,15.44-11.76,15.84s-18.28-1-21.77-5.21-5.87-8.61-6.59-12.23c-.51-2.63-2.5-12,0-10.43s.63,9,6.59,9.22S225.53,267,224.56,269.21Zm2.9-12.22c-1.16,1-13.51,5.6-17,5.2s-9.73-5.14-7.17-5.2C207.2,256.91,228.61,256,227.46,257Z" transform="translate(-64.02 -7.14)"/><path class="cls-4" d="M207,229.3c-1.74,0-4.73-1.41-4.3,0s1,4,4.3,5.21,8.29,6,15.24,4.22,12.15-4.24,9.64-4.83-5.21,2.8-12.73,0S211.31,229.3,207,229.3Z" transform="translate(-64.02 -7.14)"/><path class="cls-4" d="M138.35,155.64c2.91.24,18.43-8.82,20.1-10.23s15.39-18.2,16.35-21,1.35-4.82,4-5.62c0,0,9.84-6,11.19-6.22s-4.25-24.47-2.32-21.86,5.6,16.85,12.93,19.66,23.14,8.44,31.43,9.13,19.87-4.72,25.46-4.72c0,0,8.1-3.41,13.31.8s9.84,8,10.23,14.64-3.67,30.29-1,29.08,10-25.07,7.52-31.69-3.47-14.44-14.27-16.84-24.3.6-34,1.4-19.86,1.81-30.09-3.61S186.76,80.28,184.83,85.1s1,22.66-1.54,24.87-14.47,6.8-15.82,11.92,0,9.33-5.4,12.34S130.82,155,138.35,155.64Z" transform="translate(-64.02 -7.14)"/></g><g id="Yellow_Eyes" data-name="Yellow Eyes"><path class="cls-3" d="M172.2,182.42a16.45,16.45,0,0,0,4.14,6.85c2.9,2.52,9.5,4.23,11.89,4s8.17-3.3,9.33-4,1.64-4.6,1.64-4.6-10.9-2.38-13.5-2.56-13.21-1.25-13.5.31" transform="translate(-64.02 -7.14)"/><path class="cls-3" d="M242.11,187.43s.39,1.56,3.86,4,6.56,4.82,10.42,4,6.63-1.93,7.61-3.13c0,0,4.38-5.15,3-6.05s-15.21-.57-17.76-.39S242.69,185.67,242.11,187.43Z" transform="translate(-64.02 -7.14)"/></g><g id="Dark_Blue_Shadow" data-name="Dark Blue Shadow"><path class="cls-5" d="M174.08,161.66a103.09,103.09,0,0,1,13.64,1.8c3.43.91,14.56,3.46,17.75,4.82s6.8,1.95,7.23,1.05,1-3.46,0-4.21-12.87-6-15.91-6.17-19.39-1.65-22.71-1.65-12.73.75-10.56,1.95S170.78,161.5,174.08,161.66Z" transform="translate(-64.02 -7.14)"/><path class="cls-5" d="M246.84,166.47c-1.51.6-6.65,2.22-5.93,3.29s2.31,2.28,5.21,2,14.17-1.91,17.5-2.61,12.3-1.9,13.31-2.66,2.75-2.73,0-2.94S251.8,164.52,246.84,166.47Z" transform="translate(-64.02 -7.14)"/><path class="cls-5" d="M197.94,179.26c2.38,1.35,2.9,2.41,4.78,2.26s.43-6-2.39-6.47-19.31-1.36-17.43-.6S194.23,177.14,197.94,179.26Z" transform="translate(-64.02 -7.14)"/><path class="cls-5" d="M247.42,177.15c-1.52.27-8.68,5.87-5.64,5.72s5.78-3.46,10-2.86,10.56.3,8.82-.75S250,176.7,247.42,177.15Z" transform="translate(-64.02 -7.14)"/><path class="cls-5" d="M201.42,186.63a19.92,19.92,0,0,0-3.85-2.13,8.67,8.67,0,0,0-2-.48c-.34,0-.67-.06-1-.08l-1.1,0c-3-.05-5.95-.16-8.93-.36s-5.93-.45-9-1a48.94,48.94,0,0,1-8.74-2.61,34.44,34.44,0,0,1,4.55.06c1.49.09,3,.17,4.43.22,2.92,0,6,.09,8.93.3a83.24,83.24,0,0,1,9,1l1.13.22a8.5,8.5,0,0,1,1.2.32,9.57,9.57,0,0,1,2.2,1.08A12.11,12.11,0,0,1,201.42,186.63Z" transform="translate(-64.02 -7.14)"/><path class="cls-5" d="M238.59,188c1.16-.3,5.79-2.4,8-2.55s10.13.15,13.74,0,10.85,0,12.3-.76" transform="translate(-64.02 -7.14)"/><path class="cls-5" d="M238.59,188c1.26-.75,2.49-1.51,3.8-2.18a13.68,13.68,0,0,1,4.34-1.56,79.8,79.8,0,0,1,8.69-.28l4.26.06c1.41,0,2.91,0,4.33.14s2.87.23,4.29.34c.72.08,1.43.12,2.14.18a9.66,9.66,0,0,0,2.15,0,6.45,6.45,0,0,1-2.07.84c-.71.19-1.43.32-2.15.46-1.45.23-2.89.42-4.32.55s-2.84.24-4.29.35-2.92.09-4.37.09c-2.86,0-5.79-.23-8.54-.37a16.18,16.18,0,0,0-4,.59A38.74,38.74,0,0,1,238.59,188Z" transform="translate(-64.02 -7.14)"/><path class="cls-5" d="M171.9,180.87s.87,5,1.6,5.46" transform="translate(-64.02 -7.14)"/><path class="cls-5" d="M173.37,180.61c-.08.94-.13,1.92-.16,2.89,0,.48,0,1,0,1.44a3.11,3.11,0,0,0,.27,1.39,3.46,3.46,0,0,1-1-1.16q-.4-.64-.75-1.32c-.48-.89-.92-1.79-1.34-2.72Z" transform="translate(-64.02 -7.14)"/><path class="cls-5" d="M266.8,185.29s.72,2.39,0,3.45-3.61,4.51-3.61,4.51" transform="translate(-64.02 -7.14)"/><path class="cls-5" d="M268.24,184.86a8.94,8.94,0,0,1,0,2.78,3.55,3.55,0,0,1-.62,1.57c-.32.32-.6.55-.9.84l-3.52,3.2,2.3-4.07c.18-.33.39-.69.54-1a2.83,2.83,0,0,0,0-.66,6.84,6.84,0,0,0-.63-1.81Z" transform="translate(-64.02 -7.14)"/><path class="cls-6" d="M180.44,182.87c-1,.61.57,4.66,2.31,5.71a12.28,12.28,0,0,0,6.66,1.36c1.45-.3,4.2-.6,5.06-2s.87-4.38.87-4.38S182.76,181.52,180.44,182.87Z" transform="translate(-64.02 -7.14)"/><path class="cls-6" d="M246,186.22s.72,4.47,2.17,5.37,6.37,2.56,8.1,1.66,4.35-2.4,4.63-4a9.13,9.13,0,0,0,0-3.05S247.42,185.35,246,186.22Z" transform="translate(-64.02 -7.14)"/><line class="cls-5" x1="142.75" y1="225.21" x2="146.07" y2="225.21"/><path class="cls-5" d="M206.77,232.36a2.75,2.75,0,0,1,1.66-.5,2.78,2.78,0,0,1,1.67.5,2.92,2.92,0,0,1-1.67.5A2.89,2.89,0,0,1,206.77,232.36Z" transform="translate(-64.02 -7.14)"/><path class="cls-5" d="M188.54,254.32a60,60,0,0,0,7.52,1.5c3,.3,7.09-1.2,9.55-.75a84.49,84.49,0,0,0,10,1.5c2.17,0,4.34-1.2,6.95-1.12a73.41,73.41,0,0,1,8.1,1.12" transform="translate(-64.02 -7.14)"/><path class="cls-5" d="M188.58,254.17a43.08,43.08,0,0,1,5.37.16c.85.07,1.75.15,2.51.18s1.56,0,2.41,0c1.72,0,3.58,0,5.43,0a9.72,9.72,0,0,1,1.42.12c.44.08.88.14,1.33.19.88.11,1.77.14,2.67.17s1.78,0,2.66,0,1.75.09,2.57.09a6.25,6.25,0,0,0,1.1-.08,8.94,8.94,0,0,0,1.1-.25c.78-.22,1.65-.48,2.6-.67a9.93,9.93,0,0,1,3-.13,19.25,19.25,0,0,1,2.74.55,26.88,26.88,0,0,1,5.14,1.88l-.06.29c-1.84.18-3.63.17-5.39.17-.87,0-1.75,0-2.55,0a12.2,12.2,0,0,0-2.26.36c-.78.18-1.62.43-2.58.59a11.52,11.52,0,0,1-1.52.18,8.66,8.66,0,0,1-1.56-.08,26.25,26.25,0,0,1-5.32-1.35c-.86-.29-1.71-.58-2.57-.79-.43-.12-.86-.21-1.3-.3a4.59,4.59,0,0,0-1.23,0c-1.71.15-3.32,1-5.13,1.46a8.64,8.64,0,0,1-2.9.23,14.93,14.93,0,0,1-2.77-.54,19.58,19.58,0,0,1-5-2.17Z" transform="translate(-64.02 -7.14)"/><path class="cls-5" d="M235.35,14.7S192,5.27,185.2,7.48s-19.86,14-21,15.44-10.8,5.62-16.39,9.43S124.83,50.6,121,56.21,104.39,108.76,103,117c0,0-2.89,23.27-5,32.09s-19.09,57.77-23.14,63.18-11.57,16.85-10.8,24.27c0,0,1.73,40.51,5.78,48.13s10,25.88,13.89,26.48,22-.4,28.16-4.41,21-15.65,22.37-20.46,3.48-21.91,3.86-30.81,2.12-23.34,1.93-24.55-4-10.83-4.82-15.64-3.09-22.66-3.09-22.66-1.35.8-5.59-1.61c0,0-1.93.86-6.37-7.39s-9.25-21.89-10.41-29.11-2.12-13.84-.77-21.26,2.51-10,4.24-11.63,6-2,6.75-1.21,5.79,8.43,6.56,12,1.93,11.43,3.47,13,6.56,3.21,6.56,3.21-7.33,9.3-8.49,13.18-2.89,16.23-1.93,19.68a68.36,68.36,0,0,0,2.9,7.74s-1.93-8.91.19-13.52,8.1-20.86,14.47-24.47,14.65-7.22,18.32-13.24,8.49-16.84,9.06-17.65,17.17-7,17.36-8-2.12-18.85-2.12-20.66.82-7.22,2.63-.6c0,0,7.59,14,9.14,15.45s10.41,6.81,18.32,8.22,23.34-.6,29.32-1.61,20.83-4.81,26-2.2,14.08,8.82,13.88,19.65-8.48,38-8.68,41.16c0,0-2.44,21-3,25.45s-9.54,28.66-12.23,32.67S241.62,259,239.35,261.59s-7.95,8.22-7.95,8.22-1,14.64,1.13,18.85,11.31,10.83,16.9,16,14.85,15.24,22.76,15.44,12.73,1.81,21.8-5.81,24.69-22.87,27.58-29.29,4.63-12.63,2.51-18.05-7.33-14.44-8.68-18.85c0,0-6.37-11.33-5-15.79s7.14-18.3,9.07-24.32,6.17-22.33,1.54-26.51-7.71-5.16-4.63-7.37c0,0,10-5.63,10.22-11.85s.39-13.84-4.43-23.06-5.4-15.65-3.86-20.86,5.79-6.82,1.16-17.45-9.26-10.63-11.38-17.65S306.8,80.05,305,71.66c0,0-9.21-19.36-15.44-24.67-4.77-4.07-15.79-9.75-18.62-11.83" transform="translate(-64.02 -7.14)"/></g></svg>